<svg id="Layer_1" data-name="Layer 1" xmlns="http://www.w3.org/2000/svg" viewBox="0 0 146.67 185.38"><defs><style>.cls-1,.cls-2,.cls-3{fill:#981b1e;stroke:#231f20;}.cls-1{stroke-linecap:round;}.cls-2,.cls-3{stroke-linecap:square;}.cls-2{stroke-linejoin:round;}</style></defs><title>bi</title><path class="cls-1" d="M197.09,101.52S177.9,161.85,168.86,182c-16.82,37.53-40.5,64.33-47.79,75.22-2.76,4.94,6.32,8.18,9.87,3.23,13.64-17.81,33-52.6,44.59-78.28C180.43,171.31,197.09,101.52,197.09,101.52Z" transform="translate(-56.41 -78.04)"/><path class="cls-1" d="M90.37,88.71a302.63,302.63,0,0,0-30.5,4.48c-3.7.5-3.78-10.28-1.06-10.54,1.21-.11,15.31-2.16,31.57-3.58a172.39,172.39,0,0,1,38.5,1.33c10.59,1.64,25.46,3.33,35,4.55,29,3.72,22.49,4.72,39,2.82,0,0-5.51,2.9-9,4.4s-18.5,2.5-30,1.35c-8.37-.84-22.22-2.7-35.17-4.46C117.34,87.5,103,87.57,90.37,88.71Z" transform="translate(-56.41 -78.04)"/><path class="cls-2" d="M170.62,155.14c6-.62,0-1,0-1S101.7,150.27,96,150.27a8.87,8.87,0,0,0-7.92,4.61S161,156.14,170.62,155.14Z" transform="translate(-56.41 -78.04)"/><path class="cls-3" d="M164.59,174.77c3.42-.18-1.26.06-.68-.51,0,0-48.28-3.59-55-3.59-7,0-10.65,3.2-11,4C98,174.66,153.21,175.37,164.59,174.77Z" transform="translate(-56.41 -78.04)"/></svg>