<svg id="Layer_1" data-name="Layer 1" xmlns="http://www.w3.org/2000/svg" viewBox="0 0 222 226"><defs><style>.cls-1{fill:#006837;stroke:#000;stroke-miterlimit:10;}</style></defs><title>equanes</title><path class="cls-1" d="M211.12,63.44H4.53C41.21,42.72,73,24.47,105.21,6.94c3.92-2.13,10.94-2.29,14.81-.2C151.23,23.61,182,41.25,213,58.65Z"/><path class="cls-1" d="M2,216.68c7.68-4,15.29-11.29,23.05-11.44,55.82-1.1,111.67-.58,167.5-1,12.73-.09,23.19,1.95,27.4,18.3H5.06Z"/><path class="cls-1" d="M165.6,190.78c0-19.07-.13-37.75,0-56.42.14-14.71,10.31-15.53,21.55-15.62,12.7-.11,12.29,8.11,12.54,17.08.49,17.4,1.67,34.78,2.7,55Z"/><path class="cls-1" d="M65.83,192.9H27.36c1-22.38,1.26-44.17,3.68-65.71.37-3.32,10.8-7.88,16.33-7.56,5.34.3,14.39,5.69,14.86,9.66C64.63,149.66,64.79,170.31,65.83,192.9Z"/><path class="cls-1" d="M217,84.35H5.08q0-3,0-6h211Z"/><path class="cls-1" d="M134.44,190.08c-2.52,1.61-3,2.17-3.57,2.24-34.93,4.62-49.64-14.44-34.68-47,2.81-6.12,14.22-11.68,21.39-11.36,5.83.26,15,9,16.09,15.23C136.13,162.86,134.44,177.29,134.44,190.08Z"/><path class="cls-1" d="M147.16,108.8c18.14-17,61-16.63,69.83,0Z"/><path class="cls-1" d="M11.63,108.12c1.86-2.67,3.79-8,5.93-8.11q29.09-1.17,58.24-.41c2.22.06,4.33,5,6.48,7.7-2.33,1.63-4.73,4.74-7,4.64C54.81,111,34.34,109.57,11.63,108.12Z"/></svg>