<svg id="Layer_1" data-name="Layer 1" xmlns="http://www.w3.org/2000/svg" viewBox="0 0 205 192"><defs><style>.cls-1{fill:#c1272d;stroke:#000;stroke-miterlimit:10;opacity:0.95;}</style></defs><title>hicat</title><path class="cls-1" d="M58.46,63.23,39.71,43.41l4.1-5.06c2.6-.17,5.28-.82,7.79-.42,15.08,2.38,26.47-2.52,35.23-15.35,7.35-10.77,20.32-12.24,27.19-2,10.5,15.7,24,20,41.38,16.9,1.22-.22,2.62.6,7.51,1.86L142.43,58.85c9.85,8.26,11.66,8.52,42,4.47l-13.87,27,20,9.3L191,102c-6.28.5-12.65,2-18.81,1.33-28.44-2.92-23-1.56-23.42,21.9-.22,13.69-.51,27.4.1,41.07.48,10.75-3,15.47-14.47,15.13-22.17-.64-44.38-.5-66.56-.06-11.79.24-15.78-4.79-15.43-16.25.63-20.19.18-40.41.18-62.57H12.34l-.41-2.61,21.71-9.06L18,65.75Zm62.13,60.38c-39.83-5.43-39.84-5.43-39.8,31.75,0,3.78-.66,7.78.38,11.26.75,2.48,3.75,5.94,5.91,6.06,11.07.61,22.2.28,33.52.28Z"/></svg>