<svg id="Layer_1" data-name="Layer 1" xmlns="http://www.w3.org/2000/svg" viewBox="0 0 253 293"><defs><style>.cls-1{fill:#2e3192;stroke:#000;stroke-miterlimit:10;}</style></defs><title>ilith</title><path class="cls-1" d="M184.59,101.59c0,11.67-3.19,23.47.65,32.17,8.67,19.64,14,39.1,14.92,60.66.17,4.05,15.41,7.48,27.64,13,0,15.06.33,33.79-.32,52.48-.11,3.14-4.33,8.66-6.86,8.78-16.78.79-33.69,1.19-50.38-.29-3.08-.27-7.28-9.55-7.64-14.9-1-15.38-6.87-30.86-7.36-46.3-.71-22.35-7.44-45.23-26.75-46.07-20.7-.91-23.43,24.23-25.27,47.56-1.26,16.07-13.73,28.8-13.32,44.94.29,11.51-3.76,15.85-15.75,16.45C25.9,272.45,25.92,272.84,26,224.79c0-6.23,0-12.45,0-21.59,29.5,4,30.81-14,29.12-34.81-.38-4.67-.21-12.1,2.54-13.87,14.31-9.21,10.89-22.84,10.55-35.73-.26-9.84.22-17.43,13.22-19.59,4.69-.78,10.69-10,11.3-15.82,1.59-15.29,0-30.88.82-46.28.29-5.3,4-10.42,6.15-15.62,3.1,4.34,6.33,8.6,9.24,13.07,1.37,2.11,2.11,4.63,5,11.26l7.28-23.85,5.38-2.7,14.72,24.27c1.11-5.63,1.07-9.6,2.72-12.66,1.94-3.59,5.36-6.37,8.13-9.51,2.78,3.35,7.71,6.55,7.95,10.07a288.9,288.9,0,0,1,.23,42.1C159,90.43,161.7,103,184.59,101.59Z"/></svg>