<svg id="Layer_1" data-name="Layer 1" xmlns="http://www.w3.org/2000/svg" viewBox="0 0 587 363"><defs><style>.cls-1{fill:#063f23;}</style></defs><title>kahl</title><path class="cls-1" d="M161.79,341l-.14,1.28-4.61.22-.24-1.43c-.32,0-.66-.07-1-.07q-8.1,0-16.2,0c-.46,0-1.09-.25-1.17.61,0,.13-.51.28-.78.29a21.73,21.73,0,0,1-2.64,0c-.61,0-1.53.46-1.68-.76,0-.09-.65-.14-1-.14-4.12,0-8.24,0-12.36,0-.54,0-1.08-.19-1.62-.2a2.19,2.19,0,0,0-1.25.21c-2.7,2-5.65,1.56-8.71,1.06,0-.24.06-.43.11-.61s.13-.36.23-.65H91.81l-.24,1.13h-76V325.61c1.48-.32,3-.54,4.42-1a14.57,14.57,0,0,0,3-1.4c2.59-1.5,5.13-3.09,7.71-4.6,2.88-1.67,5.66-3.45,7.68-6.2a4,4,0,0,0,.83-3.47c-1.49-5.69-1.33-11.58-2.11-17.35a53,53,0,0,0-1.88-7,12.84,12.84,0,0,0-.63-1.81,5.82,5.82,0,0,1,.64-6.39c1.15-1.52,2-3.3,3.05-4.87a6.66,6.66,0,0,0,1.31-4.71c-.05-.49-.25-1.14.58-1.34.13,0,.23-.4.25-.62.15-2.33,1.32-4.24,2.55-6.12.65-1,1.27-2,2-3.09-1.67-.09-3.14-.08-4.58-.28-2.41-.34-3.47-1.6-3-4,.93-4.41,2-8.79,3.23-13.13,2.32-8.35,4.77-16.65,7.15-25a6.34,6.34,0,0,0-1.24-6.15,8.85,8.85,0,0,1-1.29-9.68,28.38,28.38,0,0,1,2.31-4.18c3.48-5.29,5.51-11,5.1-17.4a57.8,57.8,0,0,1,.58-10.32,2,2,0,0,1,1.58,2.33c-.52,7.1-.36,14.15,2.26,20.91a16.68,16.68,0,0,0,1.86,3.58c.54-2,1.1-4.08,1.63-6.13,3.12-12.1,6.26-24.2,9.29-36.32a26,26,0,0,0,.57-5.82,7.42,7.42,0,0,0-1.87-5.3,9,9,0,0,1-1.3-2,4.76,4.76,0,0,1,.66-5.69,26,26,0,0,1,3.25-3,11.5,11.5,0,0,0,4.49-9.61c-.06-7.88-.08-15.75-.12-23.63,0-.43,0-.86,0-1.38l1.4-.15c0,.56,0,1,0,1.49,0,6.68,0,13.36.06,20,.08,4.76,1.08,9.3,4.32,13a23.1,23.1,0,0,0,2.58,2.5,5.79,5.79,0,0,1,.91,7.72c-2.47,3.25-2.8,6.94-1.9,10.73,1.93,8.16,4,16.29,6,24.42,2.44,9.51,5,19,7.46,28.5,0,.15.09.29.22.7,1.58-1.82,3.43-3.3,3.48-5.77.09-4,0-8,0-12,0-1.08,0-2.16-.12-3.24a2.37,2.37,0,0,0-1.76-2.38,4.52,4.52,0,0,1-2.47-2,61.38,61.38,0,0,1-3.3-8.71c-1.07-3.81-.09-7.5,1.77-10.86,2.66-4.78,5.53-9.45,8.27-14.18,2.62-4.53,5.36-9.07,6.21-14.32a86,86,0,0,0,.92-11.44c.15-5.63-.07-11.28.07-16.91.12-5.1.51-10.2.78-15.3h.43c.29,3.17.71,6.33.85,9.51.25,5.35.24,10.71.51,16.05.11,2.18.71,4.33,1,6.5a6,6,0,0,1-.11,2.49c-1.6,5.06-.82,9.92,1.37,14.56,1.84,3.89,4,7.64,6,11.45a5,5,0,0,0,.46.57c1.4-4.48,3-8.74,4-13.14.55-2.62,0-5.48-.09-8.23-.07-2.07-.31-4.15-.3-6.22a3.8,3.8,0,0,0-1.46-3.12c-6.78-5.78-7.67-13.89-2.41-21.11,2.87-3.94,5.71-7.91,8.39-12a30.14,30.14,0,0,0,4.82-17c0-13.35.3-26.71.47-40.06,0-1.47,0-2.93,0-4.47h2.16c0,.72,0,1.43,0,2.14.05,9,.16,17.91.14,26.87,0,3.75-.43,7.51-.38,11.26A49.18,49.18,0,0,0,145,88.21c1.68,2.53,3.58,4.91,5.27,7.43,2.55,3.82,3.67,8,2.32,12.52a15.24,15.24,0,0,1-4.81,7.18,5.15,5.15,0,0,0-2,4c-.13,4-.61,8.06-.55,12.09,0,2.29.84,4.56,1.29,6.84l.46,0,.54-1.84c2-6.82,6-12.35,10.77-17.49,5.18-5.62,11.57-9.54,18.23-13.06a3.24,3.24,0,0,0,2.08-3.47c-.17-3.26,0-6.54,0-9.89l1.38-.18v11.54c2.69-1.93,5.67-3,6.38-6.6a89.89,89.89,0,0,0,1.4-14.78q.47-17.38.93-34.76c0-1.11.16-2.23.26-3.56a4.91,4.91,0,0,1,1.65,3.68c.09,6.08.13,12.15.25,18.23.11,5.43.19,10.87.5,16.3a38.3,38.3,0,0,0,1.29,6.07c.3,1.32.62,2.64,1,4l1.79.13c.07,2.55.23,5.09.17,7.63a2,2,0,0,0,1.18,2.07q5.57,3.17,11.12,6.39c6.95,4,13.25,8.81,18,15.39.77,1.06,1.48,2.17,2.41,3.55-.2-2.37-.39-4.43-.55-6.5a17.85,17.85,0,0,1-.1-3.23,3.26,3.26,0,0,0-1.46-3.2c-5.88-4.19-7.86-13.58-2.88-20.35q4.19-5.7,8.19-11.53a31.78,31.78,0,0,0,5.54-18.63c-.05-12.07.27-24.14.42-36.22,0-2.59,0-5.18,0-7.85h2.24c0,1.83,0,3.62,0,5.4-.1,10.79-.16,21.58-.33,32.37a50.15,50.15,0,0,0,8.32,28.67c1.67,2.58,3.58,5,5.34,7.53a15.78,15.78,0,0,1,3.21,10.08c-.25,4.17-2.33,7.43-5.32,10.13a5.33,5.33,0,0,0-2.07,4.08c-.1,4-.46,7.9-.6,11.85a12.59,12.59,0,0,0,.48,3.54c1.63,6.3,3.33,12.58,5,18.86.09.34.19.67.36,1.26.7-1.26,1.37-2.3,1.87-3.41,3.48-7.76,6.91-15.54,10.38-23.3a6.2,6.2,0,0,0,.36-4.55c-1.18-3.69-.41-7.36,0-11,.28-2.5.44-5,.48-7.53.07-5.2,0-10.4,0-15.6V87.11h2.64c0,.41,0,.83,0,1.25,0,7.32,0,14.64.12,22,.08,3.67.63,7.32.85,11,.14,2.27.05,4.55.07,6.83a15.48,15.48,0,0,0,1.43,6,134.68,134.68,0,0,0,9.8,18.11c2,3.15,3.95,6.3,4.82,10,.1.42.18.84.31,1.43.16-.21.28-.31.31-.42,1.33-5.39,2.78-10.75,3.92-16.18a17.61,17.61,0,0,0-.09-5.82,9.83,9.83,0,0,0-1.44-3.09c-.3-.56-.79-1-1.12-1.55-1.52-2.45-1.4-4.67.52-6.82,1.33-1.49,2.85-2.8,4.24-4.24a9.93,9.93,0,0,0,2.89-7.38c-.11-5.4-.16-10.79-.21-16.19,0-3.43,0-6.87,0-10.4l2.08-.14c.1,1.92.26,3.74.27,5.56,0,6.63,0,13.27,0,19.9a13.31,13.31,0,0,0,4.26,10c.87.83,1.72,1.67,2.53,2.56,2.63,2.92,2.66,5.47,0,8.36a2.88,2.88,0,0,0-.85,2.52c.52,5.09.59,10.24,1.45,15.27,1,5.73,2.52,11.38,4,17,2.13,8.11,4.43,16.17,6.66,24.26.09.34.21.66.32,1,1.72-2.8,3.43-5.55,5.08-8.33a11.35,11.35,0,0,0,.6-1.8,41.88,41.88,0,0,0,1.55-4,29.94,29.94,0,0,0,.49-9.41c-.18-3.26,0-6.54,0-9.89h2.09c0,1.55,0,3.11,0,4.68-.19,7.78.35,15.44,3.8,22.59a43.89,43.89,0,0,0,3.17,5.35c1.64,2.44,1.92,6.24.12,8.57-2.26,2.92-2.78,6.2-2.75,9.7,0,4.48.17,9,.09,13.42,0,2.63.79,5,1.43,7.5,1.15,4.4,2.41,8.78,3.57,13.18a7.64,7.64,0,0,1,.3,2.59,3,3,0,0,1-.88,1.73c-1.08,1-1.34,2-.54,3.26a20.71,20.71,0,0,0,2.08,2.93,6.46,6.46,0,0,1,1.52,4.42c0,1.14.16,2.28.23,3.14a12.89,12.89,0,0,1,3.25.35,13.29,13.29,0,0,1,2.63,1.81c3-3.33,3.93-3.36,6.58.45l4.93-3.55,2.45,4.67a18.81,18.81,0,0,0,2.49-8.26c.19-4.31.06-8.63.18-12.94.05-1.91.37-3.81.58-5.71a6.56,6.56,0,0,1,.32-1,28.78,28.78,0,0,1,.91,9.05c0,3.39-.14,6.79,0,10.18a16.35,16.35,0,0,0,2.33,7.69c1.21-1,2.27-2.37,3.64-2.81,1.85-.6,2.64,1.33,3.71,2.71a43.39,43.39,0,0,0,3.64-3.47,6.45,6.45,0,0,0,.07-7.32,5.52,5.52,0,0,0-2.34-1.44c-.92-.35-2-.34-2.89-.67a2.72,2.72,0,0,1-1.9-2.89,21.51,21.51,0,0,1,.66-3.76c.08-.3.65-.63,1-.67,1.86-.23,3.73-.36,5.75-.55l-.42-5.88h-7.1l0-.22c.3-.16.59-.33.89-.48,6-3,8.32-7.81,7-14.46q-.25-1.29-.51-2.59a9.62,9.62,0,0,1,.45-5.63c2.1-5.28,3.94-10.66,4.33-16.38.19-2.87.11-5.75.15-8.63,0-.42,0-.84,0-1.27l.35-.07c.12.48.28,1,.37,1.45,1,6,2,12,3.15,17.94.59,3.13,1.68,6.18,2.07,9.33a32.29,32.29,0,0,1-.21,7.87,7.25,7.25,0,0,0,1.08,4.84l1-.25c.19-4.19.42-8.29.53-12.39a38.06,38.06,0,0,0-.25-5.73,10.92,10.92,0,0,0-1.14-3.75,5,5,0,0,1-.44-3.55c.12-.63.22-1.26.34-1.89.29-1.56.46-2.91-1.24-4.05s-1.66-3-1-4.8c1.64-4.23,1.84-8.65,1.84-13.1a24.36,24.36,0,0,0-1.7-9.84c-2-4.7-1.67-9.21.38-14,7.15-16.73,14-33.6,21-50.41.75-1.81,1.42-3.65,2.21-5.44a19.34,19.34,0,0,0,1.71-8c0-6.4.12-12.79.22-19.19q.2-13.25.44-26.5c0-.49.09-1,.14-1.47h.36A12.07,12.07,0,0,1,413,52c.19,8,.37,16.06.57,24.1.14,5.79.27,11.59.48,17.38.25,6.79,2.09,13.19,4.53,19.5,6.43,16.6,13,33.15,20.36,49.37,2.16,4.76,1.73,9.47.16,14.25-.47,1.44-.87,2.9-1.23,4.38a8.62,8.62,0,0,0,2.32,8.5c.55.58,1,1.22,1.62,1.9.81-.67,1.42-1.16,2-1.67,1.58-1.34,1.58-1.34,3.22,0,.67.56,1.35,1.1,2,1.65,2.72-3.46,4.2-3.47,7.06-.11,1.06-1,2-2.37,3.69-2.31s2.58,1.28,3.6,2.49c.94-1.22,1.66-3,3.47-2.61,1.4.32,2.64,1.34,4,2.08l.37-.53c1.39-1.91,2.91-2.21,4.66-.69a2.18,2.18,0,0,0,2.58.4,19.29,19.29,0,0,1,2.4-.74,1.9,1.9,0,0,1,2.3.81,1.56,1.56,0,0,0,1.43.5H490c.9-2.55,1.92-5,2.59-7.5a24.9,24.9,0,0,0,.35-4.64c.18-2.49.36-5,.55-7.48h.35l4.92,30.6a2.79,2.79,0,0,0,.49-.4c5.51-7.63,9.77-15.82,11.51-25.18a48.83,48.83,0,0,0,.36-15.51,52.52,52.52,0,0,1,.79-16.3c.21,2.26.55,4.52.61,6.78q.31,11.38.44,22.77A26.53,26.53,0,0,0,516.63,187c2,3.47,4.13,6.84,6.19,10.26.65,1.09,1.24,2.21,2,3.57a6.28,6.28,0,0,0,.07-1,26.06,26.06,0,0,1,.83-9.85c1.31-4.94,2.5-9.91,3.75-14.87.06-.22.15-.44.33-1,.86,5.27,1.7,10.21,2.46,15.17.55,3.59,1.2,7.19,1.43,10.81.25,3.86,0,7.75.07,11.62s.67,7.72,2.91,11.08c.58.88.16,1.62-.27,2.33a14.8,14.8,0,0,0-2.34,6.22c-.14,1.43-.13,2.87-.23,4.31-.17,2.66-.37,5.33-.56,8a1.37,1.37,0,0,0,0,.59q1.32,3.13,2.67,6.25a4.29,4.29,0,0,0,3,2.61c4.57,1.28,6.8,4.74,7.91,9.11.15.58.23,1.17.36,1.89H536.16c0,2.79,0,5.46,0,8.13,0,.22.63.61,1,.62,2.84.05,5.68,0,8.52,0h1.38c0,.3.1.52.11.74.14,2.34.22,4.69.41,7,.29,3.46-1.24,5.41-4.69,5.8-.71.08-1.43.15-2.15.18-3.46.12-5.6,2.07-5.83,5.55-.15,2.19,0,4.39-.06,6.59,0,3.16-.07,6.32-.15,9.47-.09,3.7,2.22,5.42,6,4.18a30.49,30.49,0,0,0,4.55-2.37l1-.53c.23.43.44.84.68,1.23a36.5,36.5,0,0,0,2.36,3.74,7.65,7.65,0,0,0,7.76,3,1.52,1.52,0,0,1,1.92,1,29,29,0,0,0,2.54,4.19,5.7,5.7,0,0,0,5.53,2.19c.73-.07,1.83-.36,2.12,0a6.28,6.28,0,0,1,1.63,3.2,62,62,0,0,1-.16,7.29,14.24,14.24,0,0,1-.32,2.13,4.2,4.2,0,0,1-4.19,3.53q-13,.11-25.91.2c-7.08,0-14.16,0-21.24,0l-48.23.2h-6.2c0-1,0-2,0-3,0-7.28,0-14.55,0-21.83a4.54,4.54,0,0,0-.33-1.75,18.39,18.39,0,0,0-6.32-7.68,1.54,1.54,0,0,0-2.31.21c-1.76,1.9-3.65,3.69-5.37,5.63a10.78,10.78,0,0,0-2.53,7.09c-.12,5.11-.1,10.23-.13,15.34,0,1.88,0,3.75,0,5.73h-5c.14-1.77.27-3.54.43-5.3a77.05,77.05,0,0,0-.64-19.83,11.54,11.54,0,0,0-7.08-8.92,1.78,1.78,0,0,0-2.48.53,28.57,28.57,0,0,1-3.05,3.21,12.25,12.25,0,0,0-3.9,9.46q0,8.93,0,17.86c0,.95,0,1.9,0,2.91h-4.86v-1.43c0-7.4,0-14.8,0-22.2a5.84,5.84,0,0,0-.51-2.42,22.57,22.57,0,0,0-6.16-7.72,1.69,1.69,0,0,0-2.68.09c-1.42,1.46-3,2.78-4.44,4.19a11.72,11.72,0,0,0-3.64,8.48c-.1,5-.08,9.9-.11,14.86,0,2,0,4.06,0,6.18h-28.9a4.53,4.53,0,0,1-.1-.66c-.06-8.6-.15-17.19-.14-25.79,0-2.31.23-4.63.44-6.94a9.74,9.74,0,0,0-2.79-7.88l-4.05-4.3c-1.79,2.81-3.7,5.43-5.16,8.27a10.8,10.8,0,0,0-.67,4.68c-.08,10.35-.08,20.71-.11,31.06,0,.48,0,1,0,1.67-1.68-.35-3.33.56-4.89-.52-.11-.08-.37.06-.55.09a25.34,25.34,0,0,1-3.76.56c-8.2,0-16.4,0-24.6,0-14.84,0-29.68,0-44.52,0a12.44,12.44,0,0,1-2.6-.6,4.26,4.26,0,0,0-.94-.13c-4.8,0-9.6,0-14.4.06-1.48,0-2.95.49-4.43.66-.46.06-1.17.36-1.34-.54,0-.08-.35-.15-.53-.15-1.36,0-2.72,0-4.08,0a1,1,0,0,0-.62.27,5,5,0,0,1-3.84,1.4c-6.08,0-12.16,0-18.24,0l-52,.08c-1.17,0-2.34,0-3.08-1.15a1.12,1.12,0,0,0-.83-.32C171.72,341,166.8,341,161.79,341Zm42.69-.78c0-.58-.07-1-.1-1.45-.29-3.77-.71-7.54-.84-11.32-.15-4.39-.14-8.8,0-13.19a14.36,14.36,0,0,0-2.55-8.55,3,3,0,0,1-.41-1.85c.35-3.07-.45-4.4-3.43-5.18-2-.53-4.11-1-6.18-1.33a6.27,6.27,0,0,0-2.95,0c-2.58.88-5.08,2-7.63,3a1.88,1.88,0,0,0-1.26,2.18c.08.82.2,1.64.31,2.53l-1.47-.18a38.71,38.71,0,0,0-1.78,5.53,44.58,44.58,0,0,0-.48,7c-.06,5.63,0,11.27,0,16.9,0,2-.35,3.92-.54,5.92Zm10.69,0h21.41c0-3.29,0-6.52,0-9.75A80,80,0,0,0,233.65,308a4.41,4.41,0,0,0-3.51-3.53c-.46-.11-.92-.26-1.39-.36-6.13-1.33-11.3,1.8-12.83,7.9a27.15,27.15,0,0,0-.65,5.32c-.12,2.67-.09,5.35-.1,8C215.16,330.25,215.16,335.16,215.16,340.17Zm-50.66,0a6.93,6.93,0,0,0,.05-.7q-.33-8.26-.67-16.52a57.62,57.62,0,0,0-2.8-15.71,2.77,2.77,0,0,0-1.8-1.85,26.26,26.26,0,0,1-4.13-2c-1.53-1-2.29-1.08-3.54.29a5,5,0,0,1-3.73,1.84,2,2,0,0,0-1.81,1.25,31.11,31.11,0,0,0-3.28,14.07c0,6.31.13,12.63.21,18.94a1.64,1.64,0,0,0,.12.42Zm16.43-102.65q0,6.53,0,13.07c0,1.12-.06,2.24,0,3.36.06,1.91.81,2.89,2.7,3a76.18,76.18,0,0,0,9.33.13c3-.19,4.08-1.3,4.5-3.88a20.37,20.37,0,0,0,.27-3.22q0-13.92,0-27.84a6.21,6.21,0,0,0-.53-2.53,20.76,20.76,0,0,0-5.53-7,2.92,2.92,0,0,0-3.64-.33,18.46,18.46,0,0,0-5.15,4.6,8.61,8.61,0,0,0-1.94,5.76C181,227.62,180.94,232.58,180.94,237.54Zm28.8,19.76v-.1c.56,0,1.11.11,1.67.11s1.2-.06,1.79-.09c1.9-.1,2.88-.8,3-2.72.22-3.54.22-7.1.27-10.66.08-6.71.09-13.43.22-20.14a11,11,0,0,0-1.81-6.57c-1.05-1.55-2.21-3-3.37-4.51a1.67,1.67,0,0,0-2.78.15c-.48.73-.91,1.5-1.44,2.2a18.14,18.14,0,0,0-3.55,11.55q.13,12.23.21,24.46c0,1.12,0,2.24,0,3.36.06,1.68.68,2.4,2.34,2.64C207.42,257.15,208.58,257.2,209.74,257.3ZM174.57,257c0-2.9,0-5.72,0-8.55,0-8.63-.08-17.26-.16-25.89,0-2.22-.08-4.47-1.58-6.37-1.23-1.56-2.36-3.21-3.58-4.88-.47.37-.91.7-1.33,1a13.22,13.22,0,0,0-5.31,11.2c.22,6.63.16,13.27.18,19.9,0,3.32-.13,6.63-.1,9.95,0,2.79,1.38,4,4.16,3.82,1.35-.08,2.71-.18,4.06-.23C172,256.95,173.19,257,174.57,257Zm52.89-17.57c0-3.8,0-7.6,0-11.4a42.22,42.22,0,0,0-.38-7,75.46,75.46,0,0,0-2.32-8.25,1.31,1.31,0,0,0-.91-.63c-1.12-.21-1.84.18-1.86,1.45a8.69,8.69,0,0,1-.15,1.06c-.59,4.14-1.54,8.27-1.69,12.42-.3,8.66-.19,17.34-.22,26,0,3,.91,3.93,3.88,4.11,2.3.14,3.33-.71,3.61-3a7.86,7.86,0,0,0,0-1Q227.46,246.31,227.46,239.41Zm129.4,84.45c-.05-.67-.09-1.27-.15-1.86-.39-4.42-1.08-8.85-.29-13.27.83-4.62-1.35-7.85-4.48-10.73-1-.88-2.44-1-3-.29a38.7,38.7,0,0,0-3.51,4.08,10.22,10.22,0,0,0-1.88,4.18c-.42,3.4-.42,6.85-.61,10.28a1.26,1.26,0,0,0,.77,1.29c1.65,1,3.24,2.17,4.83,3.3,1.14.81,2.19,1.74,3.38,2.47A5.64,5.64,0,0,0,356.86,323.86ZM158.54,256.64c0-.93,0-1.73,0-2.52,0-3.63-.22-7.27-.1-10.9.23-7.46.68-14.93-.33-22.36-.35-2.55-1-5.06-1.63-7.58-.18-.78-1.63-1.19-1.93-.55a25.44,25.44,0,0,0-2.37,5.92,44.33,44.33,0,0,0-.27,7.65q0,14.51,0,29v1.33Zm31.11,27.65h3.83c2.69,0,3.5-.8,3.8-3.5.13-1.21.18-2.49,1.39-3.29a.82.82,0,0,0,.21-.72c-1.39-4.95-4.58-9.07-10.6-8.81-5.5.24-10.23,7-7.14,11.95.76,1.21,1.66,2.32,2.5,3.48a2.3,2.3,0,0,0,2.18.92C187.09,284.24,188.37,284.29,189.65,284.29Zm76.25-36.73c.85.13,1.63.24,2.4.37,3.34.55,4,.08,4-3.23,0-8.92-.05-17.84-.08-26.75a5.54,5.54,0,0,0-2.2-4.68,1.86,1.86,0,0,0-1.16-.44c-1.16.14-2.76,2-2.78,3.24-.08,3.52-.18,7-.19,10.55,0,6.52,0,13,0,19.56ZM113.73,230.23h-.14c0-1.84,0-3.67,0-5.51,0-3.19,0-6.39-.1-9.58a2.31,2.31,0,0,0-2.39-2.35c-2.1-.2-3.39,1.06-3.39,3.48,0,10.19,0,20.38,0,30.57,0,.08,0,.19,0,.24.21.27.4.7.66.76,4.08.91,5.29-.15,5.38-4.07,0-.12,0-.24,0-.36Q113.73,236.82,113.73,230.23Zm93.57,46.65c0,1.8,0,3.6,0,5.39,0,.32.09.84.3.93a8.69,8.69,0,0,0,2.86,1c2.27.15,4.55.07,6.83,0a2.07,2.07,0,0,0,1.25-.5c3.73-3.45,3.53-10.79-.44-13.93-2-1.6-4.24-2.47-6.78-.88a19,19,0,0,1-3.14,1.45,1.28,1.28,0,0,0-.93,1.43C207.34,273.52,207.3,275.2,207.3,276.88Zm-41.58,7.41c1,0,1.92-.07,2.87,0a2.38,2.38,0,0,0,2.31-1.15,10.32,10.32,0,0,0-.08-12.15,6.8,6.8,0,0,0-5.77-2.9c-2.89.17-6,3.56-6.49,6.45s.42,5.57,1.41,8.24a2.08,2.08,0,0,0,2.16,1.5C163.32,284.3,164.52,284.29,165.72,284.29Zm12.6-79.92h22.95c-1.46-5.78-5.92-10.86-12-10.42C182.93,194.43,178.49,198.66,178.32,204.37Zm96.46,27.51h0q0,7.32,0,14.63c0,.38,0,1.07.18,1.1a8.2,8.2,0,0,0,3,.32,2.22,2.22,0,0,0,1.34-1.57,35.66,35.66,0,0,0,.17-4.89c0-7.67-.11-15.35-.06-23A12.28,12.28,0,0,0,278,213a.88.88,0,0,0-1.59-.15,8.84,8.84,0,0,0-1.63,4.67C274.82,222.28,274.78,227.08,274.78,231.88Zm-154.06-19a14.59,14.59,0,0,0-1.72-.29c-.27,0-.74.1-.81.28-.73,1.88-1.94,3.77-2,5.69-.21,8.79-.13,17.58-.09,26.38,0,2.34,1.17,3.27,3.51,3.19.81,0,1.11-.27,1.11-1.12,0-2.44.08-4.87.07-7.31,0-6.88-.06-13.75-.09-20.63C120.71,217,120.72,215,120.72,212.87Zm139.93,35c1.88-2.2,2.23-2.79,2.24-4.53.06-7.8.19-15.6.05-23.39,0-2.45-.85-4.89-1.37-7.69-.92.44-1.83.59-2,1a20.75,20.75,0,0,0-1.32,5.65c-.15,7.6,0,15.2-.09,22.8A7.9,7.9,0,0,0,260.65,247.86Zm-158.17-.11a6.15,6.15,0,0,0,2.21-5c-.07-6.91.08-13.82.13-20.73,0-3.08-.13-6.14-1.53-9a1.21,1.21,0,0,0-.78-.65c-.32,0-.87.25-.94.5a19.51,19.51,0,0,0-1.21,5c-.12,8,0,15.91-.06,23.86C100.29,244,100.52,246.17,102.47,247.75Zm193-7.53c.87,4,1.64,8,2.65,11.92a2.81,2.81,0,0,0,2,1.62c.63.08,1.43-.74,2.07-1.27a2,2,0,0,0,.41-1.09c.47-2.18,1-4.34,1.33-6.55.86-6.69,1.2-6-2.38-11a1.45,1.45,0,0,0-2.59,0,28,28,0,0,0-2.07,2.93A31.29,31.29,0,0,0,295.51,240.21ZM79.7,233.14c-.92.61-1.79,1.11-2.56,1.73-2.51,2-3,4-2.13,7.11.6,2.25.85,4.6,1.24,6.91a11,11,0,0,0,.5,2.92,3.66,3.66,0,0,0,2,1.93c.6.14,1.49-.78,2.17-1.33.26-.21.32-.71.41-1.09.45-2,.87-4,1.34-5.94,1-4.09,1.07-8-2.24-11.24A8.33,8.33,0,0,1,79.7,233.14Zm347.9-38.28v-.09c.91,0,1.83.14,2.74.13,2.16,0,3.07-1.11,2.68-3.23-.25-1.37-.61-2.72-1-4.06s-.4-3.2-1.29-3.85-2.75-.26-4.17-.28c-2.35,0-2.36,0-2.95,2.23-.52,2-1.13,4-1.51,6s.42,3,2.61,3.12C425.69,194.89,426.65,194.86,427.6,194.86ZM172.18,190.3h15.24a9.07,9.07,0,0,0-3.3-7.09,6.28,6.28,0,0,0-7.35-.59C174.08,184.42,173.08,187.26,172.18,190.3Zm34.2,0c-.09-.78-.15-1.49-.26-2.19-.71-4.45-4.82-7.25-8.88-6-2.53.76-4,2.72-5,5-.47,1-.76,2.1-1.16,3.24Zm-25.14-12.26h16.43c-.78-4.61-3.85-7.3-8.25-7.29S182,173.38,181.24,178.06Zm213.13,5.47-1,10.85c2.46.14,4.72.34,7,.36,1.78,0,1.85-.17,2.32-1.88.86-3.12-.37-6-1.09-8.9,0-.19-.47-.41-.72-.41C398.79,183.51,396.68,183.52,394.37,183.52Zm14.79-.12c-.26,3.36-.5,6.58-.77,9.79a1.12,1.12,0,0,0,1.1,1.39,40.12,40.12,0,0,0,4.38.47c2.54,0,3.09-.49,3.62-3a3.2,3.2,0,0,0,.09-1.19c-.42-2.31-.86-4.62-1.35-6.92a1,1,0,0,0-.76-.53C413.43,183.38,411.39,183.41,409.16,183.41ZM502.24,301c-.35,3.1-.68,6.07-1,9-.1.86.17,1.39,1.1,1.47,1.63.13,3.25.38,4.88.41,1.94,0,2.09-.16,2.64-2A2.35,2.35,0,0,0,510,309c-.25-2.68-.53-5.36-.8-8.06ZM526,263.63h-8.39c0,3.1,0,6.12,0,9.13a1.42,1.42,0,0,0,.95,1c1.65.23,3.32.33,5,.41a1.09,1.09,0,0,0,1.21-1C525.24,270,525.63,266.88,526,263.63ZM205.71,204.35h10.41a17.62,17.62,0,0,0-.44-3,28.68,28.68,0,0,0-2.18-5.61,3,3,0,0,0-5.07-.63C205.95,197.7,205.66,201,205.71,204.35Zm307.34,29.41h-7.79v10.42c2.1,0,4.09,0,6.09,0,1,0,1.69-.36,1.69-1.46C513.07,239.76,513.06,236.79,513.06,233.76Zm-39.94-8.56c.93-.33,1.81-.59,2.65-.94a1.91,1.91,0,0,0,1.34-2c-.05-5.48,0-11,0-16.43v-1.22c-1,0-1.77,0-2.56,0a1.06,1.06,0,0,0-.78.53,33.23,33.23,0,0,0-1.22,9.46c0,1.58.13,3.17.22,4.75C472.86,221.25,473,223.11,473.12,225.2ZM173.53,203.63c-.76-2.39-1.32-4.67-2.23-6.81a3.44,3.44,0,0,0-5.85-1.09c-2.78,2.71-2.48,6.14-2.26,9.6Zm352.74,30.11h-8.59c0,3.08,0,6.1,0,9.12a1.51,1.51,0,0,0,1,1.07c1.49.21,3,.22,4.51.32a1,1,0,0,0,1.15-.92C525,240.19,525.62,237,526.27,233.75Zm-80,14.35c2.27,0,4.38,0,6.5,0a1.31,1.31,0,0,0,1-.65c.74-3.18.39-6.4.27-9.61h-7.78ZM276.06,337.62a13.39,13.39,0,0,0-.31-3.57c-1.4-3.64-7.16-5-10.16-2.44-1.81,1.54-2.58,3.65-3.13,5.95.38,0,.65.07.93.07ZM505.58,274c2.23,0,4.37,0,6.51,0a1,1,0,0,0,.72-.72c.18-3.16.29-6.32.41-9.51h-7.64ZM522,301.4h-7.88v10.45c2,.08,3.84.17,5.7.23.74,0,1.06-.42,1.13-1.1C521.34,307.83,521.69,304.66,522,301.4ZM228.73,268.25c-3.62,3.66-4.18,10.84-1.71,15.44.53,1,2.79.93,3.16-.14a25.25,25.25,0,0,0,1.5-5.59A12.55,12.55,0,0,0,228.73,268.25ZM446.66,278c2,0,3.94,0,5.85,0,.42,0,1.18-.37,1.2-.61.22-3.16.33-6.32.47-9.54h-7.52Zm48.18-37c.05.65.1,1.85.29,3a1.38,1.38,0,0,0,.8.93,33,33,0,0,0,3.85.81c2.27.34,3.16-.37,3.15-2.67,0-1.75-.23-3.5-.4-5.24-.2-2.1-.21-2.1-2.34-2.28C495.77,235.18,494.81,236.06,494.84,241Zm-344.35,27.2a7.21,7.21,0,0,1-.45.82c-3.22,4.31-3.14,10.21-.93,14.73.49,1,1.41.5,2.14.52a1.4,1.4,0,0,0,1-.74,15.87,15.87,0,0,0,1.29-8.51A11.74,11.74,0,0,0,150.49,268.18ZM254.1,247.93c3-5.91,3-30.76.75-34.14C253.59,225.17,254.11,236.55,254.1,247.93ZM124.7,248V213.08h-1.54V248ZM113,337.76c0-2,0-4,0-5.87,0-.78-.32-1-1-1.22a7.32,7.32,0,0,0-9.11,7.09Zm162.95-27c-.88-4.09-3.23-6-7-5.79a6.6,6.6,0,0,0-5.85,5.79Zm-179.3-64a84.83,84.83,0,0,0,.26-32.44C95.47,225.16,96,236,96.64,246.8Zm-21.36,29c.67-3.46,1.34-6.76,1.93-10.08.24-1.34-1.68-3.8-3-4a.91.91,0,0,0-.34,0,3.33,3.33,0,0,0-2.39,3.16c.29,2.57.76,5.12,1,7.69C72.64,274.23,73.69,275,75.28,275.76Zm394.3-70.39c-.47.72-1.27,1.38-1.29,2.05q-.16,7.23,0,14.47c0,.57.86,1.2,1.46,1.62.14.1.9-.44,1.19-.82a2.52,2.52,0,0,0,.48-1.42c0-4.42,0-8.84,0-13.26C471.42,206.84,470.82,206.11,469.58,205.37Zm-.69,30.27c-.07.29-.14.51-.18.75a80.67,80.67,0,0,0-.57,14.21,3.74,3.74,0,0,0,1.74,3.43,2.08,2.08,0,0,0,1.47-2.33c-.06-4.92,0-9.83,0-14.75,0-.42,0-.84,0-1.31ZM324.33,300.83c0-4.08,0-7.86,0-11.64,0-.26-.3-.71-.51-.75-1.32-.21-2.66-.32-3.93-.46,0,3.49,0,6.9,0,10.31a1.28,1.28,0,0,0,.65.89C321.7,299.75,322.91,300.22,324.33,300.83Zm7.33-.62a60.89,60.89,0,0,0,.66-6.87c0-3.26-1.83-4.89-5-5v11.56ZM47.56,288.32v12.55c1.33-.47,2.57-.85,3.76-1.36a1.41,1.41,0,0,0,.72-1q.06-4.42,0-8.84a1.2,1.2,0,0,0-.7-.91C50.1,288.52,48.87,288.46,47.56,288.32Zm443-37.1-.5-.09v-1.28c0-5.48,0-11,0-16.43,0-.32-.26-.63-.41-.94-.17.28-.44.54-.48.84-.36,2.84-.81,5.68-1,8.54s0,5.75,0,8.62a4,4,0,0,0,1.64,3.5c.88-.61,1.8-1,1.8-2.41,0-4.75.09-9.51.16-14.26a1.09,1.09,0,0,0,0-.47c-.08-.15-.28-.37-.37-.35a.72.72,0,0,0-.47.38,2.82,2.82,0,0,0,0,.83c0,4.16,0,8.32,0,12.47A4.52,4.52,0,0,1,490.51,251.23Zm-79.62,6.72a1.85,1.85,0,0,0,1.37-2c0-5.19,0-10.38,0-15.58a4,4,0,0,0-.13-.71h-2.2c0,.2-.08.35-.1.5-.9,4.83-.7,9.7-.68,14.57A3.52,3.52,0,0,0,410.9,257.95ZM305.59,261.7c-3.22,2.34-3.22,2.34-2.79,6.18,0,.2,0,.4,0,.6.27,2.36.59,4.69,3,6C309.09,271.14,309,265.32,305.59,261.7ZM83.32,300c2.12-1.9,2.24-4.58,2.77-7s-1.34-4.18-2.73-6.05c-.79.66-1.51,1.35-2.32,1.92a1.57,1.57,0,0,0-.68,1.75c.39,2.36.81,4.72,1.15,7.08A3.09,3.09,0,0,0,83.32,300Zm375-27.92c.17,1.69.24,3.16.5,4.6a1.57,1.57,0,0,0,1,1,45,45,0,0,0,5,.28,1.18,1.18,0,0,0,.88-.73c.47-3.19.86-6.4,1.29-9.66h-3.25c1.21,2.16,1.15,2.86-.3,4.28C461.7,273.59,461,273.64,458.27,272.11ZM411,227.59A2.93,2.93,0,0,0,412.4,225c0-4.31-.08-8.62,0-12.93a2.63,2.63,0,0,0-1.46-2.46c-1.4.55-1.62,1.65-1.61,2.93,0,4.07,0,8.14,0,12.21C409.24,226.1,409.46,227.15,411,227.59ZM177.34,178.08c-.41-1.78-.68-3.45-1.19-5.05a2.94,2.94,0,0,0-3-2,3.51,3.51,0,0,0-3.53,1.77,10.18,10.18,0,0,0-.82,5.26ZM305.57,300a8.1,8.1,0,0,0,1.56-2.11c1-3.39,1.27-6.8-.31-10.12-.33-.7-1.83-1.24-2.19-.67a11.66,11.66,0,0,0-1.91,4.22c-.21,1.42.35,3,.64,4.46S303.84,298.92,305.57,300Zm-8.91-38.18c-.67.76-1.41,1.49-2,2.32a2.87,2.87,0,0,0-.66,1.72c.25,2.48.57,5,1.06,7.41.12.58,1,1,1.54,1.51l1.41-1.64c0-.05,0-.15.05-.23.31-1.59.65-3.18.94-4.78.68-3.79.67-3.79-2-6.15A1.59,1.59,0,0,0,296.66,261.78Zm-213.78-.07c-.4.45-.74.9-1.15,1.27a3.74,3.74,0,0,0-1,4c.62,2.38,1.15,4.79,1.77,7.17a1.27,1.27,0,0,0,.75.78c.61.16,1-.13,1.18-.82.35-1.59.71-3.19,1.18-4.75.93-3.1.83-5.82-2.41-7.57C83.15,261.8,83.07,261.78,82.88,261.71Zm213.92,25c-2.39.9-3.34,2.23-3,4.31.34,2.28.79,4.55,1.11,6.83A2,2,0,0,0,297,299.6c.42,0,1.1-.8,1.31-1.37a13.51,13.51,0,0,0,.36-6.85A8.91,8.91,0,0,0,296.8,286.72Zm-222.46.21c-.15.11-.28.16-.33.25a14.09,14.09,0,0,0-1.64,11.36,1.81,1.81,0,0,0,2,1.37,2,2,0,0,0,2.12-2.13,35.71,35.71,0,0,0-.11-6.52A6.62,6.62,0,0,0,74.34,286.93Zm-15.28,4.69H59a22.22,22.22,0,0,0-.3-2.49,1.16,1.16,0,0,0-.78-.7c-2.37-.44-3.74,1-3.43,3.39a21.35,21.35,0,0,1,0,3.67c0,.67-.24,1.34-.28,2-.09,1.6.68,2.34,2.42,2.4s2.42-.6,2.43-2.2C59.06,295.67,59.05,293.64,59.05,291.62Zm358.23-82.11c-1.6-.35-1.68-.3-2.07,1.15a34.36,34.36,0,0,0-.74,10.46c.09,2.26.24,4.51.38,7.07.92-.78,2.4-.41,2.41-1.86C417.31,220.74,417.28,215.16,417.28,209.51ZM113,311.18c0-1.74,0-3.37,0-5a1.28,1.28,0,0,0-.7-.91,6.26,6.26,0,0,0-8.27,5.9Zm371.94-56.82V236.14h-1.12V252.3h-2V236.06l-1.13.12V254Zm28.49,24c1.36-.9,2.69-1.44,2.67-3.31-.05-4.95,0-9.9.05-14.85a1.22,1.22,0,0,0-.15-.4l-.48-.39a18.71,18.71,0,0,1-1.1,1.69c-1.12,1.38-.85,3-.89,4.58a54.69,54.69,0,0,1-.33,7.63C512.9,275.06,513.3,276.59,513.42,278.38ZM474,236.25l-.39.1c0,.42,0,.84,0,1.25,0,4.87.09,9.74.1,14.62,0,.92.12,1.71,1.2,1.87s1.6-.54,1.71-1.72a35.65,35.65,0,0,0-1.46-13.57A19.64,19.64,0,0,0,474,236.25ZM218,190.67l-2.76-9c-1.81.83-3.23,1.89-3.62,3.75s-.49,3.65-.74,5.65ZM422.8,256.32V240.14l-1.12.08v17.88h4.24V257q0-7.79,0-15.58a2.36,2.36,0,0,0,0-.83.86.86,0,0,0-.55-.44c-.11,0-.37.25-.42.43a4,4,0,0,0,0,1q0,6.77,0,13.54c0,.42,0,.84-.06,1.28ZM264.33,318.49c3.23.21,6.4.39,9.57.62.93.07,1-.68,1.16-1.22a1.41,1.41,0,0,0-.44-1.12,31,31,0,0,0-2.67-2.2,3.22,3.22,0,0,0-3.27-.49c-1.06.43-2.11.92-3.13,1.45C263.85,316.39,263.86,316.41,264.33,318.49ZM160.24,204.23c-.68-3-1.34-5.8-1.94-8.59a1.18,1.18,0,0,0-1.35-1.11c-.87,0-1,.47-1.07,1.09-.07.43-.23.84-.33,1.27-.61,2.54-1.22,5.09-1.87,7.81Zm2-13.73c1.55,0,3,.05,4.4,0a1.61,1.61,0,0,0,1.07-.76c1.38-2.43,0-6.65-2.55-7.79-.82-.37-1.84-.06-1.93.62C162.86,185.14,162.55,187.74,162.21,190.5Zm62.46,13.36-1.5-9.5h-1.91l-2.83,10.88Zm190.48,36.48-.46.16c0,2.84,0,5.67,0,8.51,0,2.52,0,5,.09,7.55a2,2,0,0,0,1.09,1.42,1.22,1.22,0,0,0,1.56-1.09,8.15,8.15,0,0,0,.17-1.06,35.5,35.5,0,0,0-1-10.93C416.26,243.34,415.65,241.85,415.14,240.34Zm-136.41-44.9.31,0,5.84-22.24c-1.56,2-3,4-4.35,6.07a5.54,5.54,0,0,0-1,2.37c-.24,2.78-.3,5.57-.45,8.35C279,191.83,278.85,193.63,278.73,195.43ZM431,258.05c.5-.7,1.39-1.39,1.42-2.1.15-4.83.12-9.67.13-14.51a3.91,3.91,0,0,0-.2-.87l-.37,0c0,.41-.06.83-.06,1.24q0,6,0,12a3.09,3.09,0,0,1,0,.83c-.05.18-.3.44-.42.42a.81.81,0,0,1-.56-.42,3.1,3.1,0,0,1,0-1q0-8,0-16a9.46,9.46,0,0,0-.17-1.26h-.32c-.1.37-.21.74-.29,1.11-1.18,5.48-1.1,11-1,16.59A4.12,4.12,0,0,0,431,258.05ZM206.2,180.13l3.43-3.09a1,1,0,0,0,.24-1.54c-1.09-1.49-2.18-3-3.4-4.66l-3.74,4.65a.94.94,0,0,0,.08,1.51C204,178,205.08,179.08,206.2,180.13Zm57.21,147.15c1.44,0,2.87,0,4.31,0a1.29,1.29,0,0,0,.85-.62c.14-.25.18-.81,0-.94-1.49-1.19-3-2.38-4.56-3.44a1.94,1.94,0,0,0-2.52.37c-.92.88-1.86,1.75-2.72,2.68-.27.29-.57.93-.43,1.14a1.88,1.88,0,0,0,1.24.8C260.85,327.34,262.14,327.28,263.41,327.28ZM98,325.92c.68.61,1.12,1.33,1.57,1.34,2.79.11,5.59.08,8.38,0,.36,0,.82-.46,1-.82.11-.2-.12-.72-.34-1-.78-.91-1.6-1.78-2.43-2.64a2,2,0,0,0-2.7-.45C101.74,323.48,100,324.64,98,325.92Zm369.06-56.19,3.67,2.81a1.8,1.8,0,0,0,2.5,0c1-.88,2-1.82,3-2.82-1-1.14-1.83-2.18-2.75-3.16a1.61,1.61,0,0,0-2.43-.19C469.8,267.42,468.5,268.52,467.07,269.73Zm-58.89,4c1.25,1,2.4,1.82,3.52,2.7a1.85,1.85,0,0,0,2.6-.05c1-.86,1.89-1.79,2.88-2.74-1-1.1-1.8-2.12-2.7-3.07a1.6,1.6,0,0,0-2.44-.14ZM105.06,189.87q0,3.48,0,6.94a12.09,12.09,0,0,0,.05,1.79,1.65,1.65,0,0,0,1.71,1.51,2.26,2.26,0,0,0,2.33-2.24,11.25,11.25,0,0,0-1.5-6.89A2,2,0,0,0,105.06,189.87Zm7.93,98c0-.85,0-1.6,0-2.34a2.31,2.31,0,0,0-2.25-2.71c-3.14-.57-5.49,1.46-5.81,5.05ZM529.43,245.1l-1-9.28c-2.23-.23-2.19-.23-2.45,1.72-.19,1.46-.42,2.92-.75,4.35-.61,2.67-.64,2.66-3.39,2.88-.06,0-.11.07-.42.27C524.22,246.06,526.76,245.22,529.43,245.1ZM113.36,327.3c2.5,0,4.89,0,7.27,0a1.24,1.24,0,0,0,.85-.64,1,1,0,0,0-.19-.91c-.72-.86-1.48-1.67-2.26-2.47-1.52-1.54-2.45-1.67-4.31-.51-.53.33-1.19.84-1.31,1.37A15.94,15.94,0,0,0,113.36,327.3Zm142.75,3.44c-1.54,1.87-3,3.6-4.41,5.36a1,1,0,0,0,.87,1.47c2.57,0,5.15,0,8,0Zm53.69-78.85.48,0a12.29,12.29,0,0,0,.21-1.31c.26-4.9.53-9.79.74-14.69,0-.41-.2-1.1-.49-1.21a1.24,1.24,0,0,0-1.68.65,7.43,7.43,0,0,0-1,4.35,24.89,24.89,0,0,0,.64,3.87C309.43,246.31,310.18,249,309.79,251.89Zm-38.85-63.08c0,3.3,0,6.22,0,9.13,0,1.37.59,2.06,1.57,2.15a2.2,2.2,0,0,0,2.25-2,8.54,8.54,0,0,0,0-2.38A11.58,11.58,0,0,0,270.94,188.81Zm-6.64,99c3.05,0,6-.07,8.94,0,1.25,0,1.43-.62,1.38-1.51s-.07-1.81-1.4-1.76c-1.79.06-3.59,0-5.38,0-2.7,0-2.8.08-3.46,2.78C264.36,287.44,264.35,287.52,264.31,287.81Zm-4.84,13.38a1.86,1.86,0,0,0,2.1,1.38c1.83-.09,3.68-.07,5.51,0a1.57,1.57,0,0,0,1.85-1.34c-.93-.88-1.92-1.87-3-2.79a2.25,2.25,0,0,0-3.42-.08C261.48,299.26,260.49,300.25,259.47,301.2Zm-160.14,36a29,29,0,0,0-1.09-4.67c-.28-.68-1.3-1.12-2.07-1.49-.15-.07-.78.6-1,1-.83,1.35-1.6,2.74-2.37,4.13a1.08,1.08,0,0,0,1,1.68C95.51,337.73,97.27,337.47,99.32,337.21Zm21.14-1.08,6.43,2.39,1.49-2.26-5-5.56ZM288,337.58l-4.57-6.78-4.52,6.78ZM113.72,189.34c-.08,3.14-.22,6.24-.22,9.34,0,1.06,1.1,1.3,1.84,1.31a1.8,1.8,0,0,0,1.23-1.29c0-3.1-.18-6.2-.3-9.36ZM456.59,270c.92.72,1.76,1.39,2.61,2,1.46,1.11,2.09,1.11,3.46-.08a8.51,8.51,0,0,0,1.13-1.23,1.51,1.51,0,0,0,0-2.08c-.83-.95-1.72-1.85-2.61-2.81ZM274.46,293.7l-2.86-2.4a2.59,2.59,0,0,0-3.11-.32c-1.35.74-2.66,1.56-3.92,2.3.16,1.24.7,1.68,1.85,1.62,2.15-.1,4.31-.07,6.46,0A1.33,1.33,0,0,0,274.46,293.7ZM113,318.42c0-.77,0-1.37,0-2,0-1.92-1.33-3.08-3.15-2.42a60.38,60.38,0,0,0-5.88,2.89c.66.66,1.05,1.41,1.48,1.43C107.92,318.48,110.38,318.42,113,318.42Zm129.33-112c-.1-.24-.19-.5-.31-.75-.49-1-1-2-1.5-3-.64-1.18-3.37-1.5-4.18-.41s-1.68,2.59-2.68,4.16Zm251.53,53v18.1A3.77,3.77,0,0,0,496.3,274C496.6,269,495,264.25,493.85,259.44ZM397.68,274c.95.73,1.73,1.35,2.53,2,1.59,1.19,2,1.18,3.52-.14a10.07,10.07,0,0,0,.82-.87,1.74,1.74,0,0,0,0-2.57l-2.19-2.6Zm-288.2,27c-1.06-.89-2.07-1.79-3.14-2.61a2.33,2.33,0,0,0-3,0c-1.14.84-2.23,1.76-3.31,2.61.54,1.35.54,1.35,1.82,1.36,1.88,0,3.76,0,5.63,0A1.78,1.78,0,0,0,109.48,301ZM317.6,204.82c-2.33,3.87-1.79,11.34.26,13.73.53-3.46,1-6.83,1.54-10.2a1.5,1.5,0,0,0-.17-.9C318.71,206.56,318.15,205.7,317.6,204.82Zm-48.18,55.23c-1-.75-1.95-1.49-2.94-2.15-.67-.44-1.48-.64-2,.15a26.76,26.76,0,0,0-1.44,2.7h13c-.17-.55-.29-1-.45-1.45-.7-1.87-1.55-2.21-3.27-1.21C271.33,258.68,270.42,259.38,269.42,260.06ZM69.25,233.55c-2.4,4.89-1.23,9.59-.22,14.29C70.42,243.18,72.09,238.54,69.25,233.55Zm414.06,39.53c3.51-2.53,3.54-3.22,1.85-6.46-.11-.21-.21-.43-.33-.63a1.3,1.3,0,0,0-2.13-.24c-2.64,2.95-2.65,3.48-.08,6.54ZM277,287.72h8.86a5.75,5.75,0,0,0,.68-.09l-.5-4.26-.4,0-2.08,4.09-3.42-5.63c-.2.29-.32.44-.41.61ZM114.77,266.32c-4.65-3.68-5-3.39-9.18-.28,0,1.24.61,1.57,1.79,1.55a52.07,52.07,0,0,1,5.37.23C113.86,267.91,114.63,267.68,114.77,266.32Zm309.59,10.73c3.44-2.7,3.53-3.14,1.46-6.92a1.21,1.21,0,0,0-2.14-.24c-2.51,2.95-2.51,3.34,0,6.35ZM118.23,303l.22.28a7.77,7.77,0,0,0,1.22-1.13,1.09,1.09,0,0,0,0-1,35,35,0,0,0-2.42-2.65c-.89-.89-1.87-.73-3-.31s-1,1.29-1,2.16c0,.48,0,1,0,1.44-.07.73.25,1,1,1C115.61,302.82,116.92,302.9,118.23,303Zm-5.34-8.09c.66-3.72-1.06-4.27-3.13-4.5s-3.78,1.79-3.83,4.5ZM264.07,190c-2.37,3.66-2.35,7.4,0,9.77C266.91,198.26,266.8,192.1,264.07,190ZM165.76,178c-.7-2.22-1.34-4.35-2.07-6.45a1.4,1.4,0,0,0-.94-.66.93.93,0,0,0-.77.47c-.76,2.17-1.46,4.37-2.21,6.63ZM89.47,234.57l-.41-.2c-.59,1.13-1.54,2.22-1.68,3.4a22.28,22.28,0,0,0,.16,6,63.92,63.92,0,0,0,1.65,6.42l.27-.07Zm418.89,10,0,.36c2.61.88,5.36.31,8.12.73,0-.56,0-.95-.08-1.34-.29-2.54-.6-5.07-.89-7.61-.15-1.33-.25-1.41-1.76-1,0,.53,0,1.08,0,1.63-.1,2-.23,4-.3,6,0,1-.61,1.3-1.48,1.3Zm-383,66.31c-.75-2-1.39-3.79-2.17-5.56-.15-.33-.86-.51-1.33-.55-.23,0-.58.4-.74.7-.32.59-.55,1.23-.82,1.85l-1.53,3.55ZM489.29,202.18h-.46l-1,20.38h1.41Zm-51,29.49c1.54-.44,2.81-.74,4-1.18a1.28,1.28,0,0,0,.7-1c-.18-1.89-.44-3.77-.75-5.65,0-.21-.49-.48-.75-.48s-1,.17-1.06.4C439.67,226.31,439,228.86,438.25,231.67ZM282.3,247.73c.58-.73.9-27.55.5-33.58a3.05,3.05,0,0,0-.23-.72l-.27.07Zm2.55,63.2c-.75-1.93-1.46-3.83-2.24-5.69a.9.9,0,0,0-1.56-.21c-1,1.9-1.84,3.85-2.81,5.9Zm-10.6-44.7c-4.17-3.14-4.12-3.78-9.45-.06,0,1,.49,1.16,1.36,1.14q3.3-.08,6.6,0A1.26,1.26,0,0,0,274.26,266.23Zm-19.13,43.33c.37.36.71.92,1.18,1.08a23,23,0,0,0,3.25.72c.63.11,1.44-.91,1.14-1.51q-1.17-2.4-2.47-4.74c-.31-.57-1.48-.58-1.68,0C256.06,306.46,255.66,307.87,255.12,309.57Zm124.21-74c1.35-.38,2.49-.72,3.64-1,.77-.2,1.16-.58,1-1.43-.28-1.68-.49-3.38-.8-5.06a1,1,0,0,0-.74-.63c-.38,0-1,.3-1,.59C380.69,230.47,380.06,232.92,379.34,235.57ZM214.13,176.83c.21.28.38.73.69.87a21,21,0,0,0,2.69,1c.59.17,1.44-.57,1.29-1.17-.51-2-1.07-4.08-1.68-6.09-.07-.23-.53-.44-.83-.46a.88.88,0,0,0-.73.41C215.06,173.1,214.63,174.88,214.13,176.83Zm247.13,71.36h2.1V237.8h-2.1ZM101.74,311.6c-1.05-2.26-1.93-4.21-2.86-6.14-.33-.68-1.47-.83-1.72-.23-.64,1.56-1.18,3.16-1.79,4.84Zm426.67-36.4v-15H528c0,.4-.11.8-.1,1.2,0,4.24.07,8.48,0,12.71a4.51,4.51,0,0,0,1.77,3.7,7.38,7.38,0,0,0,1.08-2.42c.11-4.6.08-9.2.07-13.79,0-.26-.27-.52-.41-.77l-.36.13v14.54ZM275.93,321.92c-2.8.19-3.86,2.56-5.87,4,.59.5,1,1.13,1.43,1.18,1.46.13,2.93,0,4.44,0Zm-162.47,9.24v6.59h4C117.18,334.9,116.29,332.54,113.46,331.15ZM131.32,206.3l.18.52,7.26-.64c-.92-1.68-1.14-3.59-3.57-3.53C132.62,202.71,132.53,205,131.32,206.3ZM258.73,312.55l-3.26,6h6.47ZM114.81,280v.12a23.32,23.32,0,0,0,2.75.11c.32,0,.69-.43.89-.76a.9.9,0,0,0-.21-.8c-2.57-2.6-3.86-2.68-6.6-.44,0,0-.08,0-.09.07-.14.33-.46.73-.37,1a1.28,1.28,0,0,0,.89.68A27.08,27.08,0,0,0,114.81,280Zm158.85-7.6c-3.84-2.95-4.48-3-7.45-.27a3.49,3.49,0,0,0-.53.94c.36.17.71.47,1.07.48,1.83,0,3.66,0,5.49,0C273.11,273.61,273.56,273.32,273.65,272.38Zm-158.79,1.15c-1.15-1.08-2-1.88-2.89-2.71a1.84,1.84,0,0,0-2.18-.45c-1.18.54-2.36,1.11-3.5,1.73a.82.82,0,0,0-.25.75c.09.27.41.65.64.65C109.29,273.55,111.9,273.53,114.86,273.53Zm155.32,27.55c.33.44.6,1.14.92,1.16,1.61.11,3.22.05,4.88.05,0-1.21,0-2.25,0-3.28s-.52-1.51-1.56-1.2a4,4,0,0,0-1.34.75C272.15,299.32,271.27,300.13,270.18,301.09Zm20-54.87c2-4,2.39-9,.41-11.1C288.66,238.72,289.39,242.38,290.2,246.22Zm-184,33.85V280c.6,0,1.19.12,1.79.12a.82.82,0,0,0,.76-1.3c-1.65-2.78-2.75-3.06-5.54-1.39a2.07,2.07,0,0,0-.6.38c-.25.32-.61.71-.6,1.06,0,.57.33,1,1.08,1C104.14,279.82,105.17,280,106.21,280.07Zm-9.68,7.5H103L99.89,282Zm22.24,30.58,5.44,1c-.86-1.94-1.57-3.66-2.4-5.33-.14-.28-.79-.44-1.19-.42a1.09,1.09,0,0,0-.78.64C119.45,315.36,119.15,316.68,118.77,318.15Zm38.77-127.89c.76-.82,1.84-1.44,1.53-2.8s-.68-2.86-1.07-4.28c-.07-.26-.43-.61-.65-.6s-.57.35-.65.61c-.31,1-.47,2.1-.79,3.12A3,3,0,0,0,157.53,190.26ZM269,279.14l-1.25-1c-2.54-2.16-3.22-2.14-5.61.24-.24.24-.56.78-.46.93a1.45,1.45,0,0,0,1,.59c1.6.06,3.2.07,4.8,0C267.91,279.84,268.34,279.46,269,279.14Zm211.48-55.51.33.3c.2-.27.58-.55.58-.82,0-5.51,0-11,0-16.54,0-.77-.32-.86-.95-.59ZM277.74,278.91c-3.31-3.43-3.76-3.41-7.25.08C271.16,280.2,276.8,280.18,277.74,278.91Zm144.23-51,.33-.21V210l-.32-.18c-.18.27-.52.53-.52.8q0,8.27,0,16.54C421.47,227.37,421.79,227.62,422,227.87ZM284.09,318.63,280.57,314l-3.83,4.61ZM430.27,206.36h-.39l-.92,20.1,1.31.07Zm-209-23.08-.28.07-1.2,7.45a10.83,10.83,0,0,0,1.14-.15c2.43-.61,3-1.69,2-4C222.49,185.49,221.85,184.39,221.28,183.27ZM98.91,312.78c-.45.78-.83,1.43-1.19,2.08a2.7,2.7,0,0,0-.51,1.06c0,.58,0,1.41.33,1.69a3.74,3.74,0,0,0,2.37,1c1.42-.17,1.87-1.56,1.1-2.8C100.37,314.82,99.66,313.87,98.91,312.78ZM276.48,327.2c1.6-.59,3.62.92,4.58-1.56L276.48,322ZM259.05,284.5c-.91,0-1.75-.08-2,1.21s.53,1.56,1.39,1.87a6.64,6.64,0,0,0,2,.6c.41,0,1.21-.66,1.16-.85a7.15,7.15,0,0,0-1.1-2.48C260.35,284.52,259.58,284.6,259.05,284.5Zm-169.39,53,.52-6H87.78c0,1.51,0,3,0,4.45C87.79,337.68,87.84,337.72,89.66,337.54ZM484.92,223.73v-18C484.12,206.4,484.07,222.83,484.92,223.73Zm-20.93,30,.45.14a4.89,4.89,0,0,0,.27-1.12q0-7.73,0-15.47c0-.32-.26-.63-.4-.95a3.19,3.19,0,0,0-.36,1c0,5.2,0,10.39,0,15.59C463.92,253.19,464,253.46,464,253.73ZM401.1,209.8v17.64C401.88,226.77,401.92,210.64,401.1,209.8Zm0,47.86.34.07a2.16,2.16,0,0,0,.23-.66q0-8.08,0-16.16c0-.24-.23-.49-.35-.73l-.23.1Zm3.93.11.5.1a7.32,7.32,0,0,0,.23-1.28c0-5,0-10,0-15a3.63,3.63,0,0,0,0-.83c0-.15-.24-.35-.36-.35s-.32.21-.36.35a3.58,3.58,0,0,0,0,.83q0,7.49,0,15C405,257,405,257.37,405,257.76Zm0-30.52c.67-.68.77-16.44.2-17.38C404.82,210.48,404.62,225.22,405.06,227.25Zm59.16-21.47-.25.1v17.25l.3.08a2.39,2.39,0,0,0,.31-.79q0-8,0-15.94C464.58,206.26,464.35,206,464.22,205.78Zm-4.15,47.82.38.1a2.43,2.43,0,0,0,.25-.73q0-8,0-16c0-.24-.24-.48-.36-.72l-.26.11Zm40.08,6.14c-.67,1.23-.61,17,0,17.76Zm-386.72,46v5.34h3C116,309,115.39,307.14,113.44,305.78Zm135.13-99.69.33.3c.94-.42,1.89-.8,2.8-1.27.24-.12.53-.6.46-.8-.38-1.06-.87-2.08-1.33-3.11l-.35,0Zm216.71,40.72.36,0,1.43-9h-1.8ZM266,284.17h7.38C270.86,282.09,267.53,282.12,266,284.17Zm192.7-46.71c-.62,4.89-.3,9.57.77,10.4,0-3.28,0-6.45,0-9.62C459.49,238,459.11,237.84,458.74,237.46ZM276.49,302.17c2.56.39,2.76.32,3.25-1.25l-3.25-2.6ZM145.66,206.71c1.26-.27,2.18-.41,3-.69a1,1,0,0,0,.39-.89c-.35-1-.82-1.95-1.4-3.26Zm23.6,78h-6.7C165.14,286.84,167.05,286.85,169.26,284.71Zm256.61-74.77c-.76,1.12-.62,17,0,17.57Zm34.26,13.38c.7-1,.62-16.65,0-17.56Zm43.35,54h.28v-17.4h-.28Zm7-17.9a5.17,5.17,0,0,0-1.67.49c-1.11.88-.72,2.1-.66,3.19h2.33Zm-293.09,25.3h-6.57C213.64,286.71,215.17,286.69,217.35,284.72Zm292-7c1.42-.72,1.14-2,1.07-3.25h-2.3A2.59,2.59,0,0,0,509.34,277.73ZM113,299.2c-2.31,1.12-2.41,1.28-1.94,2.68.39,1.17,1.22.54,1.94.62Zm.49-11.34c1,.13,2,.29,2.28-.65l-2.28-2.87Zm2.43,29.48-2.46-2.08v3.15C114.38,318.29,115.52,318.91,115.88,317.35ZM113,324l-2.29,1.76c.4,1.19,1,1.89,2.29,1.37Zm144.66-40,.3.24h2.32l.23-.27L259,282.38Zm265.49-6.42,1.14.11v-3C523,274.37,522.93,274.59,523.12,277.56Zm-409.7,17.75,1.43-1.09-1.43-1.63Zm407-35.94c-.86,1.15-.77,3.31,0,3.77Zm-371,25.25,1.25,1.87,1-1.87Zm371-10.37c-.85,1-.78,2.88,0,3.4ZM229.63,284.66h-2.07l1,1.28Z"/></svg>