<svg id="Layer_1" data-name="Layer 1" xmlns="http://www.w3.org/2000/svg" viewBox="0 0 357 344"><defs><style>.cls-1{opacity:0.34;}.cls-2{fill:#1b1464;}.cls-3{fill:#202020;}</style></defs><title>shards-sevis-temple</title><g class="cls-1"><polygon class="cls-2" points="183.81 328.33 183.81 23 12 199.15 183.81 328.33"/><path class="cls-3" d="M183,329.4c.43.1.48-.34-.46-1l-1,.05Z"/><path class="cls-3" d="M177.77,323.92c-1.24-.53-2.78-1-2.47,0,1.42.27,1.51.67,3.08.9.94.61,1.42,1.34,1.13,1.42.42.1,1.29,1.15,2,1.18a9.66,9.66,0,0,0-4.09-3.21C177.2,323.86,177.62,324,177.77,323.92Z"/><path class="cls-3" d="M91.52,257.78l.51.48A4,4,0,0,0,91.52,257.78Z"/><path class="cls-3" d="M37.92,217c.42.3.63.37.69.34C38.2,217.12,37.86,216.91,37.92,217Z"/><path class="cls-3" d="M29.17,209.54l.51.44A1.48,1.48,0,0,0,29.17,209.54Z"/><path class="cls-3" d="M91.52,257.78l-1.31-1.25C90,256.63,90.85,257.22,91.52,257.78Z"/><path class="cls-3" d="M164.83,316.19a5.14,5.14,0,0,0,.89.45l-.78-.5Z"/><path class="cls-3" d="M115.57,275.19l.44.33a2.83,2.83,0,0,0,.52.06Z"/><path class="cls-3" d="M133.84,288.8c-.4-.33-.88,0-1.18.09a2.08,2.08,0,0,1,1.13.37A.55.55,0,0,0,133.84,288.8Z"/><path class="cls-3" d="M162.12,311.3l.56.32Z"/><path class="cls-3" d="M102.61,265.3a.45.45,0,0,0,0-.29C102.52,265.07,102.55,265.17,102.61,265.3Z"/><path class="cls-3" d="M186.45,301.93s-.07,0-.1,0S186.44,302.1,186.45,301.93Z"/><path class="cls-3" d="M183.66,328.33l0-.37a.94.94,0,0,0-.32-.08Z"/><path class="cls-3" d="M16.25,198.72h0C16.26,198.79,16.27,198.76,16.25,198.72Z"/><path class="cls-3" d="M149.28,61.73c-1.89,1.22,2-3-.68-1C149,60.64,147.14,63.46,149.28,61.73Z"/><path class="cls-3" d="M164.4,315.78l-.75-.56A6.71,6.71,0,0,0,164.4,315.78Z"/><path class="cls-3" d="M148.6,60.7h0l-.28.21Z"/><path class="cls-3" d="M48.32,165.36a1.44,1.44,0,0,0-.52.18C47.85,165.57,48,165.53,48.32,165.36Z"/><path class="cls-3" d="M22.53,190.65l.68-.59A7.44,7.44,0,0,0,22.53,190.65Z"/><path class="cls-3" d="M60.85,151.38a4.61,4.61,0,0,0,1-.91l-.19.1A2.33,2.33,0,0,1,60.85,151.38Z"/><path class="cls-3" d="M74.47,137.4c-.1,0-.22.12-.33.18l-.41.46Z"/><path class="cls-3" d="M186.18,242.61a2.94,2.94,0,0,1-.51.9C186.07,243.21,186.21,246.08,186.18,242.61Z"/><path class="cls-3" d="M165,315.93a.77.77,0,0,1-.61-.16l.54.37C165,316.11,165.09,316.06,165,315.93Z"/><path class="cls-3" d="M58.22,147.71l2.22-2.16C59.8,146.13,59,146.92,58.22,147.71Z"/><path class="cls-3" d="M186.1,102.59l.07.71A2,2,0,0,0,186.1,102.59Z"/><path class="cls-3" d="M66.81,138.9a8.13,8.13,0,0,0,1.5-1,1.42,1.42,0,0,0,.15-.36Z"/><path class="cls-3" d="M185.67,243.52h0Z"/><path class="cls-3" d="M187,263.94c0-3-.72-1.39-1.15-2-.21-3.53.54-1.63.92-2.83-.2-2.2-.87-3.89-.85-5.53.12-.12.17-.44.32-.07-.59-2.33,0-6.91-.77-9.62a.82.82,0,0,1,.18-.35.94.94,0,0,1-1,.42c0-1.32-.47-2.46,0-3a2.06,2.06,0,0,0,.33,1.26l-.21-1.39c.69-1.25.24,1.89.75,1.89-.23-2.71-.8-5.86-.6-7.93.68-.43.23,4.85.83,2.08l-.26,3.21c1.07-2.45-.07,1.95,1.07-.3.2-4.22-.35-4.72-.15-8.94-.38-.95-.56.31-.94-.64-.68-6,1.71-4.71.8-9.11-.45-1.14-1.31-1.58-.86-4.72l.77,1.07c.08-4.09-1.1-2.33-.59-6.62.3.76.25,3.21.35,2.59.61-2.77-.44-2-.44-4.09l.68-.44c-.11-4.35-.6-9.15-.72-14,.2.27.42,1.09.62,0a158.36,158.36,0,0,1,.49-18.84l-.59-2.24c0-.52.27-1,.38-.4.22-2.29-.37-.12-.6-1.22,0-1.3.34-1.72.51-.89-.5-4-1.07-11.49-.44-15.74l.17.83c.24-3.31-1.2-3.73-.66-6.8l.1.59c.25-7.18-.28-15.12.6-20.6-.85-1,.38-7.11-.8-7.57.58-4.1.8-2.93,1.19-8.7.05-1.54-.74-2.3-.86-4.21l.62,0-.65-2.59.74-1.38-.16-1.79c0,.71-.28,1.51-.45,1.41-.28-2.79.43-6.81.74-6.88l-.52-6.61c.25.15.33,1.25.49,2.13-.63-3.53.65-.64.07-3.87-.14.43-.37-.23-.49-.31a37.81,37.81,0,0,0,.22-8l.42.52c.11-4.9-.2-10.34-.2-15.84-.2,2-.93,1.52-1-.09l.65-.65c-.4-1-.25,1.69-.74-.45.08-2.06.74-1.38,1-.2l-.23-2.5c.19-.15.3.44.55.59-.4-1,.65-4.31,0-5.79l.19-.14c0-5.5-.22-8-.25-12.48-.56-.09-.44-1.84-.89-3.18.09-1.65.25-3.38.37-5.2.06-.91.12-1.84.16-2.79l0-1.44q0-1.06,0-2.14c-.14-2.38-.26-2.57-.38-2.5s-.26.44-.43-.35a14.05,14.05,0,0,0,.47-3.55c.1-1.38.18-2.4.36-.91l-.06-4.86c-1.77,1.86-3.23,3.41-4.88,5.2l-2.65,2.9L177.13,27c-.31.34-.44.5-.61.7l-.53.62c.61-.32,1.18-.78,1-.39-.7.84-1.89,1.63-2,1.35l.16-.24c-4.17,5.38-12,10.13-15,14.73l.17-.25L157,47.86c-1.86,1.78.8-1.37-.75-.23-3.59,4.91-6.73,6.72-9.79,10.67C142.66,60,137,68.12,132.68,71.16l.46,0c-.69,1.2-1.28,1-2,1.67.3.09,1.24-.82.8-.09-7.61,8.42-16.72,16.4-25.07,24.5-3,3-.37,3-4.72,6.26l.59-1.55c-5.43,6.7-12.28,12.55-17.66,19,.24-.47.11-.61.68-1.2-1.58.94-4.6,4.68-4.34,5-.95.91-.47,0-1.17.41-1.45,1.08-2.68,3.63-3.68,4-.17.06.24-.47.44-.73-.64,1-3.82,3.83-2.64,3.42-2.39,2.07-4,4.49-6,6.06-.7,1.61-4,3.66-3.72,4.64-.49-.79-4.38,3.45-5.47,5.17.27-.67-1.41,1-1.14.22-1.58,1.64-2.92,3.25-2.31,3.29-3.7,2.25-5.26,6.64-7.9,7.36-4.37,5.18-8.5,9.89-12.6,14.39-.49-.79,4.63-4.87,3.77-5.35-3.76,4.39-5.53,7.31-9.68,11.26-1.12,1,.31-.88.55-1.34C26.05,182,22,185.49,18.74,189.5c-.05-.07.27-.53.59-1-.69.74-1.74,1.59-1.36,1.79l.61-.78c1.55-.74-1.91,3.74-1.81,4.09.36-2-3.75,3.42-2.91.43a5.15,5.15,0,0,0-.54.84c-.09.23-.24.54,0,.54-1.08,1-1.66,1.36-.76,0a26.17,26.17,0,0,0-3.13,3.9,26.56,26.56,0,0,1,3,2.07c-.2.1-1.08-.47-1.8-.72l1.9,1.08,1.72,1a18.17,18.17,0,0,1,2.83,2c-.21,0,0,.31-.7-.19,3.84,2.81,7.1,4.05,11.05,7.49-1.75-.24,1.25,1.29,1,2.06l2.38,1.51-.68-1c2,1.49,4,2.36,5.57,3.83L34,217.67l3.77,2.66-1.92-1.79c2.22,1.19.35-.92,2.85,1.22-.58-.34,2,1.49,2.72,2.61h0a13.23,13.23,0,0,1,3.61,2.33c.23.47-.8.43-.65.74,1.33.22,4.71,3.32,6.32,3.71-.5-.18-.76.12-.67.28l1.11.2c.81.81.9,1,.56,1.12,2.68,2.13-.3-1.41,2.71,1.36a5,5,0,0,1-.78-.34c3.14,2.63,6.5,4.49,9.35,6.94.43,1.27-2.73-1.82-2.1-.56,4.41,3.14,9.5,6,13.58,9.31l-.73-.65c1.22-.41,2.8,2.76,5.22,4-.57-.33-1,0-.82,0,2.77,2.29,6,4.2,10.56,7.2l-.7-.19c1.54,1.46,4.37,3.46,6.12,4.93.71.19,1.72,1,1.33.22,4.7,5.47,11.24,7.41,15.45,12.19-.6-.45-1.57-.88-1.09-.52l4.4,3c-.06-.62-.39-.64-1.07-1.6a11.39,11.39,0,0,1,3.09,1.71c-2.1-1.19-.43.61.24,1.43-.05-.22.32-.13.34-.3,1.73,2.33.93-.46,3.63,2.26l-.31.07a30.16,30.16,0,0,1,3.63,2.26c.19.81-1.36-.71-1.7-.42,1.74,1.27,4,1.74,5.24,3.34-.82-.43-1.87-1.22-2.69-1.65a11.81,11.81,0,0,0,2.81,2.82l-.12-.1,2.74,2.42-.64-.69c3,.5,4.53,3.09,8,4.54-3.34-1.43-.77,0-1.35.37.64.69,1.65,1.69,1.23,1.58,1.66.64,2.06,2,4.42,2.91,0,.22,1.45,1.12.85,1.28,1.87,1.22-.22-.59.08-.67,3.15,1.53,6,5.5,10.47,7.74,3.63,2.26,4.66,2.21,8,4.32.88,1.05-1.3-.09-1.3-.09a22.06,22.06,0,0,0,4.63,3.5c-.43-.11-.18.26.18.81,1.33.94,1.3.09,2.84,1.61a5.9,5.9,0,0,1-1.77-.35c1.64,1,3.37,1.86,5.07,2.91.22.59-1.27-.31-2-.55,1.88,1.22,4.81,3.23,5.68,3.21l-1-1c.67.47.06.62-.48.34-1.78-.81-2.09-1.81-2.06-2l1.21.75c-.47-1.79-4.65-3.27-6.89-5l1.45,0-2.75-1.2c-.37-.55-.43-1.17.77-.43-1.38-1.56-1.62-.85-2.75-2.27-.11-.17,0-.15.15-.07l-1.74-1c.42.1.09-.67,1,.16-2.57-2.54-5-3-5.69-4.28l.27.14c-4.14-2.76-.75.2-4.16-1.47l-1.1-2.71-.76.19c-.4-.33-1.18-1-.88-1.05-1.78-.81.1.41-1,.06-1.64-1.93-5.59-3.88-5.45-5-1-.16,1.67,1.7-.63.38,0-1.29-2.54-1.69-4.05-3.42.88,0,2.41,1.5.9-.24-1.64-.09-3.39-2.8-5-3.8-.51.53-3.49-2.24-6.18-4,.31-.07-4.56-3.93-6.77-5.92l.14,0c-.9.24-3.26-1.71-5.14-2.93.33-.3.76-.2,1.84.37L116,275.52a6.85,6.85,0,0,1-2.27-1.15l.75-.12c-2.25-1.65-4.88-2.86-7.52-5.31-.47.29,1.42,2.85-1.81.85.05-.31.23-.77,1.09-.26a6.22,6.22,0,0,1-1.52-1l1.49.54c-1.18-1.15-.92-.2-1.93-1,.26-.3-.6-.81-.27-.94.29.17.81.82,1.31,1a13.59,13.59,0,0,1-2.71-2.79c0,.26-.32.43-1.21-.18-2.25-1.65-.48-1-1.66-2.09-.7-.19-2-1.48-2.35-1a1.93,1.93,0,0,1-.76-1.12c-1.31-.66-5.43-4-4.51-2.51l.27.26-.2-.12h0c-4.13-2.37-7.65-6.17-11.56-8.79l.12-.15c-2.37-1.5-5.06-3.64-6.92-4.5-.66-.5-1.35-1.46-.92-1.44a20.47,20.47,0,0,1-4.4-3.25c1.93,1-.41-.69,1.92,1.12-2.12-1.81-2.44-2.44-5.15-3.8,1.12.21-1.29-1.77-2.44-2.44l1.34,1.46c-1.23-.83-2.25-1.65-3.28-2.48l1-.1c-4.06-4.07-9-5.07-11.69-8.76-1.48-.53,2.27,2.12.87,1.75-2-1.65-3.65-4-4.3-4.54-2.65-2.45-3.26-1.23-6.11-3.69.24.48.22,1.26-2.15-.25-2-1.65-2-2.73-.54-1.89.51.36.71.6.64.65.73.44,1.68,1,1,.2H39.2c-.89-1-3.79-3.12-2.88-2.92-1.72-1-.91-.2.19.78-2.48-2.29-4.19-3.16-6.82-5.43.36.44.6,1,.16.63-3.88-3.29-2.06-1-4.87-3-1.34-1.46,1.08-.27-1.87-2.11-1.54-1.47,0-.77.81-.42-2.8-1.53-4.53-3.78-5.92-4.93l1.44.85a21.5,21.5,0,0,1-2.17-1.5l.47.95-1-.84a2.07,2.07,0,0,1-.27-.29c-.07-.09,0-.08,0-.14a.94.94,0,0,0-.42.39c-.13.16-.25.36-.87.16a3.75,3.75,0,0,0-1-.79c.32-.36.69-.71,1.11-.67-.66.55-.57.61-.3.55s.62-.11.67,0A1.15,1.15,0,0,1,16,199a.83.83,0,0,1-.24-.12,1.19,1.19,0,0,1,.31-.22.15.15,0,0,1,.16.08c.89-.11-.61-.39,2-3.1-.11.62,1.14-.2,1.55-.73-1.15,1.17-1,.15-.12-1.12,2-1.67,1.83-2.17,2.8-3.12l-1.18,1c.11-.62,1.05-1.52,2.24-2.9.31.08-1,1.31-.47.93,1-1.88,3.64-2.81,5.3-5.11,1.08-.76.57.38,1.48-.33,1.87-2.57,2.73-2.1,4.76-4.73-1,.35-1,.55.25-1.44l-3.55,4.13,1.94-3c-1.15,1.17-2.2,2.69-2.95,3.33.88-1.46.85-1.26,0-1,2.08-1.11,2.81-3.48,5-5l.79.88c3.1-2.42,4.41-5.38,8.16-8.8l-1.28,1c.14-.81,2.14-2.28,3.15-3.59.18.39,1-.25,1.66-.58-.27-.14,2.61-2.64,2.36-3.52l2-1.26c3-2.78,2.45-4.13,5.3-6.85-.52,1.15.93.06-.69,2.16.92-.94,1.8-1.73,1.61-1.94.71-.38,2.16-3,3.27-3.58a3.85,3.85,0,0,1,1.15-2c.17-.06.14.14.14.14s1.42-1.84.21-1.22c3.71-2,7.83-8.15,11-9.94,1.91-2.14,4.22-4.7,6-6.58,0,.2.14.14-.24.47,2.77-2.31.73-2.37,3.87-5,1.91-1-1.27,1.79-.19,1,1.33.5,3.31-3.65,5.77-5.09l-.41.53c1.78-1.2,3.23-4,5.69-6.4,0,0,0,.2.13.15,1.16-2.14,4.11-5.48,6.28-8-.35,1.09-.85,1.26,0,1.17,1-1.11-.9-.27,1.06-2.48.87-.49,2.53-1.85,3.12-1.67l-1.92,2c1.51-.52,2.5-2.6,3.61-3.56l.09.35c2.91-3.13,2.39-3.72,5.63-7l-.5.17c1.19-2.34,1.78-1.2,3.11-3.39h1.09c1-1.32,3.5-4.68,5.47-6.91-.75,1.61-3,4.31-4.22,6.09,1.15-1.17,3.85-4,4.17-4.91a7.87,7.87,0,0,1-1.39,1.64A27.25,27.25,0,0,1,125.23,84c.69,1.48,6.22-5.83,8.73-6.7,3.63-4.53,8.18-8,12.82-12.93-2.52.88,1.35-1.43.18-2a8.19,8.19,0,0,1,1.63-1.64l3.84-2.89c1-.56-.85,1.26-.55,1.34,2.47-2.39,1.38-.67,3.2-2.07-.64,0,.39-1.29,1.87-2.58l-2.33,1.58c2.89-3.89,3.63-2.25,6.55-6.17l-.79,1.36c1.57-1.94,6.4-6.55,7.4-9,.41-.22,1.05-.4.35.45,2.12-2.07,4.24-4.62,6.29-7,1-1.19,2-2.35,3-3.38.49-.52,1-1,1.44-1.46l.7-.64.16-.14.07,0,.14-.07a1.68,1.68,0,0,0,.09.33c.06-.13.09-.35.18-.58s.25-.45.41-.4c0,.21-.09.52,0,.46A5.59,5.59,0,0,1,181,29c.22-.37.54-.78.64-.77v0l0,0q-.3.53-.51,1l.13-.05c-.08.7.14.64.41,1.23a4.5,4.5,0,0,1,.21.5l.2,1.46c.12,1,.23,2,.27,3.15-.88,0-1.17,4.54-1.31,6.82l-.12-.08C180.82,49,181.66,53.75,182,60c-1,3.87-.4,13.12-.94,19.35.16-1,.69.16.77,1.26-.18,1.46.61,4-.2,3.81l0-.52c-.79,1.1-.58,4.1-.6,6.45l1.06.39c-1.54,6.13.56,16.07-.81,19.42.26,1.48.26,3.31.53,4.78l-.57-.08c-.14,4.1-.22,6.15-.08,11.22l-.4-1c0,2.86,1.63,3.61,1.67,6.25l-.85.79c0,5-.73,10,0,15-.12-.08-.37-.23-.4-1,0,2.35-.57,9.08.59,8.23-.76.06-.07,5.15.26,7.84l-.56-.42a15.47,15.47,0,0,1,1.1,5.52c-.07.75-.45.66-.3-.34-.29,2.51.53,2,.23,5l-.36-1.13a7.65,7.65,0,0,0,.56,3.8c.22,1.62-.14,4.89-.64,5.27a5.51,5.51,0,0,1,.57,3.28c-.19.21-.31-.35-.37-.63-.38,4.31.65,6.41.1,9.38-.18.06-.28.26-.33.5,0-3.43,0-6.19.08-5.93-.51,0-.6,2.77-1.31.57.39,2.22,1.23,6,1,8.72a1.3,1.3,0,0,1-.18.36l-.06-.28a6.85,6.85,0,0,0,.08,1.71c-.08.86-.15,1.41-.15,2.23-.42.32-.23,3.17-.25,4.55.56-.11.47,1.69.94,0,0,.22-.07-.26-.09-1.18a4.93,4.93,0,0,0-.06-.59l0,.09,0-3.43a7.66,7.66,0,0,1,.21,3.76c.36.71.73,1.49.91,1.93-.78,1.89-1.21,5.53-1.69,6,.32,4.21.21,9.93,1.26,12.58a2.41,2.41,0,0,1-.47,1.83,13.91,13.91,0,0,0-.24-1.89c.27,2.4.11,7.1.84,7.67-.33,3-.68-1.7-.56,2.45l-.23-.56c-1.18,8.16,1.88,13.27.37,22.32.09-.63.14-.94.26-1.07-.67,10.32.63,21.26-.43,31.44-.21,2.89.26,3.21.62,5l-.6.63.7,3c.51,4.28-1.48,7.42-.52,12.84l.41-.7c-.08,1.95.24,6.17-.23,5.84a1.76,1.76,0,0,1,.21,1.4l-.32.06.54,4.78c-.23,3.71-1.25-.58-1.32,4.83.12,2,.92,5.73,1.13,5,0-.81.2-2.07.51-2.13l.16,1.84c.93.33,1.88,1.75,2.54-2.77l-.57-3.15.45-1,0,2.65a6,6,0,0,0-.21-3.52,2.43,2.43,0,0,0,.5-1.32l-.89-3.09c.36-.37.72,1.39.92-.69-.41-1.45-.82,1.39-1.09-1,.42-1.51.77-1.07.41-2.83.24-.25.39.13.5.83-.29-1.57-.12-4.16-.62-5,.52-1.57-.14-5.31.75-5.15a17.88,17.88,0,0,1-.73-4.21c1.06,2.64.06-5.41,1.19-4.71-.95-2-.42-7.06-.95-10.51a1.89,1.89,0,0,1,.18.88,23.86,23.86,0,0,1,.54-3.76c-.78-.25-1-3.28-1.45-4.92.76-2.39.92,1.45,1.65.7-.64.12-.63-4.15-1.16-3.33.47-1.83.23-1.57.88-2.51-1-.32-.17-1.7-.77-3.21.48-2.64.92-.68.62-3.58C186.65,261.36,187,263.94,187,263.94Zm-1.69-69h0l0,1.42Zm0-5.8c0,.71,0,1.59,0,2.52-.19.2-.39,0-.38-.6C185,191.36,185.13,190,185.3,189.13Zm-3.9,12.27c-.08-.92,0-1.23.15-1.35,0,.43,0,.94.07,1.61,0,0,0,.08.07.11A.89.89,0,0,1,181.4,201.4Z"/><path class="cls-3" d="M182.14,203c0,.13,0,.21,0,.38,0-.19.09-.37.13-.55l-.18-.32Z"/><path class="cls-3" d="M92.13,258.35l-.09-.08a1,1,0,0,1,.16.22A.83.83,0,0,1,92.13,258.35Z"/><polygon class="cls-3" points="186.37 109.05 186.23 109.06 186.36 109.56 186.37 109.05"/><path class="cls-3" d="M116.5,279.09a1,1,0,0,0,.25.37A1.25,1.25,0,0,0,116.5,279.09Z"/><path class="cls-3" d="M127.45,287.48l1.44,1.33C128.28,288.22,127.82,287.8,127.45,287.48Z"/><path class="cls-3" d="M135.76,294.08a.59.59,0,0,0,.31-.07v0Z"/><path class="cls-3" d="M19.33,188.55c.1-.1.19-.21.27-.31C20.19,187.47,19.76,188,19.33,188.55Z"/><path class="cls-3" d="M41.46,222.36c-.49-.24-1-.47-1.45-.76C40.69,222.17,41.24,222.6,41.46,222.36Z"/><path class="cls-3" d="M58,147.95s0,0,0,0l.24-.25Z"/><path class="cls-3" d="M38.15,220.19A9.56,9.56,0,0,0,40,221.6,14.82,14.82,0,0,0,38.15,220.19Z"/><path class="cls-3" d="M172.36,321.92l.39.33s.06,0,.1,0Z"/><path class="cls-3" d="M172.86,322.21l.49.29A1.27,1.27,0,0,0,172.86,322.21Z"/><path class="cls-3" d="M174.39,323.1l-1-.6A2.73,2.73,0,0,0,174.39,323.1Z"/><path class="cls-3" d="M161.29,313.27l-.25.07A.27.27,0,0,0,161.29,313.27Z"/><path class="cls-3" d="M157.84,310.75a25.78,25.78,0,0,0,3,2.63l.2-.05C160.32,313.18,158.82,311.06,157.84,310.75Z"/><path class="cls-3" d="M145.12,298l2.76,2.28c-.37-.55-.85-1.28.48-.34C145.15,296.74,148.81,300.92,145.12,298Z"/><path class="cls-3" d="M136.45,291.12c1.6,1.07.17-.27.33-.3C135.68,290.24,135.41,290.1,136.45,291.12Z"/><path class="cls-3" d="M72.4,243l.46-.29C71.63,241.83,72.73,242.82,72.4,243Z"/><polygon class="cls-3" points="58.56 235.87 59.53 236.99 60.36 237.02 58.56 235.87"/><polygon class="cls-3" points="53.52 227.51 54.08 227.84 52 226.51 53.52 227.51"/><path class="cls-3" d="M72.4,140.23l-.76-.12C71,140.91,71.38,141.56,72.4,140.23Z"/><path class="cls-3" d="M112.51,98.19a5.64,5.64,0,0,0,2.44-2.2C114,96.9,112.92,97.66,112.51,98.19Z"/><polygon class="cls-3" points="181.32 93.64 181.11 92.47 181.28 94.67 181.32 93.64"/></g><path class="cls-3" d="M183.73,328.44c.33.23.18.06-.72-.59l-.68-.41Z"/><path class="cls-3" d="M177.82,323.85c-1.08-.74-2.36-1.54-1.75-.94,1.12.67,1.34.89,2.54,1.61a7.25,7.25,0,0,1,1.37,1.1c.33.21,1.38,1,1.89,1.35-1.12-.91-2.58-2-4.16-3.11C177.39,323.6,177.73,323.81,177.82,323.85Z"/><path class="cls-3" d="M91.46,257.87l.52.48A4.59,4.59,0,0,0,91.46,257.87Z"/><path class="cls-3" d="M38,217c.42.3.63.37.69.33C38.25,217,37.91,216.85,38,217Z"/><path class="cls-3" d="M29.26,209.42l.51.45A1.38,1.38,0,0,0,29.26,209.42Z"/><path class="cls-3" d="M91.46,257.87l-1.32-1.23C89.92,256.72,90.78,257.31,91.46,257.87Z"/><path class="cls-3" d="M165.53,315.26c.31.21.58.38.82.53l-.75-.52Z"/><path class="cls-3" d="M115.35,275.49l.43.33a3.17,3.17,0,0,0,.48.12Z"/><path class="cls-3" d="M133.48,289.28c-.4-.33-.75-.16-1-.15a2.94,2.94,0,0,1,1,.49S133.56,289.47,133.48,289.28Z"/><path class="cls-3" d="M161.9,311.6l.53.37Z"/><path class="cls-3" d="M102.44,265.52a.43.43,0,0,0-.07-.26S102.37,265.4,102.44,265.52Z"/><path class="cls-3" d="M184.79,301.93s0,0,0,0S184.79,302.1,184.79,301.93Z"/><path class="cls-3" d="M183.79,328.33V328s0-.08,0-.08Z"/><path class="cls-3" d="M16.5,198.71h0C16.51,198.78,16.52,198.75,16.5,198.71Z"/><path class="cls-3" d="M148.3,60.78c-1.66,1.43,2.28-2.75-.17-.54C148.41,60.08,146.32,62.65,148.3,60.78Z"/><path class="cls-3" d="M165.06,314.9l-.75-.55Z"/><path class="cls-3" d="M148.13,60.24h0l-.25.23Z"/><path class="cls-3" d="M48.32,165.35a1.45,1.45,0,0,0-.52.18C47.85,165.57,48,165.53,48.32,165.35Z"/><path class="cls-3" d="M22.6,190.72l.68-.58A7,7,0,0,0,22.6,190.72Z"/><path class="cls-3" d="M60.79,151.33a4.82,4.82,0,0,0,.94-.91l-.19.1A2.44,2.44,0,0,1,60.79,151.33Z"/><path class="cls-3" d="M74.37,137.3c-.1,0-.22.12-.32.19l-.41.46Z"/><path class="cls-3" d="M185.56,242.61a3.39,3.39,0,0,1-.38.9C185.48,243.21,185.55,246.08,185.56,242.61Z"/><path class="cls-3" d="M165.58,315.18a1.85,1.85,0,0,1-.51-.28l.53.38C165.66,315.28,165.68,315.27,165.58,315.18Z"/><path class="cls-3" d="M58.32,147.8l2.24-2.15C59.91,146.23,59.1,147,58.32,147.8Z"/><path class="cls-3" d="M185.28,102.59l.05.71A3.1,3.1,0,0,0,185.28,102.59Z"/><path class="cls-3" d="M67,139.05a8.68,8.68,0,0,0,1.48-1,1.5,1.5,0,0,0,.16-.35Z"/><path class="cls-3" d="M185.18,243.52h0Z"/><path class="cls-3" d="M185.84,263.94c.06-3-.44-1.39-.71-2-.1-3.53.37-1.63.64-2.83-.09-2.2-.53-3.89-.5-5.53.09-.12.12-.44.22-.07-.39-2.33.06-6.91-.46-9.62a.94.94,0,0,1,.14-.35c-.28.44-.55.51-.75.42,0-1.32-.34-2.46,0-3a2.6,2.6,0,0,0,.24,1.26l-.15-1.39c.53-1.25.17,1.89.55,1.89a78,78,0,0,1-.41-7.93c.53-.43.15,4.85.63,2.08l-.22,3.21c.83-2.45-.07,1.95.81-.3.2-4.22-.21-4.72,0-8.94-.29-.95-.44.31-.73-.64-.51-6,1.4-4.71.71-9.11a7,7,0,0,1-.68-4.72l.63,1.07c.09-4.09-.91-2.33-.46-6.62.25.76.2,3.21.28,2.59.53-2.77-.35-2-.35-4.09l.58-.44c-.07-4.35-.47-9.15-.57-14,.18.27.36,1.09.55,0a179.76,179.76,0,0,1,.49-18.84l-.53-2.24c0-.52.24-1,.34-.4.2-2.29-.34-.12-.54-1.22,0-1.3.31-1.72.46-.89-.45-4-1-11.49-.42-15.74l.16.83c.2-3.31-1.08-3.73-.61-6.8l.09.59c.18-7.18-.3-15.12.36-20.6-.68-1,.21-7.11-.7-7.57a69.66,69.66,0,0,0,.77-8.7c0-1.54-.56-2.3-.66-4.21l.42,0-.47-2.59.47-1.38-.13-1.79c0,.71-.16,1.51-.28,1.41a26.94,26.94,0,0,1,.37-6.88L185,91.21a10.26,10.26,0,0,1,.32,2.13c-.42-3.53.36-.64,0-3.87-.07.43-.21-.23-.28-.31a69.38,69.38,0,0,0,0-8l.22.52c0-4.9-.27-10.34-.34-15.84-.06,2-.38,1.52-.42-.09l.26-.65c-.18-1-.09,1.69-.31-.45,0-2.06.28-1.38.39-.2l-.12-2.5c.08-.15.12.44.22.59-.17-1,.19-4.31-.09-5.79l.07-.14-.21-12.48A20.09,20.09,0,0,1,184.4,41c0-3.29.17-6.95.14-10.92-.09-2.79-.15-.81-.25-2.07a11.87,11.87,0,0,0,.14-1.9l0-.86c0-.17,0,.2.06.65V23.34l0-1.21v-.78s0,0,0,0l-.2.2-2.84,2.92-4.48,4.75c.5-.42,1-.93.81-.62A8.75,8.75,0,0,1,176,30.16l.19-.22c-4.55,5-11.27,10.81-14.81,14.87l.2-.23-3.78,4.11c-1.83,1.81,1-1.19-.43.08-4,4.5-6.74,6.72-10.07,10.39-3.17,2.27-9.58,9.68-13.58,13l.34-.09a9.4,9.4,0,0,1-2,1.74c.2,0,1.15-.91.63-.25C124.9,81.78,116,89.92,107.51,97.92c-3.08,2.94-.75,2.64-5,6l.72-1.42c-5.64,6.49-12.44,12.38-18,18.74.26-.45.15-.58.73-1.16-1.54,1-4.64,4.64-4.41,4.91-.95.9-.43,0-1.13.45-1.43,1.09-2.76,3.55-3.72,3.93-.16.07.25-.45.46-.71-.67,1-3.84,3.81-2.7,3.36-2.39,2.08-4.08,4.45-6.06,6-.74,1.57-4,3.65-3.77,4.59-.44-.75-4.37,3.46-5.48,5.16.28-.66-1.41,1-1.12.24-1.59,1.63-2.94,3.22-2.34,3.25-3.7,2.25-5.3,6.6-7.94,7.33-4.41,5.15-8.55,9.84-12.66,14.33-.51-.8,4.65-4.86,3.77-5.34-3.78,4.37-5.54,7.3-9.71,11.23-1.13,1,.3-.89.53-1.35-3.76,4.38-7.87,7.89-11.09,11.92-.05-.07.26-.54.58-1-.69.74-1.75,1.58-1.35,1.8l.6-.79c1.58-.71-1.86,3.8-1.74,4.16.3-2.11-3.77,3.4-3,.34a4.86,4.86,0,0,0-.53.85c-.2.34-.31.64-.11.64-1.1,1-1.69,1.37-.82,0A24.94,24.94,0,0,0,9.42,199l-.15.22c0,.07-.17.16,0,.22l.75.45c.55.35,1.22.82,2.2,1.56-.22.1-1.12-.47-1.87-.72,1.35.75,2.6,1.43,3.79,2.16a16.89,16.89,0,0,1,2.83,2c-.21,0-.05.33-.71-.17,3.84,2.81,7.15,4,11.09,7.45-1.79-.19,1.24,1.31,1,2.11l2.39,1.49-.67-1c2,1.49,4,2.33,5.58,3.8L34,217.75l3.78,2.64-1.91-1.8c2.24,1.17.39-1,2.87,1.18-.58-.33,2,1.49,2.71,2.62h0A12.62,12.62,0,0,1,45,224.71c.23.48-.82.46-.68.78,1.35.2,4.72,3.31,6.35,3.67-.5-.18-.77.13-.68.3l1.12.19c.81.82.9,1,.56,1.13,2.69,2.13-.29-1.43,2.72,1.34-.28-.16-.21,0-.78-.34,3.14,2.62,6.51,4.47,9.37,6.92.44,1.26-2.74-1.82-2.1-.55,4.43,3.12,9.52,6,13.61,9.27l-.73-.65c1.19-.37,2.83,2.73,5.23,3.94-.56-.33-1-.07-.8-.05,2.78,2.27,6,4.18,10.56,7.2l-.69-.21c1.57,1.44,4.39,3.42,6.16,4.87.68.22,1.71,1,1.28.28a40.47,40.47,0,0,0,8,6.28,43.93,43.93,0,0,1,7.6,5.78c-.6-.44-1.54-.91-1.06-.56l4.39,3c-.13-.53-.44-.58-1.17-1.47a14.77,14.77,0,0,1,3,1.81c-2.05-1.26-.31.45.4,1.22-.08-.19.28-.07.27-.2,1.87,2.14.78-.26,3.57,2.34l-.26,0a41.44,41.44,0,0,1,3.57,2.35c.29.67-1.31-.77-1.57-.58,1.74,1.26,3.81,2,5.16,3.45-.79-.47-1.84-1.25-2.64-1.72a16.91,16.91,0,0,0,2.94,2.65l-.12-.1,2.82,2.31-.68-.64c2.69.9,4.5,3.14,7.73,4.87-3.13-1.71-.64-.11-1.07,0,.68.63,1.75,1.55,1.37,1.39,1.55.8,2.18,1.86,4.36,3,0,.15,1.47,1.1,1,1.07,1.85,1.25-.32-.45-.09-.45,3,1.78,6.27,5.1,10.51,7.68,3.53,2.4,4.32,2.66,7.55,4.94,1,.89-1-.44-1-.44,1.66,1.37,3,2.31,4.65,3.47-.36-.2-.05.09.4.51a26,26,0,0,1,2.68,1.82c-.33-.17-.78-.37-1.45-.77,1.58,1.09,3.17,2.13,4.79,3.27.37.38-1-.6-1.65-1,1.83,1.28,4.72,3.35,5.34,3.67l-1.12-.89c.66.48.27.33-.22,0a9.82,9.82,0,0,1-2.25-1.78l1.15.82c-1-1.1-4.58-3.37-6.87-5.06l1.11.5-2.47-1.57c-.45-.43-.7-.81.45,0-1.54-1.34-1.5-1-2.81-2.19-.14-.14-.06-.1.09,0l-1.64-1.13c.35.18-.13-.38.82.4-2.73-2.32-4.75-3.29-5.66-4.32l.25.16c-4-2.91-.54-.09-3.71-2.07l-1.58-2.07-.56-.06c-.4-.32-1.2-.95-1-.93-1.64-1,.18.3-.82-.21-1.8-1.71-5.52-4-5.65-4.73-.86-.33,1.77,1.58-.44.13-.25-.91-2.49-1.75-4.13-3.33.74.17,2.34,1.59.71,0-1.4-.4-3.42-2.75-5-3.83-.34.3-3.4-2.35-6-4.15.26,0-4.62-3.84-6.87-5.79l.12,0c-.77.07-3.15-1.86-5-3.12.27-.21.66-.07,1.71.55l-1.67-1.27a9,9,0,0,1-2.19-1.25h.67c-2.23-1.68-4.76-3-7.45-5.41-.41.21,1.6,2.62-1.6.56,0-.26.14-.65,1-.12a7.76,7.76,0,0,1-1.5-1l1.43.61c-1.2-1.12-.87-.27-1.89-1.08.21-.24-.63-.77-.33-.86a9.4,9.4,0,0,0,1.3,1,16.11,16.11,0,0,1-2.76-2.72c0,.23-.26.35-1.15-.27-2.24-1.67-.52-.89-1.71-2-.68-.23-1.95-1.5-2.28-1.12a2.13,2.13,0,0,1-.8-1.07c-1.28-.7-5.4-4-4.44-2.61l.27.25-.2-.12h0c-4.09-2.43-7.66-6.17-11.53-8.82l.12-.14c-2.36-1.52-5-3.66-6.89-4.55-.66-.5-1.35-1.45-.93-1.42a21.17,21.17,0,0,1-4.39-3.27c1.92,1-.41-.69,1.91,1.14-2.12-1.81-2.43-2.44-5.13-3.82,1.11.22-1.29-1.77-2.43-2.45l1.34,1.47c-1.23-.84-2.24-1.66-3.27-2.49l1-.1c-4-4.11-9-5.08-11.65-8.81-1.49-.52,2.26,2.14.85,1.77-2-1.65-3.61-4.09-4.27-4.59-2.63-2.48-3.28-1.21-6.12-3.68.23.49.19,1.3-2.19-.2-2-1.65-1.94-2.78-.5-1.95.51.36.71.61.64.66.73.44,1.68,1,1,.18h-.42c-.88-1-3.78-3.14-2.85-3-1.72-1-.92-.18.17.81-2.46-2.32-4.19-3.17-6.8-5.45.35.44.58,1,.14.66-3.86-3.31-2.08-1-4.89-2.94-1.33-1.49,1.12-.32-1.84-2.14-1.53-1.48,0-.81.85-.47-2.81-1.51-4.52-3.8-5.9-5l1.45.83a20,20,0,0,1-2.18-1.49l.45,1-.95-.84-.16-.16a.13.13,0,0,1,0-.05.19.19,0,0,1,.06-.11,1.16,1.16,0,0,0-.48.41c-.15.17-.29.37-.95.18a1.65,1.65,0,0,0-.43-.41l-.3-.21-.16-.11-.08-.05s0,0,0-.06a1.41,1.41,0,0,1,1.09-.62c-.78.64-.51.6-.14.53a1.54,1.54,0,0,1,.47,0,.22.22,0,0,1,.12.06,1.23,1.23,0,0,1,.27.11c-.09,0-.25-.07-.23-.14a1.22,1.22,0,0,1,.29-.2.17.17,0,0,1,.17.08c.55-.14.28-.09.25-.44a4.81,4.81,0,0,1,1.65-2.55c-.09.64,1.17-.17,1.57-.7-1.14,1.17-1,.12-.16-1.16,2-1.66,1.81-2.18,2.79-3.13l-1.18,1c.1-.64,1-1.54,2.22-2.92.32.09-1,1.32-.46.95.93-1.91,3.66-2.78,5.3-5.11,1.09-.76.59.4,1.51-.3,1.84-2.6,2.73-2.09,4.75-4.75-1,.34-1,.54.23-1.47l-3.53,4.15,1.91-3c-1.15,1.17-2.19,2.7-2.93,3.35.87-1.48.84-1.27,0-1,2.1-1.09,2.79-3.49,5-5l.82.91c3.1-2.43,4.37-5.42,8.11-8.84l-1.28,1c.13-.82,2.13-2.29,3.13-3.6.18.39,1-.25,1.66-.58-.27-.14,2.59-2.65,2.36-3.52l1.94-1.27c3-2.8,2.46-4.12,5.29-6.85-.53,1.14.91,0-.71,2.15.92-.94,1.79-1.74,1.61-1.94.7-.39,2.17-3,3.26-3.59a4,4,0,0,1,1.16-2c.17-.06.13.13.13.13s1.43-1.83.23-1.2c3.64-2.09,7.82-8.16,11-10,1.91-2.14,4.23-4.7,6-6.59,0,.19.12.13-.25.46,2.73-2.35.82-2.28,3.92-5,1.85-1.11-1.29,1.77-.24,1,1.2.38,3.32-3.65,5.69-5.17l-.41.52c1.72-1.25,3.26-4,5.7-6.4,0,0,0,.19.1.13a69.6,69.6,0,0,1,6.4-7.85c-.43,1-.89,1.22-.17,1.05,1-1.1-.77-.14,1.21-2.34.82-.54,2.44-1.94,2.93-1.86l-1.91,2c1.38-.65,2.48-2.61,3.57-3.61l0,.3c2.89-3.14,2.53-3.57,5.75-6.85l-.45.23c1.36-2.18,1.67-1.3,3.13-3.38L116,94c1.05-1.29,3.66-4.53,5.66-6.72-.91,1.46-3.18,4.1-4.5,5.81a49.64,49.64,0,0,0,4.24-4.84,12.62,12.62,0,0,1-1.42,1.61,41.45,41.45,0,0,1,5.1-6.1c.24,1,6.07-6,8.17-7.25,3.78-4.39,8-8.22,12.61-13.13-2,1.37,1.35-1.43.69-1.49a19.74,19.74,0,0,1,1.61-1.65L151.63,57c.88-.72-1,1.15-.78,1.12,2.4-2.46,1.14-.9,2.8-2.46-.44.22.65-1,2.05-2.4l-2.06,1.84c3.15-3.63,3.14-2.73,6.32-6.39l-1,1.2c1.66-1.85,6.34-6.61,7.8-8.58.34-.28.82-.63.08.18,4.15-4.24,9-9.72,12.31-12.89l-.25.39a29.19,29.19,0,0,1,2.26-2.43c0,.08-.25.38.11,0l1.25-1.4.33-.36c.1-.1.23-.27.27-.24a2.9,2.9,0,0,0-.3.42l.16-.14s0,.14,0,.19v.64c0,1.18.05,2.26.09,3.31.08,2.1.19,4.09.21,6.52-.27,0-.38,4.54-.45,6.82l0-.08c-.09,6.74.15,11.45.24,17.69-.41,3.87-.29,13.12-.65,19.35.09-1,.33.16.36,1.26-.11,1.46.27,4-.15,3.81l0-.52c-.43,1.1-.38,4.1-.43,6.45l.59.39a70.47,70.47,0,0,0-.42,10.75c0,3.67.14,7-.36,8.66.16,1.48.13,3.31.3,4.78l-.41-.08c-.17,4.1-.26,6.15-.23,11.22l-.3-1c-.08,2.86,1.24,3.61,1.26,6.25l-.69.79c0,5-.72,10-.09,15-.11-.08-.32-.23-.34-1,0,2.35-.57,9.08.47,8.23-.67.06-.09,5.15.21,7.84l-.5-.42a17.13,17.13,0,0,1,1,5.52c-.07.75-.4.66-.27-.34-.26,2.51.47,2,.21,5l-.32-1.13a8.41,8.41,0,0,0,.51,3.8c.2,1.62-.12,4.89-.57,5.27a6.05,6.05,0,0,1,.52,3.28c-.17.21-.28-.35-.33-.63-.33,4.31.59,6.41.11,9.38-.16.06-.24.26-.29.5,0-3.43,0-6.19.06-5.93-.46,0-.53,2.77-1.17.57.35,2.22,1.1,6,.9,8.72a1.38,1.38,0,0,1-.15.36l-.05-.28a7.83,7.83,0,0,0,.08,1.71c-.07.86-.12,1.41-.13,2.23-.37.32-.18,3.17-.19,4.55.48-.11.41,1.69.81,0,0,.22-.06-.26-.08-1.18a5.66,5.66,0,0,0-.05-.59l0,.09,0-3.43a8.8,8.8,0,0,1,.2,3.76c.31.71.64,1.49.79,1.93-.67,1.89-1,5.53-1.42,6,.29,4.21.24,9.93,1.1,12.58a2.83,2.83,0,0,1-.37,1.83,16.85,16.85,0,0,0-.2-1.89c.23,2.4.13,7.1.71,7.67-.25,3-.54-1.7-.43,2.45l-.18-.56a50.14,50.14,0,0,0,.3,10.83,52,52,0,0,1,.11,11.49,3.35,3.35,0,0,1,.17-1.07c-.2,5.16,0,10.47,0,15.77s.15,10.58-.07,15.67a24.68,24.68,0,0,0,.34,5l-.27.63.34,3c.21,4.28-.51,7.42-.09,12.84l.13-.7c0,1.95.12,6.17,0,5.84a5.84,5.84,0,0,1,.07,1.4l-.08.06.18,4.78c0,3.71-.28-.58-.18,4.83.08,2,.23,5.73.23,5s0-2.07,0-2.13l0,1.84c.11.33.14,1.75.35-2.77v-3.15l.1-1-.06,2.65a30.7,30.7,0,0,0,0-3.52,10.38,10.38,0,0,0,.13-1.32l-.13-3.09c.1-.37.14,1.39.24-.69-.07-1.45-.23,1.39-.26-1a12.23,12.23,0,0,0,.16-2.83c.07-.25.11.13.12.83,0-1.57.06-4.16-.09-5,.21-1.57,0-5.31.36-5.15-.07-.49-.21-2.77-.21-4.21.39,2.64.11-5.41.6-4.71-.39-2,0-7.06-.26-10.51a3.38,3.38,0,0,1,.08.88c.07-1.95.23-2.51.35-3.76-.42-.25-.48-3.28-.74-4.92.46-2.39.51,1.45.93.7-.36.12-.3-4.15-.62-3.33a7.07,7.07,0,0,1,.56-2.51c-.59-.32-.07-1.7-.43-3.21.33-2.64.59-.68.44-3.58C185.66,261.36,185.84,263.94,185.84,263.94Zm-.72-69h0l0,1.42Zm0-5.8c0,.71,0,1.59,0,2.52-.17.2-.35,0-.34-.6C184.88,191.36,185,190,185.13,189.13Zm-3.4,12.27c-.07-.92,0-1.23.12-1.35l.06,1.61s0,.08.06.11A.89.89,0,0,1,181.72,201.4Z"/><path class="cls-3" d="M182.37,203c0,.13,0,.21,0,.38,0-.19.08-.37.11-.55l-.15-.32Z"/><path class="cls-3" d="M92.06,258.44l-.09-.08a1.06,1.06,0,0,1,.16.21A.9.9,0,0,1,92.06,258.44Z"/><polygon class="cls-3" points="185.57 109.05 185.47 109.06 185.56 109.56 185.57 109.05"/><path class="cls-3" d="M116.67,278.85a1.2,1.2,0,0,0,.27.33A1.58,1.58,0,0,0,116.67,278.85Z"/><path class="cls-3" d="M127.7,287.14l1.49,1.26C128.56,287.85,128.09,287.45,127.7,287.14Z"/><path class="cls-3" d="M136.13,293.59a.49.49,0,0,0,.25,0h-.25Z"/><path class="cls-3" d="M19.23,188.45c.1-.1.19-.21.27-.31C20.08,187.37,19.66,187.87,19.23,188.45Z"/><path class="cls-3" d="M41.43,222.39c-.49-.23-1-.46-1.46-.74C40.66,222.22,41.21,222.65,41.43,222.39Z"/><path class="cls-3" d="M58.07,148s0,0,0,0l.24-.25Z"/><path class="cls-3" d="M38.11,220.24A9.08,9.08,0,0,0,40,221.65,14,14,0,0,0,38.11,220.24Z"/><path class="cls-3" d="M173.17,320.84l.41.3s0,0,.06,0Z"/><path class="cls-3" d="M173.64,321.17l.47.32A5.33,5.33,0,0,0,173.64,321.17Z"/><path class="cls-3" d="M175.09,322.17l-1-.68C174.44,321.73,174.85,322,175.09,322.17Z"/><path class="cls-3" d="M161.87,312.5l-.17,0C161.77,312.5,161.83,312.52,161.87,312.5Z"/><path class="cls-3" d="M158.41,310c.81.62,2,1.64,3.14,2.44l.14,0C161.09,312.16,159.27,310.47,158.41,310Z"/><path class="cls-3" d="M144.84,298.4l2.79,2.23c-.43-.46-1-1.08.31-.11C144.57,297.52,148.54,301.28,144.84,298.4Z"/><path class="cls-3" d="M136.13,291.53c1.56,1.12.09-.16.22-.16C135.32,290.72,135.06,290.57,136.13,291.53Z"/><path class="cls-3" d="M72.37,243l.45-.28C71.6,241.88,72.69,242.86,72.37,243Z"/><polygon class="cls-3" points="58.56 235.87 59.52 236.99 60.36 237.02 58.56 235.87"/><polygon class="cls-3" points="53.56 227.47 54.12 227.8 52.04 226.46 53.56 227.47"/><path class="cls-3" d="M72.28,140.11l-.72-.08C70.93,140.82,71.25,141.43,72.28,140.11Z"/><path class="cls-3" d="M112.19,97.88a8,8,0,0,0,2.37-2.26C113.64,96.54,112.61,97.36,112.19,97.88Z"/><polygon class="cls-3" points="182.36 93.64 182.26 92.47 182.32 94.67 182.36 93.64"/><polygon class="cls-2" points="343.04 252 183.81 23 183.81 328.33 343.04 252"/></svg>