<svg id="Layer_1" data-name="Layer 1" xmlns="http://www.w3.org/2000/svg" viewBox="0 0 1784 2040"><defs><style>.cls-1{fill:#fff;}</style></defs><title>shards-map</title><path d="M882.93,842.93c1.61-2.06,3.32-4,5.07-5.93s3.54-3.79,5.37-5.63l-.19.27q1-2.25,2.15-4.43l2.28-4.38.14-.27H898c2,.1,4,.15,6,.11l-.29.18c1.63-3.68,3-7.51,4.5-11.22l.65-1.56.88,1.5,2.61,4.44c.86,1.49,1.75,3,2.57,4.46l-.24-.29c2.35,2,4.62,4.05,6.89,6.13l.2.18.06.19q.89,2.79,1.71,5.61t1.55,5.66l-.19.07q-1.29-2.64-2.45-5.34t-2.29-5.39l.26.37c-2.4-1.92-4.79-3.85-7.11-5.87l-.14-.13-.09-.17c-.84-1.49-1.62-3-2.43-4.54l-2.39-4.56,1.53-.06c-1.78,3.61-3.79,7.13-5.49,10.77l-.09.19H904c-2,0-4,0-6,.11l.39-.25-1.72,4.62q-.85,2.32-1.85,4.57l-.07.15-.12.12q-2.76,2.74-5.63,5.37c-1.92,1.75-3.87,3.46-5.93,5.07Z"/><path d="M971.53,788.6c-1.78.71-3.57,1.37-5.37,2s-3.62,1.18-5.44,1.73l.62-.81c0,1.67.08,3.33.05,5v.35l-.22.25c-1.34,1.5-2.77,2.9-4.2,4.32l-2.14,2.13c-.72.71-1.4,1.44-2.09,2.17l.06-.11c-.53,1.49-1,3-1.48,4.51s-.86,3-1.29,4.57l-.1.36-.43,0c-2.67.16-5.33.3-8,.35l.7-.32c-2,2.36-3.87,4.78-5.88,7.1l-.32.37h-.49c-1.67,0-3.33,0-5-.07l.9-.55q-1.59,3-3.23,5.88l-.53.94L927,828l-2.81-3.19c-.47-.53-.92-1.08-1.38-1.62s-.91-1.09-1.36-1.64l.14-.14c.56.44,1.1.9,1.64,1.36s1.09.91,1.62,1.38L928,827l-1.19.19q1.35-3.08,2.77-6.12l.25-.55h.64c1.67,0,3.33-.08,5-.07l-.81.37c2-2.35,4.08-4.6,6.12-6.9l.29-.33h.41c2.67.05,5.33.19,8,.35l-.53.38c.57-1.48,1.17-2.94,1.71-4.43s1-3,1.52-4.49l0-.06,0-.06c.65-.77,1.29-1.54,1.91-2.33l1.86-2.37c1.24-1.58,2.47-3.17,3.8-4.68l-.23.59c0-1.67,0-3.33.05-5v-.66l.61-.15c1.85-.45,3.7-.88,5.56-1.27s3.74-.73,5.63-1Z"/><path d="M920.6,821.38a.4.4,0,0,0-.09-.33c-1.74-2.34-1-5.44-3.22-7.64a9.2,9.2,0,0,0-7.62-2.32.51.51,0,0,0-.43.75c.69,1.14,1.41,2.3,2.22,3.38a3.6,3.6,0,0,0,1.12,2.46,1.5,1.5,0,0,0,.57,1.36,1.44,1.44,0,0,0,1.2,1.68,1.19,1.19,0,0,0,.31,1.64,8.94,8.94,0,0,0,2.52,1.29l.35.42a1.34,1.34,0,0,0,.5.54,1.14,1.14,0,0,0,.77.25,3.72,3.72,0,0,0,.49.71,1.51,1.51,0,0,0,2.51-.66A3.53,3.53,0,0,0,920.6,821.38Z"/><path d="M933.5,841.5v-4l2-5v-11l-6,13-3,7s5,10,2,13,5-4,5-4Z"/><polygon points="941 867 951 852 965 845 956 833 955 826 950 819 950 832 947 836 947 848 941 867"/><path d="M976,789l5,10,4,9,9,3s12,21,14,24-16-13-16-13l7,11,9,28s-20-25-21-20-3-13-3-13-13-12-10-12-5-11-5-11l8,7-2-13-3-6Z"/><path d="M1036.92,846.06a90.08,90.08,0,0,1-7.49-8.34c-1.16-1.47-2.31-2.94-3.38-4.48s-2-3.15-3-4.79c-.46-.82-.9-1.65-1.32-2.5a18,18,0,0,1-1.11-2.65,3.12,3.12,0,0,1-.14-.76,1.25,1.25,0,0,1,.06-.46c0-.16.24-.36.23-.37.19-.18,0-.61-.19-1a9.24,9.24,0,0,0-1.84-2,78.73,78.73,0,0,0-9.27-6l-.19-.11-.13-.21-3.79-6.37-1.83-3.23-.88-1.63a1.64,1.64,0,0,0-.78-.83,3.67,3.67,0,0,0-2.76.5,20.47,20.47,0,0,0-3,1.89c-1,.72-1.92,1.5-2.84,2.31s-1.84,1.64-2.75,2.48l-.15-.13a35.33,35.33,0,0,1,4.87-5.71,17.71,17.71,0,0,1,3.05-2.37,7.78,7.78,0,0,1,1.9-.84,3.94,3.94,0,0,1,2.41,0,3.66,3.66,0,0,1,1.85,1.66l.94,1.6,1.82,3.24,3.52,6.55-.31-.32a63.76,63.76,0,0,1,8.82,7,12,12,0,0,1,1.87,2.19,2.67,2.67,0,0,1,.31.73,1.11,1.11,0,0,1-.15.91c-.13.19-.12.14-.14.22a.66.66,0,0,0,0,.23,2.53,2.53,0,0,0,.13.6,20.76,20.76,0,0,0,2.84,4.67c1.09,1.49,2.26,2.93,3.37,4.42l3.27,4.5c2.16,3,4.31,6.06,6.31,9.22Z"/><path d="M1001.5,816.5s-6-18,2-17l27.61,39.62-12.61-9.62s-10,1-12-10-2,3-2,3Z"/><polygon points="969 823 973 832 978 838 970 832 969 823"/><polygon points="958 819 966 810 966 807 956 819 958 819"/><path d="M782.95,769.91c2.08-1.47,4.21-2.87,6.31-4.31l6.39-4.19-.28.35c1.07-3.2,2.2-6.38,3.33-9.56s2.28-6.35,3.48-9.51l0-.1,0-.07c2.37-3.64,4.85-7.22,7.28-10.82l.12-.17.17-.05,3-.91.31-.09.18.24q1,1.28,1.94,2.55l2,2.53-.48,0,3-3,3-3-.1.19c.33-2.33.61-4.67.88-7l.06-.54.55.17,9.08,2.76.48.15V726l.08,4-1.06-.76c2.49-.88,5-1.77,7.46-2.62l-.63.88a30.19,30.19,0,0,1,.44-5.21,11.68,11.68,0,0,1,.77-2.65,4.66,4.66,0,0,1,.88-1.35,2.62,2.62,0,0,1,1.84-.83l-1,.91a22,22,0,0,1,.91-4.15,10.41,10.41,0,0,1,.92-2.06,5.1,5.1,0,0,1,.8-1,2.85,2.85,0,0,1,1.39-.76,2.72,2.72,0,0,1,.87,0l.4.09.17,0c.08,0,.1,0,.05,0a.36.36,0,0,0-.24.16c-.05.1,0-.1,0-.33a5,5,0,0,0-.08-.82,19.58,19.58,0,0,0-1.12-3.63l-.18-.46.21-.39a22.38,22.38,0,0,1,1.53-2.52,11.17,11.17,0,0,1,2.06-2.3,3,3,0,0,1,1.85-.73,1.67,1.67,0,0,1,.62.11l.25.08h0a1.22,1.22,0,0,0,.36,0,10.35,10.35,0,0,0,2.4-.89c1.64-.79,3.24-1.75,4.84-2.7s3.17-2,4.71-3l.16-.11h.15a10.36,10.36,0,0,1,2.67.51,8,8,0,0,1,2.39,1.27,5.32,5.32,0,0,1,1.62,2.15,6.19,6.19,0,0,1,.42,2.6h-.2a6.16,6.16,0,0,0-.63-2.41,4.75,4.75,0,0,0-1.61-1.8,7.26,7.26,0,0,0-2.24-1,9.73,9.73,0,0,0-2.41-.31l.31-.1c-1.5,1.15-3,2.26-4.57,3.33a49,49,0,0,1-4.86,3,11.69,11.69,0,0,1-2.83,1.14,2.81,2.81,0,0,1-1,0l-.36-.11c-.12,0-.06,0-.09,0s0,0-.06,0a1.42,1.42,0,0,0-.67.38,15.72,15.72,0,0,0-2.93,4.27l0-.86a21.43,21.43,0,0,1,1.32,4.05,7.07,7.07,0,0,1,.14,1.18,2.69,2.69,0,0,1-.41,1.61,1.79,1.79,0,0,1-1.08.69,2.35,2.35,0,0,1-.95,0l-.41-.11h-.13c-.15,0-.52.32-.79.79a8.37,8.37,0,0,0-.72,1.63,23.06,23.06,0,0,0-.88,3.72l-.13.87-.89,0a.55.55,0,0,0-.39.2,2.7,2.7,0,0,0-.5.75,9.81,9.81,0,0,0-.67,2.18,28.41,28.41,0,0,0-.51,4.84l0,.68-.62.2c-2.51.82-5,1.59-7.54,2.38l-1.08.34,0-1.1.08-4,.49.68-8.92-3.24.61-.38c-.4,2.32-.78,4.65-1.12,7l0,.12-.08.08-3,3-3,3-.25.25-.23-.28-2-2.47q-1-1.24-2.06-2.45l.49.15-3,1.09.29-.22c-2.24,3.73-4.42,7.49-6.72,11.18l.08-.17c-1.14,3.18-2.32,6.34-3.52,9.49s-2.4,6.31-3.67,9.44l-.1.24-.19.11-6.61,3.81c-2.23,1.23-4.44,2.5-6.69,3.69Z"/><polygon points="851.5 714.5 852.5 700.5 849.62 702.14 851.5 714.5"/><polygon points="857 737 858 724 861 701 855 719 857 737"/><path d="M844,757l4-18,2-15-6,18a11.79,11.79,0,0,0-5,10c0,7-6-7-6-7l-9-4-3,4,4-1s9,13,9,8l8,10s2,5,4,3,1,9,1,9l10,17,3-8s-8-22-12-20Z"/><path d="M816,753s-3,11-7,12-7,2-7,2l7-5Z"/><path d="M813,771l-7,9,2,2S816,771,813,771Z"/><path d="M822,753v11l10,13,4,14a24.18,24.18,0,0,0,0-16s4-10-6-12Z"/><polygon points="856 749 858 764 862 769 856 749"/><path d="M868,698l6,3,4,19s5,3,5,12,14,13,14,13,17,0,17,17c0,0,15,13,16,13s-31-14-31-19l-14-13,12,19v12l9,17s-26-15-28-24-7-12-7-12l10,5s-10-29-7-30l-5,11-1-28,2-4Z"/><polygon points="833 740 830 730 824 723 833 726 833 740"/><polygon points="814 743 817 736 812 734 814 743"/><line class="cls-1" x1="840.88" y1="723" x2="847" y2="717"/><path d="M904,773l7,4-11-11S901,773,904,773Z"/><path d="M910,926s-3-30,1-32,1-22,0-22,0-15,0-15l13,5s4,12,0,15-4,17-4,17l-3,10-5,10Z"/><path d="M891,858l10,5v5l-1,2-1,21-3-3s-3,7-3,11S891,858,891,858Z"/><path d="M929,858l6,3v18s1,19-1,20-2,10-2,10l-1-26S926,868,929,858Z"/><polygon points="943 875 946 883 946 903 949 916 941 899 943 875"/><path d="M954,877v6l3,2s-1,25,0,28-3-6-3-6v-4l-5-6S947,871,954,877Z"/><polygon points="872 895 878 879 876 869 872 895"/><polygon points="924 903 926 895 925 882 922 885 924 903"/><polygon points="938 917 935 909 935 905 932 909 938 917"/><polygon points="888 909 891 907 890 895 888 906 888 909"/><path d="M856.9,908c-.09-.75-.16-1.5-.22-2.25s-.14-1.5-.18-2.25c-.11-1.5-.17-3-.24-4.5v-.28l.23-.25c1.29-1.38,2.58-2.75,3.9-4.1l-.26.63c0-1,0-2,0-3s0-2,.11-3l.35-6,0-.36.31-.06q2-.39,4-.88l-.23.3c0-1.08,0-2.17,0-3.25s-.06-2.17-.12-3.25l-.33-6.5,0-.41.4-.27c1.62-1.08,3.27-2.11,4.91-3.14l4.94-3.1,1.13-.71.43,1.28,1,3-2-.14c1.37-2.65,2.76-5.29,4.21-7.9l.27-.48.48,0c1.83.07,3.67.19,5.5.3s3.67.26,5.5.44v.2c-1.83.18-3.67.34-5.5.44s-3.67.23-5.5.3l.75-.46c-1.22,2.73-2.49,5.42-3.79,8.1l-1.15,2.37-.83-2.51-1-3,1.56.58-5.06,2.9c-1.69,1-3.37,1.94-5.09,2.86l.38-.67-.33,6.5q-.09,1.63-.12,3.25c0,1.08,0,2.17,0,3.25v.24l-.24.06q-2,.51-4,1.12l.33-.42.35,6c.07,1,.08,2,.11,3s0,2,0,3v.38l-.25.25c-1.34,1.32-2.72,2.62-4.1,3.9l.22-.53c-.07,1.5-.14,3-.24,4.5,0,.75-.12,1.5-.18,2.25s-.13,1.5-.22,2.25Z"/><path d="M901.45,862.41a3.82,3.82,0,0,1,.9-1.33,3.14,3.14,0,0,1,1.22-.8,12.15,12.15,0,0,0,1.51-.31,2.88,2.88,0,0,0,1.13-.94,5.58,5.58,0,0,1,1-1.09,6.58,6.58,0,0,1,1.19-.86,6.09,6.09,0,0,1,3-.67l.1.17a6.1,6.1,0,0,1-2,2.33,6.58,6.58,0,0,1-1.31.64,5.58,5.58,0,0,1-1.45.41,2.88,2.88,0,0,0-1.37.56,12.15,12.15,0,0,0-1,1.19,3.15,3.15,0,0,1-1.28.7,3.82,3.82,0,0,1-1.6.17Z"/><path d="M924.42,862.44a1.93,1.93,0,0,1,0-1,1,1,0,0,1,.46-.66c.27-.13.69-.13.9-.31a1,1,0,0,0,.32-.77,2.11,2.11,0,0,1,.19-.87,2,2,0,0,1,.4-.7,2.53,2.53,0,0,1,1.76-.65l.16.13a2.53,2.53,0,0,1-.24,1.85,2,2,0,0,1-.6.55,2.11,2.11,0,0,1-.81.38,1,1,0,0,0-.68.48c-.12.25,0,.66-.1.94a1,1,0,0,1-.54.59,1.93,1.93,0,0,1-1,.2Z"/><path d="M935.56,860.42a7.34,7.34,0,0,1,2.14.7,7.42,7.42,0,0,1,1.8,1.19c.52.51.92,1.17,1.45,1.67a5.86,5.86,0,0,0,1.84,1.12l.12,0,.09.36a13.27,13.27,0,0,1,.43,2.25,18,18,0,0,1,.14,2.25,14,14,0,0,1-.27,2.25,10.21,10.21,0,0,1-.7,2.25h-.2a10.21,10.21,0,0,1-.7-2.25,14,14,0,0,1-.27-2.25,18,18,0,0,1,.14-2.25,13.27,13.27,0,0,1,.43-2.25l.21.41a5.86,5.86,0,0,0-1.66-1.38c-.64-.34-1.4-.51-2-.83a7.42,7.42,0,0,1-1.7-1.31,7.34,7.34,0,0,1-1.36-1.8Z"/><path d="M837.11,813.45a16.69,16.69,0,0,1,1.74-2.6,29,29,0,0,1,2-2.31l-.19.27a25.92,25.92,0,0,1,2-3.36l.18-.28.21,0a13,13,0,0,0,2.37.11l-.29.18c.63-1.46.93-3.07,1.48-4.57l.56-1.54,1,1.48c.75,1.14,1.48,2.28,2.16,3.45l-.24-.29a35.6,35.6,0,0,1,2.65,2.51l.22.23,0,.15a28.5,28.5,0,0,1,.83,4.61l-.19.07a28.49,28.49,0,0,1-2.32-4.07l.26.37a35.6,35.6,0,0,1-2.88-2.23l-.16-.14-.08-.15c-.63-1.2-1.21-2.43-1.79-3.66l1.53-.06c-.77,1.4-1.78,2.69-2.47,4.12l-.09.19h-.19a13,13,0,0,0-2.37.11l.39-.25a25.92,25.92,0,0,1-1.15,3.75l-.07.16-.11.11a29,29,0,0,1-2.31,2,16.68,16.68,0,0,1-2.6,1.74Z"/><path d="M872.16,792.1a15.93,15.93,0,0,1-2,1.07c-.69.31-1.4.58-2.11.83l.62-.81c0,.66.07,1.32.06,2v.37l-.22.23a16.16,16.16,0,0,1-1.78,1.6,20.39,20.39,0,0,0-1.81,1.57l.06-.11a18.83,18.83,0,0,0-1,3.63l-.05.31-.48.07a31.47,31.47,0,0,1-3.16.36l.7-.32c-.74,1-1.46,1.95-2.25,2.87l-.32.37h-.49c-.66,0-1.32,0-2-.07l.9-.55c-.45.76-.92,1.51-1.42,2.25l-.63.94-.56-.74a25.63,25.63,0,0,1-1.91-2.82l.14-.14a25.61,25.61,0,0,1,2.82,1.91l-1.19.19c.29-.84.62-1.67,1-2.48l.21-.51.69,0c.66,0,1.32-.07,2-.07l-.82.37c.78-.93,1.65-1.78,2.49-2.66l.33-.34.37,0a31.43,31.43,0,0,1,3.16.36l-.53.38a18.83,18.83,0,0,0,1.42-3.48v0l.05-.06a20.37,20.37,0,0,0,1.35-2,16.17,16.17,0,0,1,1.38-2l-.23.6c0-.66,0-1.32.06-2l0-.69.59-.12c.74-.15,1.48-.27,2.24-.36a15.92,15.92,0,0,1,2.3-.11Z"/><path d="M852,805a.16.16,0,0,0,0-.13c-.69-.92-.4-2.15-1.27-3a3.63,3.63,0,0,0-3-.91.2.2,0,0,0-.17.3c.27.45.56.91.88,1.33a1.42,1.42,0,0,0,.44,1,.59.59,0,0,0,.22.54.57.57,0,0,0,.47.67.47.47,0,0,0,.12.65,3.53,3.53,0,0,0,1,.51l.14.17a.53.53,0,0,0,.2.21.45.45,0,0,0,.3.1,1.47,1.47,0,0,0,.19.28.6.6,0,0,0,1-.26A1.4,1.4,0,0,0,852,805Z"/><path d="M857.13,812.93v-1.58l.79-2V805l-2.37,5.13-1.18,2.76s2,3.95.79,5.13,2-1.58,2-1.58Z"/><polygon points="860.09 823 864.04 817.08 869.57 814.31 866.01 809.57 865.62 806.81 863.64 804.04 863.64 809.18 862.46 810.76 862.46 815.5 860.09 823"/><path d="M873.91,792.2l2,3.95,1.58,3.55,3.55,1.18s4.74,8.29,5.53,9.48-6.32-5.13-6.32-5.13l2.76,4.34,3.55,11.06s-7.9-9.87-8.29-7.9-1.18-5.13-1.18-5.13-5.13-4.74-3.95-4.74-2-4.34-2-4.34l3.16,2.76-.79-5.13-1.18-2.37Z"/><path d="M897.92,814.77a17.34,17.34,0,0,1-3.31-3,20,20,0,0,1-1.37-1.76,13.13,13.13,0,0,1-1-2,20.68,20.68,0,0,1-.83-2.18,1.47,1.47,0,0,1-.05-.35.79.79,0,0,1,0-.25,1.78,1.78,0,0,1,.11-.19,1,1,0,0,0-.09-.18,3.07,3.07,0,0,0-.71-.71,37.92,37.92,0,0,0-3.8-2.08l-.16-.09-.15-.24c-.53-.82-1.06-1.64-1.58-2.46-.25-.42-.49-.84-.72-1.27l-.34-.65,0-.08h0s0,0,.05,0-.27-.06-.62.1a7.54,7.54,0,0,0-1.17.6c-.79.49-1.59,1.05-2.43,1.61l-.15-.13a10.34,10.34,0,0,1,1.7-2.54,6.6,6.6,0,0,1,1.23-1.08,2,2,0,0,1,.4-.23,2.22,2.22,0,0,1,.47-.19,2.07,2.07,0,0,1,1.3,0,1.72,1.72,0,0,1,.66.4l.25.27.11.14.05.08.38.63c.25.42.49.85.72,1.28.45.87.88,1.75,1.3,2.64l-.31-.32a22.75,22.75,0,0,1,3.35,3.07,6,6,0,0,1,.75.93,1.24,1.24,0,0,1,.14.34.63.63,0,0,1-.09.5c-.09.12,0,.07,0,0s0,0,0,0a1,1,0,0,0,.05.19,6.44,6.44,0,0,0,1.25,1.7c.5.53,1,1.07,1.45,1.63s.84,1.18,1.26,1.78a23,23,0,0,1,2.13,3.91Z"/><path d="M884,803.06s-2.37-7.11.79-6.71L895.68,812l-5-3.8a4.44,4.44,0,0,1-4.74-3.95c-.79-4.34-.79,1.18-.79,1.18Z"/><polygon points="871.15 805.62 872.73 809.18 874.7 811.55 871.54 809.18 871.15 805.62"/><polygon points="866.8 804.04 869.96 800.49 869.96 799.31 866.01 804.04 866.8 804.04"/><path d="M822.93,1030.93c1.61-2.06,3.32-4,5.07-5.93s3.54-3.79,5.37-5.63l-.19.27q1-2.25,2.15-4.43l2.28-4.38.14-.27H838c2,.1,4,.15,6,.11l-.29.18c1.63-3.68,3-7.51,4.5-11.22l.65-1.56.88,1.5,2.61,4.44c.86,1.49,1.75,3,2.57,4.46l-.24-.29c2.35,2,4.62,4.05,6.89,6.13l.2.18.06.19q.89,2.79,1.71,5.61t1.55,5.66l-.19.07q-1.29-2.64-2.45-5.34t-2.29-5.39l.26.37c-2.4-1.92-4.79-3.85-7.11-5.87l-.14-.13-.09-.17c-.84-1.49-1.62-3-2.43-4.54l-2.39-4.56,1.53-.06c-1.78,3.61-3.79,7.13-5.49,10.77l-.09.19H844c-2,0-4,0-6,.11l.39-.25-1.72,4.62q-.85,2.32-1.85,4.57l-.07.15-.12.12q-2.76,2.74-5.63,5.37c-1.92,1.75-3.87,3.46-5.93,5.07Z"/><path d="M911.53,976.6c-1.78.71-3.57,1.37-5.37,2s-3.62,1.18-5.44,1.73l.62-.81c0,1.67.08,3.33.05,5v.35l-.22.25c-1.34,1.5-2.77,2.9-4.2,4.32l-2.14,2.13c-.72.71-1.4,1.44-2.09,2.17l.06-.11c-.53,1.49-1,3-1.48,4.51s-.86,3-1.29,4.57l-.1.36-.43,0c-2.67.16-5.33.3-8,.35l.7-.32c-2,2.36-3.87,4.78-5.88,7.1l-.32.37h-.49c-1.67,0-3.33,0-5-.07l.9-.55q-1.59,3-3.23,5.88l-.53.94L867,1016l-2.81-3.19c-.47-.53-.92-1.08-1.38-1.62s-.91-1.09-1.36-1.64l.14-.14c.56.44,1.1.9,1.64,1.36s1.09.91,1.62,1.38L868,1015l-1.19.19q1.35-3.08,2.77-6.12l.25-.55h.64c1.67,0,3.33-.08,5-.07l-.81.37c2-2.35,4.08-4.6,6.12-6.9l.29-.33h.41c2.67.05,5.33.19,8,.35l-.53.38c.57-1.48,1.17-2.94,1.71-4.43s1-3,1.52-4.49l0-.06,0-.06c.65-.77,1.29-1.54,1.91-2.33l1.86-2.37c1.24-1.58,2.47-3.17,3.8-4.68l-.23.59c0-1.67,0-3.33.05-5v-.66l.61-.15c1.85-.45,3.7-.88,5.56-1.27s3.74-.73,5.63-1Z"/><path d="M860.6,1009.38a.4.4,0,0,0-.09-.33c-1.74-2.34-1-5.44-3.22-7.64a9.2,9.2,0,0,0-7.62-2.32.51.51,0,0,0-.43.75c.69,1.14,1.41,2.3,2.22,3.38a3.6,3.6,0,0,0,1.12,2.46,1.5,1.5,0,0,0,.57,1.36,1.44,1.44,0,0,0,1.2,1.68,1.19,1.19,0,0,0,.31,1.64,8.94,8.94,0,0,0,2.52,1.29l.35.42a1.34,1.34,0,0,0,.5.54,1.14,1.14,0,0,0,.77.25,3.72,3.72,0,0,0,.49.71,1.51,1.51,0,0,0,2.51-.66A3.53,3.53,0,0,0,860.6,1009.38Z"/><path d="M873.5,1029.5v-4l2-5v-11l-6,13-3,7s5,10,2,13,5-4,5-4Z"/><polygon points="881 1055 891 1040 905 1033 896 1021 895 1014 890 1007 890 1020 887 1024 887 1036 881 1055"/><path d="M916,977l5,10,4,9,9,3s12,21,14,24-16-13-16-13l7,11,9,28s-20-25-21-20-3-13-3-13-13-12-10-12-5-11-5-11l8,7-2-13-3-6Z"/><path d="M976.92,1034.06a90.08,90.08,0,0,1-7.49-8.34c-1.16-1.47-2.31-2.94-3.38-4.48s-2-3.15-3-4.79c-.46-.82-.9-1.65-1.32-2.5a18,18,0,0,1-1.11-2.65,3.12,3.12,0,0,1-.14-.76,1.25,1.25,0,0,1,.06-.46c0-.16.24-.36.23-.37.19-.18,0-.61-.19-1a9.24,9.24,0,0,0-1.84-2,78.73,78.73,0,0,0-9.27-6l-.19-.11-.13-.21-3.79-6.37-1.83-3.23-.88-1.63a1.64,1.64,0,0,0-.78-.83,3.67,3.67,0,0,0-2.76.5,20.47,20.47,0,0,0-3,1.89c-1,.72-1.92,1.5-2.84,2.31s-1.84,1.64-2.75,2.48l-.15-.13a35.33,35.33,0,0,1,4.87-5.71,17.71,17.71,0,0,1,3.05-2.37,7.78,7.78,0,0,1,1.9-.84,3.94,3.94,0,0,1,2.41,0,3.66,3.66,0,0,1,1.85,1.66l.94,1.6,1.82,3.24,3.52,6.55-.31-.32a63.76,63.76,0,0,1,8.82,7,12,12,0,0,1,1.87,2.19,2.67,2.67,0,0,1,.31.73,1.11,1.11,0,0,1-.15.91c-.13.19-.12.14-.14.22a.66.66,0,0,0,0,.23,2.53,2.53,0,0,0,.13.6,20.76,20.76,0,0,0,2.84,4.67c1.09,1.49,2.26,2.93,3.37,4.42l3.27,4.5c2.16,3,4.31,6.06,6.31,9.22Z"/><path d="M941.5,1004.5s-6-18,2-17l27.61,39.62-12.61-9.62s-10,1-12-10-2,3-2,3Z"/><polygon points="909 1011 913 1020 918 1026 910 1020 909 1011"/><polygon points="898 1007 906 998 906 995 896 1007 898 1007"/><path d="M925.11,981.45a16.69,16.69,0,0,1,1.74-2.6,29,29,0,0,1,2-2.31l-.19.27a25.92,25.92,0,0,1,2-3.36l.18-.28.21,0a13,13,0,0,0,2.37.11l-.29.18c.63-1.46.93-3.07,1.48-4.57l.56-1.54,1,1.48c.75,1.14,1.48,2.28,2.16,3.45l-.24-.29a35.6,35.6,0,0,1,2.65,2.51l.22.23,0,.15a28.5,28.5,0,0,1,.83,4.61l-.19.07a28.49,28.49,0,0,1-2.32-4.07l.26.37a35.6,35.6,0,0,1-2.88-2.23l-.16-.14-.08-.15c-.63-1.2-1.21-2.43-1.79-3.66l1.53-.06c-.77,1.4-1.78,2.69-2.47,4.12l-.09.19h-.19a13,13,0,0,0-2.37.11l.39-.25a25.92,25.92,0,0,1-1.15,3.75l-.07.16-.11.11a29,29,0,0,1-2.31,2,16.68,16.68,0,0,1-2.6,1.74Z"/><path d="M960.16,960.1a15.93,15.93,0,0,1-2,1.07c-.69.31-1.4.58-2.11.83l.62-.81c0,.66.07,1.32.06,2v.37l-.22.23a16.16,16.16,0,0,1-1.78,1.6,20.39,20.39,0,0,0-1.81,1.57l.06-.11a18.83,18.83,0,0,0-1,3.63l-.05.31-.48.07a31.47,31.47,0,0,1-3.16.36l.7-.32c-.74,1-1.46,1.95-2.25,2.87l-.32.37h-.49c-.66,0-1.32,0-2-.07l.9-.55c-.45.76-.92,1.51-1.42,2.25l-.63.94-.56-.74a25.63,25.63,0,0,1-1.91-2.82l.14-.14a25.61,25.61,0,0,1,2.82,1.91l-1.19.19c.29-.84.62-1.67,1-2.48l.21-.51.69,0c.66,0,1.32-.07,2-.07l-.82.37c.78-.93,1.65-1.78,2.49-2.66l.33-.34.37,0a31.43,31.43,0,0,1,3.16.36l-.53.38a18.83,18.83,0,0,0,1.42-3.48v0l.05-.06a20.37,20.37,0,0,0,1.35-2,16.17,16.17,0,0,1,1.38-2l-.23.6c0-.66,0-1.32.06-2l0-.69.59-.12c.74-.15,1.48-.27,2.24-.36a15.92,15.92,0,0,1,2.3-.11Z"/><path d="M940,973a.16.16,0,0,0,0-.13c-.69-.92-.4-2.15-1.27-3a3.63,3.63,0,0,0-3-.91.2.2,0,0,0-.17.3c.27.45.56.91.88,1.33a1.42,1.42,0,0,0,.44,1,.59.59,0,0,0,.22.54.57.57,0,0,0,.47.67.47.47,0,0,0,.12.65,3.53,3.53,0,0,0,1,.51l.14.17a.53.53,0,0,0,.2.21.45.45,0,0,0,.3.1,1.47,1.47,0,0,0,.19.28.6.6,0,0,0,1-.26A1.4,1.4,0,0,0,940,973Z"/><path d="M945.13,980.93v-1.58l.79-2V973l-2.37,5.13-1.18,2.76s2,3.95.79,5.13,2-1.58,2-1.58Z"/><polygon points="948.09 991 952.04 985.08 957.57 982.31 954.01 977.57 953.62 974.81 951.64 972.04 951.64 977.18 950.46 978.76 950.46 983.5 948.09 991"/><path d="M961.91,960.2l2,3.95,1.58,3.55,3.55,1.18s4.74,8.29,5.53,9.48-6.32-5.13-6.32-5.13l2.76,4.34,3.55,11.06s-7.9-9.87-8.29-7.9-1.18-5.13-1.18-5.13-5.13-4.74-3.95-4.74-2-4.34-2-4.34l3.16,2.76-.79-5.13-1.18-2.37Z"/><path d="M985.92,982.77a17.34,17.34,0,0,1-3.31-3,20,20,0,0,1-1.37-1.76,13.13,13.13,0,0,1-1-2,20.68,20.68,0,0,1-.83-2.18,1.47,1.47,0,0,1-.05-.35.79.79,0,0,1,0-.25,1.78,1.78,0,0,1,.11-.19,1,1,0,0,0-.09-.18,3.07,3.07,0,0,0-.71-.71,37.92,37.92,0,0,0-3.8-2.08l-.16-.09-.15-.24c-.53-.82-1.06-1.64-1.58-2.46-.25-.42-.49-.84-.72-1.27l-.34-.65,0-.08h0s0,0,.05,0-.27-.06-.62.1a7.54,7.54,0,0,0-1.17.6c-.79.49-1.59,1.05-2.43,1.61l-.15-.13a10.34,10.34,0,0,1,1.7-2.54,6.6,6.6,0,0,1,1.23-1.08,2,2,0,0,1,.4-.23,2.22,2.22,0,0,1,.47-.19,2.07,2.07,0,0,1,1.3,0,1.72,1.72,0,0,1,.66.4l.25.27.11.14.05.08.38.63c.25.42.49.85.72,1.28.45.87.88,1.75,1.3,2.64l-.31-.32a22.75,22.75,0,0,1,3.35,3.07,6,6,0,0,1,.75.93,1.24,1.24,0,0,1,.14.34.63.63,0,0,1-.09.5c-.09.12,0,.07,0,0s0,0,0,0a1,1,0,0,0,.05.19,6.44,6.44,0,0,0,1.25,1.7c.5.53,1,1.07,1.45,1.63s.84,1.18,1.26,1.78a23,23,0,0,1,2.13,3.91Z"/><path d="M972,971.06s-2.37-7.11.79-6.71L983.68,980l-5-3.8a4.44,4.44,0,0,1-4.74-3.95c-.79-4.34-.79,1.18-.79,1.18Z"/><polygon points="959.15 973.62 960.73 977.18 962.7 979.55 959.54 977.18 959.15 973.62"/><polygon points="954.8 972.04 957.96 968.49 957.96 967.31 954.01 972.04 954.8 972.04"/><path d="M874.11,966.45a16.69,16.69,0,0,1,1.74-2.6,29,29,0,0,1,2-2.31l-.19.27a25.92,25.92,0,0,1,2-3.36l.18-.28.21,0a13,13,0,0,0,2.37.11l-.29.18c.63-1.46.93-3.07,1.48-4.57l.56-1.54,1,1.48c.75,1.14,1.48,2.28,2.16,3.45l-.24-.29a35.6,35.6,0,0,1,2.65,2.51l.22.23,0,.15a28.5,28.5,0,0,1,.83,4.61l-.19.07a28.49,28.49,0,0,1-2.32-4.07l.26.37a35.6,35.6,0,0,1-2.88-2.23l-.16-.14-.08-.15c-.63-1.2-1.21-2.43-1.79-3.66l1.53-.06c-.77,1.4-1.78,2.69-2.47,4.12l-.09.19h-.19a13,13,0,0,0-2.37.11l.39-.25a25.92,25.92,0,0,1-1.15,3.75l-.07.16-.11.11a29,29,0,0,1-2.31,2,16.68,16.68,0,0,1-2.6,1.74Z"/><path d="M909.16,945.1a15.93,15.93,0,0,1-2,1.07c-.69.31-1.4.58-2.11.83l.62-.81c0,.66.07,1.32.06,2v.37l-.22.23a16.16,16.16,0,0,1-1.78,1.6,20.39,20.39,0,0,0-1.81,1.57l.06-.11a18.83,18.83,0,0,0-1,3.63l-.05.31-.48.07a31.47,31.47,0,0,1-3.16.36l.7-.32c-.74,1-1.46,1.95-2.25,2.87l-.32.37h-.49c-.66,0-1.32,0-2-.07l.9-.55c-.45.76-.92,1.51-1.42,2.25l-.63.94-.56-.74a25.63,25.63,0,0,1-1.91-2.82l.14-.14a25.61,25.61,0,0,1,2.82,1.91l-1.19.19c.29-.84.62-1.67,1-2.48l.21-.51.69,0c.66,0,1.32-.07,2-.07l-.82.37c.78-.93,1.65-1.78,2.49-2.66l.33-.34.37,0a31.43,31.43,0,0,1,3.16.36l-.53.38a18.83,18.83,0,0,0,1.42-3.48v0l.05-.06a20.37,20.37,0,0,0,1.35-2,16.17,16.17,0,0,1,1.38-2l-.23.6c0-.66,0-1.32.06-2l0-.69.59-.12c.74-.15,1.48-.27,2.24-.36a15.92,15.92,0,0,1,2.3-.11Z"/><path d="M889,958a.16.16,0,0,0,0-.13c-.69-.92-.4-2.15-1.27-3a3.63,3.63,0,0,0-3-.91.2.2,0,0,0-.17.3c.27.45.56.91.88,1.33a1.42,1.42,0,0,0,.44,1,.59.59,0,0,0,.22.54.57.57,0,0,0,.47.67.47.47,0,0,0,.12.65,3.53,3.53,0,0,0,1,.51l.14.17a.53.53,0,0,0,.2.21.45.45,0,0,0,.3.1,1.47,1.47,0,0,0,.19.28.6.6,0,0,0,1-.26A1.4,1.4,0,0,0,889,958Z"/><path d="M894.13,965.93v-1.58l.79-2V958l-2.37,5.13-1.18,2.76s2,3.95.79,5.13,2-1.58,2-1.58Z"/><polygon points="897.09 976 901.04 970.08 906.57 967.31 903.01 962.57 902.62 959.81 900.64 957.04 900.64 962.18 899.46 963.76 899.46 968.5 897.09 976"/><path d="M910.91,945.2l2,3.95,1.58,3.55,3.55,1.18s4.74,8.29,5.53,9.48-6.32-5.13-6.32-5.13l2.76,4.34,3.55,11.06s-7.9-9.87-8.29-7.9-1.18-5.13-1.18-5.13-5.13-4.74-3.95-4.74-2-4.34-2-4.34l3.16,2.76-.79-5.13-1.18-2.37Z"/><path d="M934.92,967.77a17.34,17.34,0,0,1-3.31-3,20,20,0,0,1-1.37-1.76,13.13,13.13,0,0,1-1-2,20.68,20.68,0,0,1-.83-2.18,1.47,1.47,0,0,1-.05-.35.79.79,0,0,1,0-.25,1.78,1.78,0,0,1,.11-.19,1,1,0,0,0-.09-.18,3.07,3.07,0,0,0-.71-.71,37.92,37.92,0,0,0-3.8-2.08l-.16-.09-.15-.24c-.53-.82-1.06-1.64-1.58-2.46-.25-.42-.49-.84-.72-1.27l-.34-.65,0-.08h0s0,0,.05,0-.27-.06-.62.1a7.54,7.54,0,0,0-1.17.6c-.79.49-1.59,1.05-2.43,1.61l-.15-.13a10.34,10.34,0,0,1,1.7-2.54,6.6,6.6,0,0,1,1.23-1.08,2,2,0,0,1,.4-.23,2.22,2.22,0,0,1,.47-.19,2.07,2.07,0,0,1,1.3,0,1.72,1.72,0,0,1,.66.4l.25.27.11.14.05.08.38.63c.25.42.49.85.72,1.28.45.87.88,1.75,1.3,2.64l-.31-.32a22.75,22.75,0,0,1,3.35,3.07,6,6,0,0,1,.75.93,1.24,1.24,0,0,1,.14.34.63.63,0,0,1-.09.5c-.09.12,0,.07,0,0s0,0,0,0a1,1,0,0,0,.05.19,6.44,6.44,0,0,0,1.25,1.7c.5.53,1,1.07,1.45,1.63s.84,1.18,1.26,1.78a23,23,0,0,1,2.13,3.91Z"/><path d="M921,956.06s-2.37-7.11.79-6.71L932.68,965l-5-3.8a4.44,4.44,0,0,1-4.74-3.95c-.79-4.34-.79,1.18-.79,1.18Z"/><polygon points="908.15 958.62 909.73 962.18 911.7 964.55 908.54 962.18 908.15 958.62"/><polygon points="903.8 957.04 906.96 953.49 906.96 952.31 903.01 957.04 903.8 957.04"/><path d="M907.95,1087.91c2.08-1.47,4.21-2.87,6.31-4.31l6.39-4.19-.28.35c1.07-3.2,2.2-6.38,3.33-9.56s2.28-6.35,3.48-9.51l0-.1,0-.07c2.37-3.64,4.85-7.22,7.28-10.82l.12-.17.17-.05,3-.91.31-.09.18.24q1,1.28,1.94,2.55l2,2.53-.48,0,3-3,3-3-.1.19c.33-2.33.61-4.67.88-7l.06-.54.55.17,9.08,2.76.48.15v.54l.08,4-1.06-.76c2.49-.88,5-1.77,7.46-2.62l-.63.88a30.19,30.19,0,0,1,.44-5.21,11.68,11.68,0,0,1,.77-2.65,4.66,4.66,0,0,1,.88-1.35,2.62,2.62,0,0,1,1.84-.83l-1,.91a22,22,0,0,1,.91-4.15,10.41,10.41,0,0,1,.92-2.06,5.1,5.1,0,0,1,.8-1,2.85,2.85,0,0,1,1.39-.76,2.72,2.72,0,0,1,.87,0l.4.09.17,0c.08,0,.1,0,.05,0a.36.36,0,0,0-.24.16c-.05.1,0-.1,0-.33a5,5,0,0,0-.08-.82,19.58,19.58,0,0,0-1.12-3.63l-.18-.46.21-.39a22.38,22.38,0,0,1,1.53-2.52,11.17,11.17,0,0,1,2.06-2.3,3,3,0,0,1,1.85-.73,1.67,1.67,0,0,1,.62.11l.25.08h0a1.22,1.22,0,0,0,.36,0,10.35,10.35,0,0,0,2.4-.89c1.64-.79,3.24-1.75,4.84-2.7s3.17-2,4.71-3l.16-.11h.15a10.36,10.36,0,0,1,2.67.51,8,8,0,0,1,2.39,1.27,5.32,5.32,0,0,1,1.62,2.15,6.19,6.19,0,0,1,.42,2.6h-.2a6.16,6.16,0,0,0-.63-2.41,4.75,4.75,0,0,0-1.61-1.8,7.26,7.26,0,0,0-2.24-1,9.73,9.73,0,0,0-2.41-.31l.31-.1c-1.5,1.15-3,2.26-4.57,3.33a49,49,0,0,1-4.86,3,11.69,11.69,0,0,1-2.83,1.14,2.81,2.81,0,0,1-1,0l-.36-.11c-.12,0-.06,0-.09,0s0,0-.06,0a1.42,1.42,0,0,0-.67.38,15.72,15.72,0,0,0-2.93,4.27l0-.86a21.43,21.43,0,0,1,1.32,4.05,7.07,7.07,0,0,1,.14,1.18,2.69,2.69,0,0,1-.41,1.61,1.79,1.79,0,0,1-1.08.69,2.35,2.35,0,0,1-.95,0l-.41-.11h-.13c-.15,0-.52.32-.79.79a8.37,8.37,0,0,0-.72,1.63,23.06,23.06,0,0,0-.88,3.72l-.13.87-.89,0a.55.55,0,0,0-.39.2,2.7,2.7,0,0,0-.5.75,9.81,9.81,0,0,0-.67,2.18,28.41,28.41,0,0,0-.51,4.84l0,.68-.62.2c-2.51.82-5,1.59-7.54,2.38l-1.08.34,0-1.1.08-4,.49.68-8.92-3.24.61-.38c-.4,2.32-.78,4.65-1.12,7l0,.12-.08.08-3,3-3,3-.25.25-.23-.28-2-2.47q-1-1.24-2.06-2.45l.49.15-3,1.09.29-.22c-2.24,3.73-4.42,7.49-6.72,11.18l.08-.17c-1.14,3.18-2.32,6.34-3.52,9.49s-2.4,6.31-3.67,9.44l-.1.24-.19.11-6.61,3.81c-2.23,1.23-4.44,2.5-6.69,3.69Z"/><polygon points="976.5 1032.5 977.5 1018.5 974.62 1020.14 976.5 1032.5"/><polygon points="982 1055 983 1042 986 1019 980 1037 982 1055"/><path d="M969,1075l4-18,2-15-6,18a11.79,11.79,0,0,0-5,10c0,7-6-7-6-7l-9-4-3,4,4-1s9,13,9,8l8,10s2,5,4,3,1,9,1,9l10,17,3-8s-8-22-12-20Z"/><path d="M941,1071s-3,11-7,12-7,2-7,2l7-5Z"/><path d="M938,1089l-7,9,2,2S941,1089,938,1089Z"/><path d="M947,1071v11l10,13,4,14a24.18,24.18,0,0,0,0-16s4-10-6-12Z"/><polygon points="981 1067 983 1082 987 1087 981 1067"/><path d="M993,1016l6,3,4,19s5,3,5,12,14,13,14,13,17,0,17,17c0,0,15,13,16,13s-31-14-31-19l-14-13,12,19v12l9,17s-26-15-28-24-7-12-7-12l10,5s-10-29-7-30l-5,11-1-28,2-4Z"/><polygon points="958 1058 955 1048 949 1041 958 1044 958 1058"/><polygon points="939 1061 942 1054 937 1052 939 1061"/><line class="cls-1" x1="965.88" y1="1041" x2="972" y2="1035"/><path d="M1029,1091l7,4-11-11S1026,1091,1029,1091Z"/><path d="M858,1213s-3-30,1-32,1-22,0-22,0-15,0-15l13,5s4,12,0,15-4,17-4,17l-3,10-5,10Z"/><path d="M839,1145l10,5v5l-1,2-1,21-3-3s-3,7-3,11S839,1145,839,1145Z"/><path d="M877,1145l6,3v18s1,19-1,20-2,10-2,10l-1-26S874,1155,877,1145Z"/><polygon points="891 1162 894 1170 894 1190 897 1203 889 1186 891 1162"/><path d="M902,1164v6l3,2s-1,25,0,28-3-6-3-6v-4l-5-6S895,1158,902,1164Z"/><polygon points="820 1182 826 1166 824 1156 820 1182"/><polygon points="872 1190 874 1182 873 1169 870 1172 872 1190"/><polygon points="886 1204 883 1196 883 1192 880 1196 886 1204"/><polygon points="836 1196 839 1194 838 1182 836 1193 836 1196"/><path d="M804.9,1195c-.09-.75-.16-1.5-.22-2.25s-.14-1.5-.18-2.25c-.11-1.5-.17-3-.24-4.5v-.28l.23-.25c1.29-1.38,2.58-2.75,3.9-4.1l-.26.63c0-1,0-2,0-3s0-2,.11-3l.35-6,0-.36.31-.06q2-.39,4-.88l-.23.3c0-1.08,0-2.17,0-3.25s-.06-2.17-.12-3.25l-.33-6.5,0-.41.4-.27c1.62-1.08,3.27-2.11,4.91-3.14l4.94-3.1,1.13-.71.43,1.28,1,3-2-.14c1.37-2.65,2.76-5.29,4.21-7.9l.27-.48.48,0c1.83.07,3.67.19,5.5.3s3.67.26,5.5.44v.2c-1.83.18-3.67.34-5.5.44s-3.67.23-5.5.3l.75-.46c-1.22,2.73-2.49,5.42-3.79,8.1l-1.15,2.37-.83-2.51-1-3,1.56.58-5.06,2.9c-1.69,1-3.37,1.94-5.09,2.86l.38-.67-.33,6.5q-.09,1.63-.12,3.25c0,1.08,0,2.17,0,3.25v.24l-.24.06q-2,.51-4,1.12l.33-.42.35,6c.07,1,.08,2,.11,3s0,2,0,3v.38l-.25.25c-1.34,1.32-2.72,2.62-4.1,3.9l.22-.53c-.07,1.5-.14,3-.24,4.5,0,.75-.12,1.5-.18,2.25s-.13,1.5-.22,2.25Z"/><path d="M849.45,1149.41a3.82,3.82,0,0,1,.9-1.33,3.14,3.14,0,0,1,1.22-.8,12.15,12.15,0,0,0,1.51-.31,2.88,2.88,0,0,0,1.13-.94,5.58,5.58,0,0,1,1-1.09,6.58,6.58,0,0,1,1.19-.86,6.09,6.09,0,0,1,3-.67l.1.17a6.1,6.1,0,0,1-2,2.33,6.58,6.58,0,0,1-1.31.64,5.58,5.58,0,0,1-1.45.41,2.88,2.88,0,0,0-1.37.56,12.15,12.15,0,0,0-1,1.19,3.15,3.15,0,0,1-1.28.7,3.82,3.82,0,0,1-1.6.17Z"/><path d="M872.42,1149.44a1.93,1.93,0,0,1,0-1,1,1,0,0,1,.46-.66c.27-.13.69-.13.9-.31a1,1,0,0,0,.32-.77,2.11,2.11,0,0,1,.19-.87,2,2,0,0,1,.4-.7,2.53,2.53,0,0,1,1.76-.65l.16.13a2.53,2.53,0,0,1-.24,1.85,2,2,0,0,1-.6.55,2.11,2.11,0,0,1-.81.38,1,1,0,0,0-.68.48c-.12.25,0,.66-.1.94a1,1,0,0,1-.54.59,1.93,1.93,0,0,1-1,.2Z"/><path d="M883.56,1147.42a7.34,7.34,0,0,1,2.14.7,7.42,7.42,0,0,1,1.8,1.19c.52.51.92,1.17,1.45,1.67a5.86,5.86,0,0,0,1.84,1.12l.12,0,.09.36a13.27,13.27,0,0,1,.43,2.25,18,18,0,0,1,.14,2.25,14,14,0,0,1-.27,2.25,10.21,10.21,0,0,1-.7,2.25h-.2a10.21,10.21,0,0,1-.7-2.25,14,14,0,0,1-.27-2.25,18,18,0,0,1,.14-2.25,13.27,13.27,0,0,1,.43-2.25l.21.41a5.86,5.86,0,0,0-1.66-1.38c-.64-.34-1.4-.51-2-.83a7.42,7.42,0,0,1-1.7-1.31,7.34,7.34,0,0,1-1.36-1.8Z"/><path d="M959,1204s-3-30,1-32,1-22,0-22,0-15,0-15l13,5s4,12,0,15-4,17-4,17l-3,10-5,10Z"/><path d="M940,1136l10,5v5l-1,2-1,21-3-3s-3,7-3,11S940,1136,940,1136Z"/><path d="M978,1136l6,3v18s1,19-1,20-2,10-2,10l-1-26S975,1146,978,1136Z"/><polygon points="992 1153 995 1161 995 1181 998 1194 990 1177 992 1153"/><path d="M1003,1155v6l3,2s-1,25,0,28-3-6-3-6v-4l-5-6S996,1149,1003,1155Z"/><polygon points="921 1173 927 1157 925 1147 921 1173"/><polygon points="973 1181 975 1173 974 1160 971 1163 973 1181"/><polygon points="987 1195 984 1187 984 1183 981 1187 987 1195"/><polygon points="937 1187 940 1185 939 1173 937 1184 937 1187"/><path d="M905.9,1186c-.09-.75-.16-1.5-.22-2.25s-.14-1.5-.18-2.25c-.11-1.5-.17-3-.24-4.5v-.28l.23-.25c1.29-1.38,2.58-2.75,3.9-4.1l-.26.63c0-1,0-2,0-3s0-2,.11-3l.35-6,0-.36.31-.06q2-.39,4-.88l-.23.3c0-1.08,0-2.17,0-3.25s-.06-2.17-.12-3.25l-.33-6.5,0-.41.4-.27c1.62-1.08,3.27-2.11,4.91-3.14l4.94-3.1,1.13-.71.43,1.28,1,3-2-.14c1.37-2.65,2.76-5.29,4.21-7.9l.27-.48.48,0c1.83.07,3.67.19,5.5.3s3.67.26,5.5.44v.2c-1.83.18-3.67.34-5.5.44s-3.67.23-5.5.3l.75-.46c-1.22,2.73-2.49,5.42-3.79,8.1l-1.15,2.37-.83-2.51-1-3,1.56.58-5.06,2.9c-1.69,1-3.37,1.94-5.09,2.86l.38-.67-.33,6.5q-.09,1.63-.12,3.25c0,1.08,0,2.17,0,3.25v.24l-.24.06q-2,.51-4,1.12l.33-.42.35,6c.07,1,.08,2,.11,3s0,2,0,3v.38l-.25.25c-1.34,1.32-2.72,2.62-4.1,3.9l.22-.53c-.07,1.5-.14,3-.24,4.5,0,.75-.12,1.5-.18,2.25s-.13,1.5-.22,2.25Z"/><path d="M950.45,1140.41a3.82,3.82,0,0,1,.9-1.33,3.15,3.15,0,0,1,1.22-.8,12.15,12.15,0,0,0,1.51-.31,2.88,2.88,0,0,0,1.13-.94,5.58,5.58,0,0,1,1-1.09,6.58,6.58,0,0,1,1.19-.86,6.09,6.09,0,0,1,3-.67l.1.17a6.1,6.1,0,0,1-2,2.33,6.58,6.58,0,0,1-1.31.64,5.58,5.58,0,0,1-1.45.41,2.88,2.88,0,0,0-1.37.56,12.15,12.15,0,0,0-1,1.19,3.15,3.15,0,0,1-1.28.7,3.82,3.82,0,0,1-1.6.17Z"/><path d="M973.42,1140.44a1.93,1.93,0,0,1,0-1,1,1,0,0,1,.46-.66c.27-.13.69-.13.9-.31a1,1,0,0,0,.32-.77,2.11,2.11,0,0,1,.19-.87,2,2,0,0,1,.4-.7,2.53,2.53,0,0,1,1.76-.65l.16.13a2.53,2.53,0,0,1-.24,1.85,2,2,0,0,1-.6.55,2.11,2.11,0,0,1-.81.38,1,1,0,0,0-.68.48c-.12.25,0,.66-.1.94a1,1,0,0,1-.54.59,1.93,1.93,0,0,1-1,.2Z"/><path d="M984.56,1138.42a7.34,7.34,0,0,1,2.14.7,7.42,7.42,0,0,1,1.8,1.19c.52.51.92,1.17,1.45,1.67a5.86,5.86,0,0,0,1.84,1.12l.12,0,.09.36a13.26,13.26,0,0,1,.43,2.25,18,18,0,0,1,.14,2.25,14,14,0,0,1-.27,2.25,10.21,10.21,0,0,1-.7,2.25h-.2a10.21,10.21,0,0,1-.7-2.25,14,14,0,0,1-.27-2.25,18,18,0,0,1,.14-2.25,13.26,13.26,0,0,1,.43-2.25l.21.41a5.86,5.86,0,0,0-1.66-1.38c-.64-.34-1.4-.51-2-.83a7.42,7.42,0,0,1-1.7-1.31,7.34,7.34,0,0,1-1.36-1.8Z"/><path d="M917.93,919.93c1.61-2.06,3.32-4,5.07-5.93s3.54-3.79,5.37-5.63l-.19.27q1-2.25,2.15-4.43l2.28-4.38.14-.27H933c2,.1,4,.15,6,.11l-.29.18c1.63-3.68,3-7.51,4.5-11.22l.65-1.56.88,1.5,2.61,4.44c.86,1.49,1.75,3,2.57,4.46l-.24-.29c2.35,2,4.62,4.05,6.89,6.13l.2.18.06.19q.89,2.79,1.71,5.61t1.55,5.66l-.19.07q-1.29-2.64-2.45-5.34t-2.29-5.39l.26.37c-2.4-1.92-4.79-3.85-7.11-5.87l-.14-.13-.09-.17c-.84-1.49-1.62-3-2.43-4.54l-2.39-4.56,1.53-.06c-1.78,3.61-3.79,7.13-5.49,10.77l-.09.19H939c-2,0-4,0-6,.11l.39-.25-1.72,4.62q-.85,2.32-1.85,4.57l-.07.15-.12.12q-2.76,2.74-5.63,5.37c-1.92,1.75-3.87,3.46-5.93,5.07Z"/><path d="M1006.53,865.6c-1.78.71-3.57,1.37-5.37,2s-3.62,1.18-5.44,1.73l.62-.81c0,1.67.08,3.33.05,5v.35l-.22.25c-1.34,1.5-2.77,2.9-4.2,4.32l-2.14,2.13c-.72.71-1.4,1.44-2.09,2.17l.06-.11c-.53,1.49-1,3-1.48,4.51s-.86,3-1.29,4.57l-.1.36-.43,0c-2.67.16-5.33.3-8,.35l.7-.32c-2,2.36-3.87,4.78-5.88,7.1l-.32.37h-.49c-1.67,0-3.33,0-5-.07l.9-.55q-1.59,3-3.23,5.88l-.53.94L962,905l-2.81-3.19c-.47-.53-.92-1.08-1.38-1.62s-.91-1.09-1.36-1.64l.14-.14c.56.44,1.1.9,1.64,1.36s1.09.91,1.62,1.38L963,904l-1.19.19q1.35-3.08,2.77-6.12l.25-.55h.64c1.67,0,3.33-.08,5-.07l-.81.37c2-2.35,4.08-4.6,6.12-6.9l.29-.33h.41c2.67.05,5.33.19,8,.35l-.53.38c.57-1.48,1.17-2.94,1.71-4.43s1-3,1.52-4.49l0-.06,0-.06c.65-.77,1.29-1.54,1.91-2.33l1.86-2.37c1.24-1.58,2.47-3.17,3.8-4.68l-.23.59c0-1.67,0-3.33.05-5v-.66l.61-.15c1.85-.45,3.7-.88,5.56-1.27s3.74-.73,5.63-1Z"/><path d="M955.6,898.38a.4.4,0,0,0-.09-.33c-1.74-2.34-1-5.44-3.22-7.64a9.2,9.2,0,0,0-7.62-2.32.51.51,0,0,0-.43.75c.69,1.14,1.41,2.3,2.22,3.38a3.6,3.6,0,0,0,1.12,2.46,1.5,1.5,0,0,0,.57,1.36,1.44,1.44,0,0,0,1.2,1.68,1.19,1.19,0,0,0,.31,1.64,8.94,8.94,0,0,0,2.52,1.29l.35.42a1.34,1.34,0,0,0,.5.54,1.14,1.14,0,0,0,.77.25,3.72,3.72,0,0,0,.49.71,1.51,1.51,0,0,0,2.51-.66A3.53,3.53,0,0,0,955.6,898.38Z"/><path d="M968.5,918.5v-4l2-5v-11l-6,13-3,7s5,10,2,13,5-4,5-4Z"/><polygon points="976 944 986 929 1000 922 991 910 990 903 985 896 985 909 982 913 982 925 976 944"/><path d="M1011,866l5,10,4,9,9,3s12,21,14,24-16-13-16-13l7,11,9,28s-20-25-21-20-3-13-3-13-13-12-10-12-5-11-5-11l8,7-2-13-3-6Z"/><path d="M1071.92,923.06a90.08,90.08,0,0,1-7.49-8.34c-1.16-1.47-2.31-2.94-3.38-4.48s-2-3.15-3-4.79c-.46-.82-.9-1.65-1.32-2.5a18,18,0,0,1-1.11-2.65,3.12,3.12,0,0,1-.14-.76,1.25,1.25,0,0,1,.06-.46c0-.16.24-.36.23-.37.19-.18,0-.61-.19-1a9.24,9.24,0,0,0-1.84-2,78.73,78.73,0,0,0-9.27-6l-.19-.11-.13-.21-3.79-6.37-1.83-3.23-.88-1.63a1.64,1.64,0,0,0-.78-.83,3.67,3.67,0,0,0-2.76.5,20.47,20.47,0,0,0-3,1.89c-1,.72-1.92,1.5-2.84,2.31s-1.84,1.64-2.75,2.48l-.15-.13a35.33,35.33,0,0,1,4.87-5.71,17.71,17.71,0,0,1,3.05-2.37,7.78,7.78,0,0,1,1.9-.84,3.94,3.94,0,0,1,2.41,0,3.66,3.66,0,0,1,1.85,1.66l.94,1.6,1.82,3.24,3.52,6.55-.31-.32a63.76,63.76,0,0,1,8.82,7,12,12,0,0,1,1.87,2.19,2.67,2.67,0,0,1,.31.73,1.11,1.11,0,0,1-.15.91c-.13.19-.12.14-.14.22a.66.66,0,0,0,0,.23,2.53,2.53,0,0,0,.13.6,20.76,20.76,0,0,0,2.84,4.67c1.09,1.49,2.26,2.93,3.37,4.42l3.27,4.5c2.16,3,4.31,6.06,6.31,9.22Z"/><path d="M1036.5,893.5s-6-18,2-17l27.61,39.62-12.61-9.62s-10,1-12-10-2,3-2,3Z"/><polygon points="1004 900 1008 909 1013 915 1005 909 1004 900"/><polygon points="993 896 1001 887 1001 884 991 896 993 896"/><path d="M744.93,1247.93c1.61-2.06,3.32-4,5.07-5.93s3.54-3.79,5.37-5.63l-.19.27q1-2.25,2.15-4.43l2.28-4.38.14-.27H760c2,.1,4,.15,6,.11l-.29.18c1.63-3.68,3-7.51,4.5-11.22l.65-1.56.88,1.5,2.61,4.44c.86,1.49,1.75,3,2.57,4.46l-.24-.29c2.35,2,4.62,4.05,6.89,6.13l.2.18.06.19q.89,2.79,1.71,5.61t1.55,5.66l-.19.07q-1.29-2.64-2.45-5.34t-2.29-5.39l.26.37c-2.4-1.92-4.79-3.85-7.11-5.87l-.14-.13-.09-.17c-.84-1.49-1.62-3-2.43-4.54l-2.39-4.56,1.53-.06c-1.78,3.61-3.79,7.13-5.49,10.77l-.09.19H766c-2,0-4,0-6,.11l.39-.25-1.72,4.62q-.85,2.32-1.85,4.57l-.07.15-.12.12q-2.76,2.74-5.63,5.37c-1.92,1.75-3.87,3.46-5.93,5.07Z"/><path d="M833.53,1193.6c-1.78.71-3.57,1.37-5.37,2s-3.62,1.18-5.44,1.73l.62-.81c0,1.67.08,3.33.05,5v.35l-.22.25c-1.34,1.5-2.77,2.9-4.2,4.32l-2.14,2.13c-.72.71-1.4,1.44-2.09,2.17l.06-.11c-.53,1.49-1,3-1.48,4.51s-.86,3-1.29,4.57l-.1.36-.43,0c-2.67.16-5.33.3-8,.35l.7-.32c-2,2.36-3.87,4.78-5.88,7.1l-.32.37h-.49c-1.67,0-3.33,0-5-.07l.9-.55q-1.59,3-3.23,5.88l-.53.94L789,1233l-2.81-3.19c-.47-.53-.92-1.08-1.38-1.62s-.91-1.09-1.36-1.64l.14-.14c.56.44,1.1.9,1.64,1.36s1.09.91,1.62,1.38L790,1232l-1.19.19q1.35-3.08,2.77-6.12l.25-.55h.64c1.67,0,3.33-.08,5-.07l-.81.37c2-2.35,4.08-4.6,6.12-6.9l.29-.33h.41c2.67.05,5.33.19,8,.35l-.53.38c.57-1.48,1.17-2.94,1.71-4.43s1-3,1.52-4.49l0-.06,0-.06c.65-.77,1.29-1.54,1.91-2.33l1.86-2.37c1.24-1.58,2.47-3.17,3.8-4.68l-.23.59c0-1.67,0-3.33.05-5v-.66l.61-.15c1.85-.45,3.7-.88,5.56-1.27s3.74-.73,5.63-1Z"/><path d="M782.6,1226.38a.4.4,0,0,0-.09-.33c-1.74-2.34-1-5.44-3.22-7.64a9.2,9.2,0,0,0-7.62-2.32.51.51,0,0,0-.43.75c.69,1.14,1.41,2.3,2.22,3.38a3.6,3.6,0,0,0,1.12,2.46,1.5,1.5,0,0,0,.57,1.36,1.44,1.44,0,0,0,1.2,1.68,1.19,1.19,0,0,0,.31,1.64,8.94,8.94,0,0,0,2.52,1.29l.35.42a1.34,1.34,0,0,0,.5.54,1.14,1.14,0,0,0,.77.25,3.72,3.72,0,0,0,.49.71,1.51,1.51,0,0,0,2.51-.66A3.53,3.53,0,0,0,782.6,1226.38Z"/><path d="M795.5,1246.5v-4l2-5v-11l-6,13-3,7s5,10,2,13,5-4,5-4Z"/><polygon points="803 1272 813 1257 827 1250 818 1238 817 1231 812 1224 812 1237 809 1241 809 1253 803 1272"/><path d="M838,1194l5,10,4,9,9,3s12,21,14,24-16-13-16-13l7,11,9,28s-20-25-21-20-3-13-3-13-13-12-10-12-5-11-5-11l8,7-2-13-3-6Z"/><path d="M898.92,1251.06a90.08,90.08,0,0,1-7.49-8.34c-1.16-1.47-2.31-2.94-3.38-4.48s-2-3.15-3-4.79c-.46-.82-.9-1.65-1.32-2.5a18,18,0,0,1-1.11-2.65,3.12,3.12,0,0,1-.14-.76,1.25,1.25,0,0,1,.06-.46c0-.16.24-.36.23-.37.19-.18,0-.61-.19-1a9.24,9.24,0,0,0-1.84-2,78.73,78.73,0,0,0-9.27-6l-.19-.11-.13-.21-3.79-6.37-1.83-3.23-.88-1.63a1.64,1.64,0,0,0-.78-.83,3.67,3.67,0,0,0-2.76.5,20.47,20.47,0,0,0-3,1.89c-1,.72-1.92,1.5-2.84,2.31s-1.84,1.64-2.75,2.48l-.15-.13a35.33,35.33,0,0,1,4.87-5.71,17.71,17.71,0,0,1,3.05-2.37,7.78,7.78,0,0,1,1.9-.84,3.94,3.94,0,0,1,2.41,0,3.66,3.66,0,0,1,1.85,1.66l.94,1.6,1.82,3.24,3.52,6.55-.31-.32a63.76,63.76,0,0,1,8.82,7,12,12,0,0,1,1.87,2.19,2.67,2.67,0,0,1,.31.73,1.11,1.11,0,0,1-.15.91c-.13.19-.12.14-.14.22a.66.66,0,0,0,0,.23,2.53,2.53,0,0,0,.13.6,20.76,20.76,0,0,0,2.84,4.67c1.09,1.49,2.26,2.93,3.37,4.42l3.27,4.5c2.16,3,4.31,6.06,6.31,9.22Z"/><path d="M863.5,1221.5s-6-18,2-17l27.61,39.62-12.61-9.62s-10,1-12-10-2,3-2,3Z"/><polygon points="831 1228 835 1237 840 1243 832 1237 831 1228"/><polygon points="820 1224 828 1215 828 1212 818 1224 820 1224"/><path d="M833.95,1299.91c2.08-1.47,4.21-2.87,6.31-4.31l6.39-4.19-.28.35c1.07-3.2,2.2-6.38,3.33-9.56s2.28-6.35,3.48-9.51l0-.1,0-.07c2.37-3.64,4.85-7.22,7.28-10.82l.12-.17.17-.05,3-.91.31-.09.18.24q1,1.28,1.94,2.55l2,2.53-.48,0,3-3,3-3-.1.19c.33-2.33.61-4.67.88-7l.06-.54.55.17,9.08,2.76.48.15v.54l.08,4-1.06-.76c2.49-.88,5-1.77,7.46-2.62l-.63.88a30.19,30.19,0,0,1,.44-5.21,11.68,11.68,0,0,1,.77-2.65,4.66,4.66,0,0,1,.88-1.35,2.62,2.62,0,0,1,1.84-.83l-1,.91a22,22,0,0,1,.91-4.15,10.41,10.41,0,0,1,.92-2.06,5.1,5.1,0,0,1,.8-1,2.85,2.85,0,0,1,1.39-.76,2.72,2.72,0,0,1,.87,0l.4.09.17,0c.08,0,.1,0,.05,0a.36.36,0,0,0-.24.16c-.05.1,0-.1,0-.33a5,5,0,0,0-.08-.82,19.58,19.58,0,0,0-1.12-3.63l-.18-.46.21-.39a22.38,22.38,0,0,1,1.53-2.52,11.17,11.17,0,0,1,2.06-2.3,3,3,0,0,1,1.85-.73,1.67,1.67,0,0,1,.62.11l.25.08h0a1.22,1.22,0,0,0,.36,0,10.35,10.35,0,0,0,2.4-.89c1.64-.79,3.24-1.75,4.84-2.7s3.17-2,4.71-3l.16-.11h.15a10.36,10.36,0,0,1,2.67.51,8,8,0,0,1,2.39,1.27,5.32,5.32,0,0,1,1.62,2.15,6.19,6.19,0,0,1,.42,2.6h-.2a6.16,6.16,0,0,0-.63-2.41,4.75,4.75,0,0,0-1.61-1.8,7.26,7.26,0,0,0-2.24-1,9.73,9.73,0,0,0-2.41-.31l.31-.1c-1.5,1.15-3,2.26-4.57,3.33a49,49,0,0,1-4.86,3,11.69,11.69,0,0,1-2.83,1.14,2.81,2.81,0,0,1-1,0l-.36-.11c-.12,0-.06,0-.09,0s0,0-.06,0a1.42,1.42,0,0,0-.67.38,15.72,15.72,0,0,0-2.93,4.27l0-.86a21.43,21.43,0,0,1,1.32,4.05,7.07,7.07,0,0,1,.14,1.18,2.69,2.69,0,0,1-.41,1.61,1.79,1.79,0,0,1-1.08.69,2.35,2.35,0,0,1-.95,0l-.41-.11h-.13c-.15,0-.52.32-.79.79a8.37,8.37,0,0,0-.72,1.63,23.06,23.06,0,0,0-.88,3.72l-.13.87-.89,0a.55.55,0,0,0-.39.2,2.7,2.7,0,0,0-.5.75,9.81,9.81,0,0,0-.67,2.18,28.41,28.41,0,0,0-.51,4.84l0,.68-.62.2c-2.51.82-5,1.59-7.54,2.38l-1.08.34,0-1.1.08-4,.49.68-8.92-3.24.61-.38c-.4,2.32-.78,4.65-1.12,7l0,.12-.08.08-3,3-3,3-.25.25-.23-.28-2-2.47q-1-1.24-2.06-2.45l.49.15-3,1.09.29-.22c-2.24,3.73-4.42,7.49-6.72,11.18l.08-.17c-1.14,3.18-2.32,6.34-3.52,9.49s-2.4,6.31-3.67,9.44l-.1.24-.19.11-6.61,3.81c-2.23,1.23-4.44,2.5-6.69,3.69Z"/><polygon points="902.5 1244.5 903.5 1230.5 900.62 1232.14 902.5 1244.5"/><polygon points="908 1267 909 1254 912 1231 906 1249 908 1267"/><path d="M895,1287l4-18,2-15-6,18a11.79,11.79,0,0,0-5,10c0,7-6-7-6-7l-9-4-3,4,4-1s9,13,9,8l8,10s2,5,4,3,1,9,1,9l10,17,3-8s-8-22-12-20Z"/><path d="M867,1283s-3,11-7,12-7,2-7,2l7-5Z"/><path d="M864,1301l-7,9,2,2S867,1301,864,1301Z"/><path d="M873,1283v11l10,13,4,14a24.18,24.18,0,0,0,0-16s4-10-6-12Z"/><polygon points="907 1279 909 1294 913 1299 907 1279"/><path d="M919,1228l6,3,4,19s5,3,5,12,14,13,14,13,17,0,17,17c0,0,15,13,16,13s-31-14-31-19l-14-13,12,19v12l9,17s-26-15-28-24-7-12-7-12l10,5s-10-29-7-30l-5,11-1-28,2-4Z"/><polygon points="884 1270 881 1260 875 1253 884 1256 884 1270"/><polygon points="865 1273 868 1266 863 1264 865 1273"/><line class="cls-1" x1="891.88" y1="1253" x2="898" y2="1247"/><path d="M955,1303l7,4-11-11S952,1303,955,1303Z"/><path d="M785.11,1285.45a16.69,16.69,0,0,1,1.74-2.6,29,29,0,0,1,2-2.31l-.19.27a25.92,25.92,0,0,1,2-3.36l.18-.28.21,0a13,13,0,0,0,2.37.11l-.29.18c.63-1.46.93-3.07,1.48-4.57l.56-1.54,1,1.48c.75,1.14,1.48,2.28,2.16,3.45l-.24-.29a35.6,35.6,0,0,1,2.65,2.51l.22.23,0,.15a28.5,28.5,0,0,1,.83,4.61l-.19.07a28.49,28.49,0,0,1-2.32-4.07l.26.37a35.6,35.6,0,0,1-2.88-2.23l-.16-.14-.08-.15c-.63-1.2-1.21-2.43-1.79-3.66l1.53-.06c-.77,1.4-1.78,2.69-2.47,4.12l-.09.19h-.19a13,13,0,0,0-2.37.11l.39-.25a25.92,25.92,0,0,1-1.15,3.75l-.07.16-.11.11a29,29,0,0,1-2.31,2,16.68,16.68,0,0,1-2.6,1.74Z"/><path d="M820.16,1264.1a15.93,15.93,0,0,1-2,1.07c-.69.31-1.4.58-2.11.83l.62-.81c0,.66.07,1.32.06,2v.37l-.22.23a16.16,16.16,0,0,1-1.78,1.6,20.39,20.39,0,0,0-1.81,1.57l.06-.11a18.83,18.83,0,0,0-1,3.63l-.05.31-.48.07a31.47,31.47,0,0,1-3.16.36l.7-.32c-.74,1-1.46,1.95-2.25,2.87l-.32.37h-.49c-.66,0-1.32,0-2-.07l.9-.55c-.45.76-.92,1.51-1.42,2.25l-.63.94-.56-.74a25.63,25.63,0,0,1-1.91-2.82l.14-.14a25.61,25.61,0,0,1,2.82,1.91l-1.19.19c.29-.84.62-1.67,1-2.48l.21-.51.69,0c.66,0,1.32-.07,2-.07l-.82.37c.78-.93,1.65-1.78,2.49-2.66l.33-.34.37,0a31.43,31.43,0,0,1,3.16.36l-.53.38a18.83,18.83,0,0,0,1.42-3.48v0l.05-.06a20.37,20.37,0,0,0,1.35-2,16.17,16.17,0,0,1,1.38-2l-.23.6c0-.66,0-1.32.06-2l0-.69.59-.12c.74-.15,1.48-.27,2.24-.36a15.92,15.92,0,0,1,2.3-.11Z"/><path d="M800,1277a.16.16,0,0,0,0-.13c-.69-.92-.4-2.15-1.27-3a3.63,3.63,0,0,0-3-.91.2.2,0,0,0-.17.3c.27.45.56.91.88,1.33a1.42,1.42,0,0,0,.44,1,.59.59,0,0,0,.22.54.57.57,0,0,0,.47.67.47.47,0,0,0,.12.65,3.53,3.53,0,0,0,1,.51l.14.17a.53.53,0,0,0,.2.21.45.45,0,0,0,.3.1,1.47,1.47,0,0,0,.19.28.6.6,0,0,0,1-.26A1.4,1.4,0,0,0,800,1277Z"/><path d="M805.13,1284.93v-1.58l.79-2V1277l-2.37,5.13-1.18,2.76s2,3.95.79,5.13,2-1.58,2-1.58Z"/><polygon points="808.09 1295 812.04 1289.08 817.57 1286.31 814.01 1281.57 813.62 1278.81 811.64 1276.05 811.64 1281.18 810.46 1282.76 810.46 1287.5 808.09 1295"/><path d="M821.91,1264.2l2,3.95,1.58,3.55,3.55,1.18s4.74,8.29,5.53,9.48-6.32-5.13-6.32-5.13l2.76,4.34,3.55,11.06s-7.9-9.87-8.29-7.9-1.18-5.13-1.18-5.13-5.13-4.74-3.95-4.74-2-4.34-2-4.34l3.16,2.76-.79-5.13-1.18-2.37Z"/><path d="M845.92,1286.77a17.34,17.34,0,0,1-3.31-3,20,20,0,0,1-1.37-1.76,13.13,13.13,0,0,1-1-2,20.68,20.68,0,0,1-.83-2.18,1.47,1.47,0,0,1-.05-.35.79.79,0,0,1,0-.25,1.78,1.78,0,0,1,.11-.19,1,1,0,0,0-.09-.18,3.07,3.07,0,0,0-.71-.71,37.92,37.92,0,0,0-3.8-2.08l-.16-.09-.15-.24c-.53-.82-1.06-1.64-1.58-2.46-.25-.42-.49-.84-.72-1.27l-.34-.65,0-.08h0s0,0,.05,0-.27-.06-.62.1a7.54,7.54,0,0,0-1.17.6c-.79.49-1.59,1.05-2.43,1.61l-.15-.13a10.34,10.34,0,0,1,1.7-2.54,6.6,6.6,0,0,1,1.23-1.08,2,2,0,0,1,.4-.23,2.22,2.22,0,0,1,.47-.19,2.07,2.07,0,0,1,1.3,0,1.72,1.72,0,0,1,.66.4l.25.27.11.14.05.08.38.63c.25.42.49.85.72,1.28.45.87.88,1.75,1.3,2.64l-.31-.32a22.75,22.75,0,0,1,3.35,3.07,6,6,0,0,1,.75.93,1.24,1.24,0,0,1,.14.34.63.63,0,0,1-.09.5c-.09.12,0,.07,0,0s0,0,0,0a1,1,0,0,0,.05.19,6.44,6.44,0,0,0,1.25,1.7c.5.53,1,1.07,1.45,1.63s.84,1.18,1.26,1.78a23,23,0,0,1,2.13,3.91Z"/><path d="M832,1275.06s-2.37-7.11.79-6.71l10.9,15.64-5-3.8a4.44,4.44,0,0,1-4.74-3.95c-.79-4.34-.79,1.18-.79,1.18Z"/><polygon points="819.15 1277.62 820.73 1281.18 822.7 1283.55 819.54 1281.18 819.15 1277.62"/><polygon points="814.8 1276.05 817.96 1272.49 817.96 1271.31 814.01 1276.05 814.8 1276.05"/><path d="M728.11,1305.45a16.69,16.69,0,0,1,1.74-2.6,29,29,0,0,1,2-2.31l-.19.27a25.92,25.92,0,0,1,2-3.36l.18-.28.21,0a13,13,0,0,0,2.37.11l-.29.18c.63-1.46.93-3.07,1.48-4.57l.56-1.54,1,1.48c.75,1.14,1.48,2.28,2.16,3.45l-.24-.29a35.6,35.6,0,0,1,2.65,2.51l.22.23,0,.15a28.5,28.5,0,0,1,.83,4.61l-.19.07a28.49,28.49,0,0,1-2.32-4.07l.26.37a35.6,35.6,0,0,1-2.88-2.23l-.16-.14-.08-.15c-.63-1.2-1.21-2.43-1.79-3.66l1.53-.06c-.77,1.4-1.78,2.69-2.47,4.12l-.09.19h-.19a13,13,0,0,0-2.37.11l.39-.25a25.92,25.92,0,0,1-1.15,3.75l-.07.16-.11.11a29,29,0,0,1-2.31,2,16.68,16.68,0,0,1-2.6,1.74Z"/><path d="M763.16,1284.1a15.93,15.93,0,0,1-2,1.07c-.69.31-1.4.58-2.11.83l.62-.81c0,.66.07,1.32.06,2v.37l-.22.23a16.16,16.16,0,0,1-1.78,1.6,20.39,20.39,0,0,0-1.81,1.57l.06-.11a18.83,18.83,0,0,0-1,3.63l-.05.31-.48.07a31.47,31.47,0,0,1-3.16.36l.7-.32c-.74,1-1.46,1.95-2.25,2.87l-.32.37h-.49c-.66,0-1.32,0-2-.07l.9-.55c-.45.76-.92,1.51-1.42,2.25l-.63.94-.56-.74a25.63,25.63,0,0,1-1.91-2.82l.14-.14a25.61,25.61,0,0,1,2.82,1.91l-1.19.19c.29-.84.62-1.67,1-2.48l.21-.51.69,0c.66,0,1.32-.07,2-.07l-.82.37c.78-.93,1.65-1.78,2.49-2.66l.33-.34.37,0a31.43,31.43,0,0,1,3.16.36l-.53.38a18.83,18.83,0,0,0,1.42-3.48v0l.05-.06a20.37,20.37,0,0,0,1.35-2,16.17,16.17,0,0,1,1.38-2l-.23.6c0-.66,0-1.32.06-2l0-.69.59-.12c.74-.15,1.48-.27,2.24-.36a15.92,15.92,0,0,1,2.3-.11Z"/><path d="M743,1297a.16.16,0,0,0,0-.13c-.69-.92-.4-2.15-1.27-3a3.63,3.63,0,0,0-3-.91.2.2,0,0,0-.17.3c.27.45.56.91.88,1.33a1.42,1.42,0,0,0,.44,1,.59.59,0,0,0,.22.54.57.57,0,0,0,.47.67.47.47,0,0,0,.12.65,3.53,3.53,0,0,0,1,.51l.14.17a.53.53,0,0,0,.2.21.45.45,0,0,0,.3.1,1.47,1.47,0,0,0,.19.28.6.6,0,0,0,1-.26A1.4,1.4,0,0,0,743,1297Z"/><path d="M748.13,1304.93v-1.58l.79-2V1297l-2.37,5.13-1.18,2.76s2,3.95.79,5.13,2-1.58,2-1.58Z"/><polygon points="751.09 1315 755.04 1309.08 760.57 1306.31 757.01 1301.57 756.62 1298.81 754.64 1296.05 754.64 1301.18 753.46 1302.76 753.46 1307.5 751.09 1315"/><path d="M764.91,1284.2l2,3.95,1.58,3.55,3.55,1.18s4.74,8.29,5.53,9.48-6.32-5.13-6.32-5.13l2.76,4.34,3.55,11.06s-7.9-9.87-8.29-7.9-1.18-5.13-1.18-5.13-5.13-4.74-3.95-4.74-2-4.34-2-4.34l3.16,2.76-.79-5.13-1.18-2.37Z"/><path d="M788.92,1306.77a17.34,17.34,0,0,1-3.31-3,20,20,0,0,1-1.37-1.76,13.13,13.13,0,0,1-1-2,20.68,20.68,0,0,1-.83-2.18,1.47,1.47,0,0,1-.05-.35.79.79,0,0,1,0-.25,1.78,1.78,0,0,1,.11-.19,1,1,0,0,0-.09-.18,3.07,3.07,0,0,0-.71-.71,37.92,37.92,0,0,0-3.8-2.08l-.16-.09-.15-.24c-.53-.82-1.06-1.64-1.58-2.46-.25-.42-.49-.84-.72-1.27l-.34-.65,0-.08h0s0,0,.05,0-.27-.06-.62.1a7.54,7.54,0,0,0-1.17.6c-.79.49-1.59,1.05-2.43,1.61l-.15-.13a10.34,10.34,0,0,1,1.7-2.54,6.6,6.6,0,0,1,1.23-1.08,2,2,0,0,1,.4-.23,2.22,2.22,0,0,1,.47-.19,2.07,2.07,0,0,1,1.3,0,1.72,1.72,0,0,1,.66.4l.25.27.11.14.05.08.38.63c.25.42.49.85.72,1.28.45.87.88,1.75,1.3,2.64l-.31-.32a22.75,22.75,0,0,1,3.35,3.07,6,6,0,0,1,.75.93,1.24,1.24,0,0,1,.14.34.63.63,0,0,1-.09.5c-.09.12,0,.07,0,0s0,0,0,0a1,1,0,0,0,.05.19,6.44,6.44,0,0,0,1.25,1.7c.5.53,1,1.07,1.45,1.63s.84,1.18,1.26,1.78a23,23,0,0,1,2.13,3.91Z"/><path d="M775,1295.06s-2.37-7.11.79-6.71l10.9,15.64-5-3.8a4.44,4.44,0,0,1-4.74-3.95c-.79-4.34-.79,1.18-.79,1.18Z"/><polygon points="762.15 1297.62 763.73 1301.18 765.7 1303.55 762.54 1301.18 762.15 1297.62"/><polygon points="757.8 1296.05 760.96 1292.49 760.96 1291.31 757.01 1296.05 757.8 1296.05"/><path d="M813,951s-3-30,1-32,1-22,0-22,0-15,0-15l13,5s4,12,0,15-4,17-4,17l-3,10-5,10Z"/><path d="M794,883l10,5v5l-1,2-1,21-3-3s-3,7-3,11S794,883,794,883Z"/><path d="M832,883l6,3v18s1,19-1,20-2,10-2,10l-1-26S829,893,832,883Z"/><polygon points="846 900 849 908 849 928 852 941 844 924 846 900"/><path d="M857,902v6l3,2s-1,25,0,28-3-6-3-6v-4l-5-6S850,896,857,902Z"/><polygon points="775 920 781 904 779 894 775 920"/><polygon points="827 928 829 920 828 907 825 910 827 928"/><polygon points="841 942 838 934 838 930 835 934 841 942"/><polygon points="791 934 794 932 793 920 791 931 791 934"/><path d="M759.9,933c-.09-.75-.16-1.5-.22-2.25s-.14-1.5-.18-2.25c-.11-1.5-.17-3-.24-4.5v-.28l.23-.25c1.29-1.38,2.58-2.75,3.9-4.1l-.26.63c0-1,0-2,0-3s0-2,.11-3l.35-6,0-.36.31-.06q2-.39,4-.88l-.23.3c0-1.08,0-2.17,0-3.25s-.06-2.17-.12-3.25l-.33-6.5,0-.41.4-.27c1.62-1.08,3.27-2.11,4.91-3.14l4.94-3.1,1.13-.71.43,1.28,1,3-2-.14c1.37-2.65,2.76-5.29,4.21-7.9l.27-.48.48,0c1.83.07,3.67.19,5.5.3s3.67.26,5.5.44v.2c-1.83.18-3.67.34-5.5.44s-3.67.23-5.5.3l.75-.46c-1.22,2.73-2.49,5.42-3.79,8.1l-1.15,2.37-.83-2.51-1-3,1.56.58-5.06,2.9c-1.69,1-3.37,1.94-5.09,2.86l.38-.67-.33,6.5q-.09,1.63-.12,3.25c0,1.08,0,2.17,0,3.25v.24l-.24.06q-2,.51-4,1.12l.33-.42.35,6c.07,1,.08,2,.11,3s0,2,0,3v.38l-.25.25c-1.34,1.32-2.72,2.62-4.1,3.9l.22-.53c-.07,1.5-.14,3-.24,4.5,0,.75-.12,1.5-.18,2.25s-.13,1.5-.22,2.25Z"/><path d="M804.45,887.41a3.82,3.82,0,0,1,.9-1.33,3.14,3.14,0,0,1,1.22-.8,12.15,12.15,0,0,0,1.51-.31,2.88,2.88,0,0,0,1.13-.94,5.58,5.58,0,0,1,1-1.09,6.58,6.58,0,0,1,1.19-.86,6.09,6.09,0,0,1,3-.67l.1.17a6.1,6.1,0,0,1-2,2.33,6.58,6.58,0,0,1-1.31.64,5.58,5.58,0,0,1-1.45.41,2.88,2.88,0,0,0-1.37.56,12.15,12.15,0,0,0-1,1.19,3.15,3.15,0,0,1-1.28.7,3.82,3.82,0,0,1-1.6.17Z"/><path d="M827.42,887.44a1.93,1.93,0,0,1,0-1,1,1,0,0,1,.46-.66c.27-.13.69-.13.9-.31a1,1,0,0,0,.32-.77,2.11,2.11,0,0,1,.19-.87,2,2,0,0,1,.4-.7,2.53,2.53,0,0,1,1.76-.65l.16.13a2.53,2.53,0,0,1-.24,1.85,2,2,0,0,1-.6.55,2.11,2.11,0,0,1-.81.38,1,1,0,0,0-.68.48c-.12.25,0,.66-.1.94a1,1,0,0,1-.54.59,1.93,1.93,0,0,1-1,.2Z"/><path d="M838.56,885.42a7.34,7.34,0,0,1,2.14.7,7.42,7.42,0,0,1,1.8,1.19c.52.51.92,1.17,1.45,1.67a5.86,5.86,0,0,0,1.84,1.12l.12,0,.09.36a13.27,13.27,0,0,1,.43,2.25,18,18,0,0,1,.14,2.25,14,14,0,0,1-.27,2.25,10.21,10.21,0,0,1-.7,2.25h-.2a10.21,10.21,0,0,1-.7-2.25,14,14,0,0,1-.27-2.25,18,18,0,0,1,.14-2.25,13.27,13.27,0,0,1,.43-2.25l.21.41a5.86,5.86,0,0,0-1.66-1.38c-.64-.34-1.4-.51-2-.83a7.42,7.42,0,0,1-1.7-1.31,7.34,7.34,0,0,1-1.36-1.8Z"/><path d="M792,847s-3-30,1-32,1-22,0-22,0-15,0-15l13,5s4,12,0,15-4,17-4,17l-3,10-5,10Z"/><path d="M773,779l10,5v5l-1,2-1,21-3-3s-3,7-3,11S773,779,773,779Z"/><path d="M811,779l6,3v18s1,19-1,20-2,10-2,10l-1-26S808,789,811,779Z"/><polygon points="825 796 828 804 828 824 831 837 823 820 825 796"/><path d="M836,798v6l3,2s-1,25,0,28-3-6-3-6v-4l-5-6S829,792,836,798Z"/><polygon points="754 816 760 800 758 790 754 816"/><polygon points="806 824 808 816 807 803 804 806 806 824"/><polygon points="820 838 817 830 817 826 814 830 820 838"/><polygon points="770 830 773 828 772 816 770 827 770 830"/><path d="M738.9,829c-.09-.75-.16-1.5-.22-2.25s-.14-1.5-.18-2.25c-.11-1.5-.17-3-.24-4.5v-.28l.23-.25c1.29-1.38,2.58-2.75,3.9-4.1l-.26.63c0-1,0-2,0-3s0-2,.11-3l.35-6,0-.36.31-.06q2-.39,4-.88l-.23.3c0-1.08,0-2.17,0-3.25s-.06-2.17-.12-3.25l-.33-6.5,0-.41.4-.27c1.62-1.08,3.27-2.11,4.91-3.14l4.94-3.1,1.13-.71.43,1.28,1,3-2-.14c1.37-2.65,2.76-5.29,4.21-7.9l.27-.48.48,0c1.83.07,3.67.19,5.5.3s3.67.26,5.5.44v.2c-1.83.18-3.67.34-5.5.44s-3.67.23-5.5.3l.75-.46c-1.22,2.73-2.49,5.42-3.79,8.1l-1.15,2.37-.83-2.51-1-3,1.56.58-5.06,2.9c-1.69,1-3.37,1.94-5.09,2.86l.38-.67-.33,6.5q-.09,1.63-.12,3.25c0,1.08,0,2.17,0,3.25v.24l-.24.06q-2,.51-4,1.12l.33-.42.35,6c.07,1,.08,2,.11,3s0,2,0,3v.38l-.25.25c-1.34,1.32-2.72,2.62-4.1,3.9l.22-.53c-.07,1.5-.14,3-.24,4.5,0,.75-.12,1.5-.18,2.25s-.13,1.5-.22,2.25Z"/><path d="M783.45,783.41a3.82,3.82,0,0,1,.9-1.33,3.14,3.14,0,0,1,1.22-.8,12.15,12.15,0,0,0,1.51-.31,2.88,2.88,0,0,0,1.13-.94,5.58,5.58,0,0,1,1-1.09,6.58,6.58,0,0,1,1.19-.86,6.09,6.09,0,0,1,3-.67l.1.17a6.1,6.1,0,0,1-2,2.33,6.58,6.58,0,0,1-1.31.64,5.58,5.58,0,0,1-1.45.41,2.88,2.88,0,0,0-1.37.56,12.15,12.15,0,0,0-1,1.19,3.15,3.15,0,0,1-1.28.7,3.82,3.82,0,0,1-1.6.17Z"/><path d="M806.42,783.44a1.93,1.93,0,0,1,0-1,1,1,0,0,1,.46-.66c.27-.13.69-.13.9-.31a1,1,0,0,0,.32-.77,2.11,2.11,0,0,1,.19-.87,2,2,0,0,1,.4-.7,2.53,2.53,0,0,1,1.76-.65l.16.13a2.53,2.53,0,0,1-.24,1.85,2,2,0,0,1-.6.55,2.11,2.11,0,0,1-.81.38,1,1,0,0,0-.68.48c-.12.25,0,.66-.1.94a1,1,0,0,1-.54.59,1.93,1.93,0,0,1-1,.2Z"/><path d="M817.56,781.42a7.34,7.34,0,0,1,2.14.7,7.42,7.42,0,0,1,1.8,1.19c.52.51.92,1.17,1.45,1.67a5.86,5.86,0,0,0,1.84,1.12l.12,0,.09.36a13.27,13.27,0,0,1,.43,2.25,18,18,0,0,1,.14,2.25,14,14,0,0,1-.27,2.25,10.21,10.21,0,0,1-.7,2.25h-.2a10.21,10.21,0,0,1-.7-2.25,14,14,0,0,1-.27-2.25,18,18,0,0,1,.14-2.25,13.27,13.27,0,0,1,.43-2.25l.21.41a5.86,5.86,0,0,0-1.66-1.38c-.64-.34-1.4-.51-2-.83a7.42,7.42,0,0,1-1.7-1.31,7.34,7.34,0,0,1-1.36-1.8Z"/><path d="M740.16,901s3-30-1-32-1-22,0-22,0-15,0-15l-13,5s-4,12,0,15,4,17,4,17l3,10,5,10Z"/><path d="M759.16,833l-10,5v5l1,2,1,21,3-3s3,7,3,11S759.16,833,759.16,833Z"/><path d="M721.16,833l-6,3v18s-1,19,1,20,2,10,2,10l1-26S724.16,843,721.16,833Z"/><polygon points="707.16 850 704.16 858 704.16 878 701.16 891 709.16 874 707.16 850"/><path d="M696.16,852v6l-3,2s1,25,0,28,3-6,3-6v-4l5-6S703.16,846,696.16,852Z"/><polygon points="778.16 870 772.16 854 774.16 844 778.16 870"/><polygon points="726.16 878 724.16 870 725.16 857 728.16 860 726.16 878"/><polygon points="712.16 892 715.16 884 715.16 880 718.16 884 712.16 892"/><polygon points="762.16 884 759.16 882 760.16 870 762.16 881 762.16 884"/><path d="M793.06,883c-.09-.75-.16-1.5-.22-2.25s-.14-1.5-.18-2.25c-.11-1.5-.17-3-.24-4.5l.22.53c-1.38-1.29-2.75-2.58-4.1-3.9l-.25-.25V870c0-1,0-2,0-3s0-2,.11-3l.35-6,.33.42q-2-.61-4-1.12l-.24-.06V857c0-1.08,0-2.17,0-3.25s-.06-2.17-.12-3.25l-.33-6.5.38.67c-1.71-.92-3.4-1.89-5.09-2.86l-5.06-2.9,1.56-.58-1,3-.83,2.51-1.15-2.37c-1.3-2.68-2.58-5.38-3.79-8.1l.75.46c-1.83-.07-3.67-.19-5.5-.3s-3.67-.26-5.5-.44v-.2c1.83-.18,3.67-.34,5.5-.44s3.67-.23,5.5-.3l.48,0,.27.48c1.45,2.61,2.84,5.25,4.21,7.9l-2,.14,1-3,.43-1.28,1.13.71,4.94,3.1c1.65,1,3.29,2.06,4.91,3.14l.4.27,0,.41-.33,6.5q-.09,1.63-.12,3.25c0,1.08,0,2.17,0,3.25l-.23-.3q2,.49,4,.88l.31.06,0,.36.35,6c.07,1,.08,2,.11,3s0,2,0,3l-.26-.63c1.32,1.34,2.62,2.72,3.9,4.1l.23.25V874c-.07,1.5-.14,3-.24,4.5,0,.75-.12,1.5-.18,2.25s-.13,1.5-.22,2.25Z"/><path d="M748.61,837.59a3.82,3.82,0,0,1-1.6-.17,3.15,3.15,0,0,1-1.28-.7,12.15,12.15,0,0,0-1-1.19,2.88,2.88,0,0,0-1.37-.56,5.58,5.58,0,0,1-1.45-.41,6.58,6.58,0,0,1-1.31-.64,6.1,6.1,0,0,1-2-2.33l.1-.17a6.09,6.09,0,0,1,3,.67,6.58,6.58,0,0,1,1.19.86,5.58,5.58,0,0,1,1,1.09,2.88,2.88,0,0,0,1.13.94,12.15,12.15,0,0,0,1.51.31,3.15,3.15,0,0,1,1.22.8,3.82,3.82,0,0,1,.9,1.33Z"/><path d="M725.58,837.56a1.93,1.93,0,0,1-1-.2,1,1,0,0,1-.54-.59c-.07-.29,0-.7-.1-.94a1,1,0,0,0-.68-.48,2.11,2.11,0,0,1-.81-.38,2,2,0,0,1-.6-.55,2.53,2.53,0,0,1-.24-1.85l.16-.12a2.53,2.53,0,0,1,1.76.65,2,2,0,0,1,.4.7,2.11,2.11,0,0,1,.19.87,1,1,0,0,0,.32.77c.21.17.63.18.9.31a1,1,0,0,1,.46.66,1.93,1.93,0,0,1,0,1Z"/><path d="M714.72,835.58a7.34,7.34,0,0,1-1.36,1.8,7.42,7.42,0,0,1-1.7,1.31c-.65.33-1.41.49-2,.83a5.86,5.86,0,0,0-1.66,1.38l.21-.41a13.26,13.26,0,0,1,.43,2.25,18,18,0,0,1,.14,2.25,14,14,0,0,1-.27,2.25,10.21,10.21,0,0,1-.7,2.25h-.2a10.21,10.21,0,0,1-.7-2.25,14,14,0,0,1-.27-2.25,18,18,0,0,1,.14-2.25,13.26,13.26,0,0,1,.43-2.25l.09-.36.12,0a5.86,5.86,0,0,0,1.84-1.12c.53-.49.93-1.16,1.45-1.67a7.42,7.42,0,0,1,1.8-1.19,7.34,7.34,0,0,1,2.14-.7Z"/><path d="M853.95,1392.09c-2.25-1.19-4.46-2.46-6.69-3.69l-6.61-3.81-.19-.11-.1-.24c-1.26-3.13-2.46-6.29-3.67-9.44s-2.38-6.31-3.52-9.49l.08.17c-2.3-3.69-4.48-7.45-6.72-11.18l.29.22-3-1.09.49-.15q-1,1.22-2.06,2.45l-2,2.47-.23.28-.25-.25-3-3-3-3-.08-.08,0-.12c-.34-2.33-.72-4.66-1.12-7l.61.38-8.92,3.24.49-.68.08,4,0,1.1-1.08-.34c-2.51-.79-5-1.57-7.54-2.38l-.62-.2,0-.68a28.41,28.41,0,0,0-.51-4.84,9.81,9.81,0,0,0-.67-2.18,2.7,2.7,0,0,0-.5-.75.55.55,0,0,0-.39-.2l-.89,0-.13-.87a23.07,23.07,0,0,0-.88-3.72,8.37,8.37,0,0,0-.72-1.63c-.28-.47-.65-.79-.79-.79h-.13l-.41.11a2.35,2.35,0,0,1-.95,0,1.79,1.79,0,0,1-1.08-.69,2.69,2.69,0,0,1-.41-1.61,7.07,7.07,0,0,1,.14-1.18,21.43,21.43,0,0,1,1.32-4.05l0,.86a15.72,15.72,0,0,0-2.93-4.27,1.42,1.42,0,0,0-.67-.38s0,0-.06,0,0,0-.09,0l-.36.11a2.81,2.81,0,0,1-1,0,11.69,11.69,0,0,1-2.83-1.14,48.94,48.94,0,0,1-4.86-3c-1.55-1.08-3.07-2.18-4.57-3.33l.31.1a9.73,9.73,0,0,0-2.41.31,7.26,7.26,0,0,0-2.24,1,4.75,4.75,0,0,0-1.61,1.8,6.16,6.16,0,0,0-.63,2.41h-.2a6.19,6.19,0,0,1,.42-2.6,5.31,5.31,0,0,1,1.62-2.15,8,8,0,0,1,2.39-1.27,10.36,10.36,0,0,1,2.67-.51h.15l.16.11c1.54,1,3.12,2,4.71,3s3.2,1.91,4.84,2.7a10.35,10.35,0,0,0,2.4.89,1.22,1.22,0,0,0,.36,0h0l.25-.08a1.67,1.67,0,0,1,.62-.11,3,3,0,0,1,1.85.73,11.17,11.17,0,0,1,2.06,2.3,22.38,22.38,0,0,1,1.53,2.52l.21.39-.18.46a19.58,19.58,0,0,0-1.12,3.63,5,5,0,0,0-.08.82c0,.24.08.44,0,.33a.36.36,0,0,0-.24-.16s0,0,.05,0l.17,0,.4-.09a2.72,2.72,0,0,1,.87,0,2.85,2.85,0,0,1,1.39.76,5.1,5.1,0,0,1,.8,1,10.41,10.41,0,0,1,.92,2.06,22,22,0,0,1,.91,4.15l-1-.91a2.62,2.62,0,0,1,1.84.83,4.66,4.66,0,0,1,.88,1.35,11.68,11.68,0,0,1,.77,2.65,30.19,30.19,0,0,1,.44,5.21l-.63-.88c2.49.85,5,1.74,7.46,2.62l-1.06.76.08-4v-.54l.48-.15,9.08-2.76.55-.17.06.54c.27,2.34.56,4.68.88,7l-.1-.19,3,3,3,3-.48,0,2-2.53q1-1.26,1.94-2.55l.18-.24.31.09,3,.91.17.05.12.17c2.43,3.6,4.91,7.18,7.28,10.82l0,.07,0,.1c1.2,3.16,2.34,6.33,3.48,9.51s2.26,6.36,3.33,9.56l-.28-.35,6.39,4.19c2.1,1.44,4.23,2.84,6.31,4.31Z"/><polygon points="785.5 1336.5 784.5 1322.5 787.38 1324.14 785.5 1336.5"/><polygon points="780 1359 779 1346 776 1323 782 1341 780 1359"/><path d="M793,1379l-4-18-2-15,6,18a11.79,11.79,0,0,1,5,10c0,7,6-7,6-7l9-4,3,4-4-1s-9,13-9,8l-8,10s-2,5-4,3-1,9-1,9l-10,17-3-8s8-22,12-20Z"/><path d="M821,1375s3,11,7,12,7,2,7,2l-7-5Z"/><path d="M824,1393l7,9-2,2S821,1393,824,1393Z"/><path d="M815,1375v11l-10,13-4,14a24.18,24.18,0,0,1,0-16s-4-10,6-12Z"/><polygon points="781 1371 779 1386 775 1391 781 1371"/><path d="M769,1320l-6,3-4,19s-5,3-5,12-14,13-14,13-17,0-17,17c0,0-15,13-16,13s31-14,31-19l14-13-12,19v12l-9,17s26-15,28-24,7-12,7-12l-10,5s10-29,7-30l5,11,1-28-2-4Z"/><polygon points="804 1362 807 1352 813 1345 804 1348 804 1362"/><polygon points="823 1365 820 1358 825 1356 823 1365"/><line class="cls-1" x1="796.13" y1="1345" x2="790" y2="1339"/><path d="M733,1395l-7,4,11-11S736,1395,733,1395Z"/><path d="M771.95,1451.91c2.08-1.47,4.21-2.87,6.31-4.31l6.39-4.19-.28.35c1.07-3.2,2.2-6.38,3.33-9.56s2.28-6.35,3.48-9.51l0-.1,0-.07c2.37-3.64,4.85-7.22,7.28-10.82l.12-.17.17-.05,3-.91.31-.09.18.24q1,1.28,1.94,2.55l2,2.53-.48,0,3-3,3-3-.1.19c.33-2.33.61-4.67.88-7l.06-.54.55.17,9.08,2.76.48.15v.54l.08,4-1.06-.76c2.49-.88,5-1.77,7.46-2.62l-.63.88a30.19,30.19,0,0,1,.44-5.21,11.68,11.68,0,0,1,.77-2.65,4.66,4.66,0,0,1,.88-1.35,2.62,2.62,0,0,1,1.84-.83l-1,.91a22,22,0,0,1,.91-4.15,10.41,10.41,0,0,1,.92-2.06,5.1,5.1,0,0,1,.8-1,2.85,2.85,0,0,1,1.39-.76,2.72,2.72,0,0,1,.87,0l.4.09.17,0c.08,0,.1,0,.05,0a.36.36,0,0,0-.24.16c-.05.1,0-.1,0-.33a5,5,0,0,0-.08-.82,19.58,19.58,0,0,0-1.12-3.63l-.18-.46.21-.39a22.38,22.38,0,0,1,1.53-2.52,11.17,11.17,0,0,1,2.06-2.3,3,3,0,0,1,1.85-.73,1.67,1.67,0,0,1,.62.11l.25.08h0a1.22,1.22,0,0,0,.36,0,10.35,10.35,0,0,0,2.4-.89c1.64-.79,3.24-1.75,4.84-2.7s3.17-2,4.71-3l.16-.11h.15a10.36,10.36,0,0,1,2.67.51,8,8,0,0,1,2.39,1.27,5.32,5.32,0,0,1,1.62,2.15,6.19,6.19,0,0,1,.42,2.6h-.2a6.16,6.16,0,0,0-.63-2.41,4.75,4.75,0,0,0-1.61-1.8,7.26,7.26,0,0,0-2.24-1,9.73,9.73,0,0,0-2.41-.31l.31-.1c-1.5,1.15-3,2.26-4.57,3.33a49,49,0,0,1-4.86,3,11.69,11.69,0,0,1-2.83,1.14,2.81,2.81,0,0,1-1,0l-.36-.11c-.12,0-.06,0-.09,0s0,0-.06,0a1.42,1.42,0,0,0-.67.38,15.72,15.72,0,0,0-2.93,4.27l0-.86a21.43,21.43,0,0,1,1.32,4.05,7.07,7.07,0,0,1,.14,1.18,2.69,2.69,0,0,1-.41,1.61,1.79,1.79,0,0,1-1.08.69,2.35,2.35,0,0,1-.95,0l-.41-.11h-.13c-.15,0-.52.32-.79.79a8.37,8.37,0,0,0-.72,1.63,23.06,23.06,0,0,0-.88,3.72l-.13.87-.89,0a.55.55,0,0,0-.39.2,2.7,2.7,0,0,0-.5.75,9.81,9.81,0,0,0-.67,2.18,28.41,28.41,0,0,0-.51,4.84l0,.68-.62.2c-2.51.82-5,1.59-7.54,2.38l-1.08.34,0-1.1.08-4,.49.68-8.92-3.24.61-.38c-.4,2.32-.78,4.65-1.12,7l0,.12-.08.08-3,3-3,3-.25.25-.23-.28-2-2.47q-1-1.24-2.06-2.45l.49.15-3,1.09.29-.22c-2.24,3.73-4.42,7.49-6.72,11.18l.08-.17c-1.14,3.18-2.32,6.34-3.52,9.49s-2.4,6.31-3.67,9.44l-.1.24-.19.11-6.61,3.81c-2.23,1.23-4.44,2.5-6.69,3.69Z"/><polygon points="840.5 1396.5 841.5 1382.5 838.62 1384.14 840.5 1396.5"/><polygon points="846 1419 847 1406 850 1383 844 1401 846 1419"/><path d="M833,1439l4-18,2-15-6,18a11.79,11.79,0,0,0-5,10c0,7-6-7-6-7l-9-4-3,4,4-1s9,13,9,8l8,10s2,5,4,3,1,9,1,9l10,17,3-8s-8-22-12-20Z"/><path d="M805,1435s-3,11-7,12-7,2-7,2l7-5Z"/><path d="M802,1453l-7,9,2,2S805,1453,802,1453Z"/><path d="M811,1435v11l10,13,4,14a24.18,24.18,0,0,0,0-16s4-10-6-12Z"/><polygon points="845 1431 847 1446 851 1451 845 1431"/><path d="M857,1380l6,3,4,19s5,3,5,12,14,13,14,13,17,0,17,17c0,0,15,13,16,13s-31-14-31-19l-14-13,12,19v12l9,17s-26-15-28-24-7-12-7-12l10,5s-10-29-7-30l-5,11-1-28,2-4Z"/><polygon points="822 1422 819 1412 813 1405 822 1408 822 1422"/><polygon points="803 1425 806 1418 801 1416 803 1425"/><line class="cls-1" x1="829.88" y1="1405" x2="836" y2="1399"/><path d="M893,1455l7,4-11-11S890,1455,893,1455Z"/><path d="M808.93,1108.93c1.61-2.06,3.32-4,5.07-5.93s3.54-3.79,5.37-5.63l-.19.27q1-2.25,2.15-4.43l2.28-4.38.14-.27H824c2,.1,4,.15,6,.11l-.29.18c1.63-3.68,3-7.51,4.5-11.22l.65-1.56.88,1.5,2.61,4.44c.86,1.49,1.75,3,2.57,4.46l-.24-.29c2.35,2,4.62,4.05,6.89,6.13l.2.18.06.19q.89,2.79,1.71,5.61t1.55,5.66l-.19.07q-1.29-2.64-2.45-5.34t-2.29-5.39l.26.37c-2.4-1.92-4.79-3.85-7.11-5.87l-.14-.13-.09-.17c-.84-1.49-1.62-3-2.43-4.54l-2.39-4.56,1.53-.06c-1.78,3.61-3.79,7.13-5.49,10.77l-.09.19H830c-2,0-4,0-6,.11l.39-.25-1.72,4.62q-.85,2.32-1.85,4.57l-.07.15-.12.12q-2.76,2.74-5.63,5.37c-1.92,1.75-3.87,3.46-5.93,5.07Z"/><path d="M897.53,1054.6c-1.78.71-3.57,1.37-5.37,2s-3.62,1.18-5.44,1.73l.62-.81c0,1.67.08,3.33.05,5v.35l-.22.25c-1.34,1.5-2.77,2.9-4.2,4.32l-2.14,2.13c-.72.71-1.4,1.44-2.09,2.17l.06-.11c-.53,1.49-1,3-1.48,4.51s-.86,3-1.29,4.57l-.1.36-.43,0c-2.67.16-5.33.3-8,.35l.7-.32c-2,2.36-3.87,4.78-5.88,7.1l-.32.37h-.49c-1.67,0-3.33,0-5-.07l.9-.55q-1.59,3-3.23,5.88l-.53.94L853,1094l-2.81-3.19c-.47-.53-.92-1.08-1.38-1.62s-.91-1.09-1.36-1.64l.14-.14c.56.44,1.1.9,1.64,1.36s1.09.91,1.62,1.38L854,1093l-1.19.19q1.35-3.08,2.77-6.12l.25-.55h.64c1.67,0,3.33-.08,5-.07l-.81.37c2-2.35,4.08-4.6,6.12-6.9l.29-.33h.41c2.67.05,5.33.19,8,.35l-.53.38c.57-1.48,1.17-2.94,1.71-4.43s1-3,1.52-4.49l0-.06,0-.06c.65-.77,1.29-1.54,1.91-2.33l1.86-2.37c1.24-1.58,2.47-3.17,3.8-4.68l-.23.59c0-1.67,0-3.33.05-5v-.66l.61-.15c1.85-.45,3.7-.88,5.56-1.27s3.74-.73,5.63-1Z"/><path d="M846.6,1087.38a.4.4,0,0,0-.09-.33c-1.74-2.34-1-5.44-3.22-7.64a9.2,9.2,0,0,0-7.62-2.32.51.51,0,0,0-.43.75c.69,1.14,1.41,2.3,2.22,3.38a3.6,3.6,0,0,0,1.12,2.46,1.5,1.5,0,0,0,.57,1.36,1.44,1.44,0,0,0,1.2,1.68,1.19,1.19,0,0,0,.31,1.64,8.94,8.94,0,0,0,2.52,1.29l.35.42a1.34,1.34,0,0,0,.5.54,1.14,1.14,0,0,0,.77.25,3.72,3.72,0,0,0,.49.71,1.51,1.51,0,0,0,2.51-.66A3.53,3.53,0,0,0,846.6,1087.38Z"/><path d="M859.5,1107.5v-4l2-5v-11l-6,13-3,7s5,10,2,13,5-4,5-4Z"/><polygon points="867 1133 877 1118 891 1111 882 1099 881 1092 876 1085 876 1098 873 1102 873 1114 867 1133"/><path d="M902,1055l5,10,4,9,9,3s12,21,14,24-16-13-16-13l7,11,9,28s-20-25-21-20-3-13-3-13-13-12-10-12-5-11-5-11l8,7-2-13-3-6Z"/><path d="M962.92,1112.06a90.08,90.08,0,0,1-7.49-8.34c-1.16-1.47-2.31-2.94-3.38-4.48s-2-3.15-3-4.79c-.46-.82-.9-1.65-1.32-2.5a18,18,0,0,1-1.11-2.65,3.12,3.12,0,0,1-.14-.76,1.25,1.25,0,0,1,.06-.46c0-.16.24-.36.23-.37.19-.18,0-.61-.19-1a9.24,9.24,0,0,0-1.84-2,78.73,78.73,0,0,0-9.27-6l-.19-.11-.13-.21-3.79-6.37-1.83-3.23-.88-1.63a1.64,1.64,0,0,0-.78-.83,3.67,3.67,0,0,0-2.76.5,20.47,20.47,0,0,0-3,1.89c-1,.72-1.92,1.5-2.84,2.31s-1.84,1.64-2.75,2.48l-.15-.13a35.33,35.33,0,0,1,4.87-5.71,17.71,17.71,0,0,1,3.05-2.37,7.78,7.78,0,0,1,1.9-.84,3.94,3.94,0,0,1,2.41,0,3.66,3.66,0,0,1,1.85,1.66l.94,1.6,1.82,3.24,3.52,6.55-.31-.32a63.76,63.76,0,0,1,8.82,7,12,12,0,0,1,1.87,2.19,2.67,2.67,0,0,1,.31.73,1.11,1.11,0,0,1-.15.91c-.13.19-.12.14-.14.22a.66.66,0,0,0,0,.23,2.53,2.53,0,0,0,.13.6,20.76,20.76,0,0,0,2.84,4.67c1.09,1.49,2.26,2.93,3.37,4.42l3.27,4.5c2.16,3,4.31,6.06,6.31,9.22Z"/><path d="M927.5,1082.5s-6-18,2-17l27.61,39.62-12.61-9.62s-10,1-12-10-2,3-2,3Z"/><polygon points="895 1089 899 1098 904 1104 896 1098 895 1089"/><polygon points="884 1085 892 1076 892 1073 882 1085 884 1085"/><path d="M731.93,1510.93c1.61-2.06,3.32-4,5.07-5.93s3.54-3.79,5.37-5.63l-.19.27q1-2.25,2.15-4.43l2.28-4.38.14-.27H747c2,.1,4,.15,6,.11l-.29.18c1.63-3.68,3-7.51,4.5-11.22l.65-1.56.88,1.5,2.61,4.44c.86,1.49,1.75,3,2.57,4.46l-.24-.29c2.35,2,4.62,4.05,6.89,6.13l.2.18.06.19q.89,2.79,1.71,5.61t1.55,5.66l-.19.07q-1.29-2.64-2.45-5.34t-2.29-5.39l.26.37c-2.4-1.92-4.79-3.85-7.11-5.87l-.14-.13-.09-.17c-.84-1.49-1.62-3-2.43-4.54l-2.39-4.56,1.53-.06c-1.78,3.61-3.79,7.13-5.49,10.77l-.09.19H753c-2,0-4,0-6,.11l.39-.25-1.72,4.62q-.85,2.32-1.85,4.57l-.07.15-.12.12q-2.76,2.74-5.63,5.37c-1.92,1.75-3.87,3.46-5.93,5.07Z"/><path d="M820.53,1456.6c-1.78.71-3.57,1.37-5.37,2s-3.62,1.18-5.44,1.73l.62-.81c0,1.67.08,3.33.05,5v.35l-.22.25c-1.34,1.5-2.77,2.9-4.2,4.32l-2.14,2.13c-.72.71-1.4,1.44-2.09,2.17l.06-.11c-.53,1.49-1,3-1.48,4.51s-.86,3-1.29,4.57l-.1.36-.43,0c-2.67.16-5.33.3-8,.35l.7-.32c-2,2.36-3.87,4.78-5.88,7.1l-.32.37h-.49c-1.67,0-3.33,0-5-.07l.9-.55q-1.59,3-3.23,5.88l-.53.94L776,1496l-2.81-3.19c-.47-.53-.92-1.08-1.38-1.62s-.91-1.09-1.36-1.64l.14-.14c.56.44,1.1.9,1.64,1.36s1.09.91,1.62,1.38L777,1495l-1.19.19q1.35-3.08,2.77-6.12l.25-.55h.64c1.67,0,3.33-.08,5-.07l-.81.37c2-2.35,4.08-4.6,6.12-6.9l.29-.33h.41c2.67.05,5.33.19,8,.35l-.53.38c.57-1.48,1.17-2.94,1.71-4.43s1-3,1.52-4.49l0-.06,0-.06c.65-.77,1.29-1.54,1.91-2.33l1.86-2.37c1.24-1.58,2.47-3.17,3.8-4.68l-.23.59c0-1.67,0-3.33.05-5v-.66l.61-.15c1.85-.45,3.7-.88,5.56-1.27s3.74-.73,5.63-1Z"/><path d="M769.6,1489.38a.4.4,0,0,0-.09-.33c-1.74-2.34-1-5.44-3.22-7.64a9.2,9.2,0,0,0-7.62-2.32.51.51,0,0,0-.43.75c.69,1.14,1.41,2.3,2.22,3.38a3.6,3.6,0,0,0,1.12,2.46,1.5,1.5,0,0,0,.57,1.36,1.44,1.44,0,0,0,1.2,1.68,1.19,1.19,0,0,0,.31,1.64,8.94,8.94,0,0,0,2.52,1.29l.35.42a1.34,1.34,0,0,0,.5.54,1.14,1.14,0,0,0,.77.25,3.72,3.72,0,0,0,.49.71,1.51,1.51,0,0,0,2.51-.66A3.53,3.53,0,0,0,769.6,1489.38Z"/><path d="M782.5,1509.5v-4l2-5v-11l-6,13-3,7s5,10,2,13,5-4,5-4Z"/><polygon points="790 1535 800 1520 814 1513 805 1501 804 1494 799 1487 799 1500 796 1504 796 1516 790 1535"/><path d="M825,1457l5,10,4,9,9,3s12,21,14,24-16-13-16-13l7,11,9,28s-20-25-21-20-3-13-3-13-13-12-10-12-5-11-5-11l8,7-2-13-3-6Z"/><path d="M885.92,1514.06a90.08,90.08,0,0,1-7.49-8.34c-1.16-1.47-2.31-2.94-3.38-4.48s-2-3.15-3-4.79c-.46-.82-.9-1.65-1.32-2.5a18,18,0,0,1-1.11-2.65,3.12,3.12,0,0,1-.14-.76,1.25,1.25,0,0,1,.06-.46c0-.16.24-.36.23-.37.19-.18,0-.61-.19-1a9.24,9.24,0,0,0-1.84-2,78.73,78.73,0,0,0-9.27-6l-.19-.11-.13-.21-3.79-6.37-1.83-3.23-.88-1.63a1.64,1.64,0,0,0-.78-.83,3.67,3.67,0,0,0-2.76.5,20.47,20.47,0,0,0-3,1.89c-1,.72-1.92,1.5-2.84,2.31s-1.84,1.64-2.75,2.48l-.15-.13a35.33,35.33,0,0,1,4.87-5.71,17.71,17.71,0,0,1,3.05-2.37,7.78,7.78,0,0,1,1.9-.84,3.94,3.94,0,0,1,2.41,0,3.66,3.66,0,0,1,1.85,1.66l.94,1.6,1.82,3.24,3.52,6.55-.31-.32a63.76,63.76,0,0,1,8.82,7,12,12,0,0,1,1.87,2.19,2.67,2.67,0,0,1,.31.73,1.11,1.11,0,0,1-.15.91c-.13.19-.12.14-.14.22a.66.66,0,0,0,0,.23,2.53,2.53,0,0,0,.13.6,20.76,20.76,0,0,0,2.84,4.67c1.09,1.49,2.26,2.93,3.37,4.42l3.27,4.5c2.16,3,4.31,6.06,6.31,9.22Z"/><path d="M850.5,1484.5s-6-18,2-17l27.61,39.62-12.61-9.62s-10,1-12-10-2,3-2,3Z"/><polygon points="818 1491 822 1500 827 1506 819 1500 818 1491"/><polygon points="807 1487 815 1478 815 1475 805 1487 807 1487"/><path d="M973.93,1570.07c-2.06-1.61-4-3.32-5.93-5.07s-3.79-3.54-5.63-5.37l-.12-.12-.07-.15q-1-2.25-1.85-4.57l-1.72-4.62.39.25c-2-.1-4-.15-6-.11h-.2l-.09-.19c-1.7-3.65-3.71-7.16-5.49-10.77l1.53.06-2.39,4.56c-.81,1.51-1.58,3-2.43,4.54l-.09.17-.14.13c-2.32,2-4.71,3.95-7.11,5.87l.26-.37q-1.11,2.71-2.29,5.39t-2.45,5.34l-.19-.07q.71-2.86,1.55-5.66t1.71-5.61l.06-.19.2-.18c2.27-2.08,4.54-4.15,6.89-6.13l-.24.29c.82-1.51,1.71-3,2.57-4.46l2.61-4.44.88-1.5.65,1.56c1.55,3.72,2.88,7.54,4.5,11.22l-.29-.18c2,0,4,0,6-.11h.25l.14.27,2.28,4.38q1.15,2.18,2.15,4.43l-.19-.27q2.74,2.76,5.37,5.63c1.75,1.92,3.46,3.87,5.07,5.93Z"/><path d="M885.53,1515.4c1.89.29,3.77.63,5.63,1s3.72.82,5.56,1.27l.61.15v.66c0,1.67.08,3.33.05,5l-.23-.59c1.33,1.5,2.56,3.1,3.8,4.68l1.86,2.37c.62.79,1.26,1.56,1.91,2.33l0,.06,0,.06c.47,1.51,1,3,1.52,4.49s1.14,3,1.71,4.43l-.53-.38c2.67-.16,5.33-.3,8-.35h.41l.29.33c2,2.3,4.13,4.55,6.12,6.9l-.81-.37c1.67,0,3.33,0,5,.07h.64l.25.55q1.41,3,2.77,6.12L929,1554l3.19-2.81c.53-.47,1.08-.92,1.62-1.38s1.09-.91,1.64-1.36l.14.14c-.44.56-.9,1.1-1.36,1.64s-.91,1.09-1.38,1.62L930,1555l-.66.75-.53-.94q-1.65-2.92-3.23-5.88l.9.55c-1.67,0-3.33.08-5,.07H921l-.32-.37c-2-2.32-3.92-4.73-5.88-7.1l.7.32c-2.67-.05-5.33-.19-8-.35l-.43,0-.1-.36c-.43-1.52-.83-3.06-1.29-4.57s-1-3-1.48-4.51l.06.11c-.68-.73-1.37-1.46-2.09-2.17l-2.14-2.13c-1.42-1.42-2.86-2.83-4.2-4.32l-.22-.25v-.35c0-1.67,0-3.33.05-5l.62.81c-1.82-.55-3.63-1.12-5.44-1.73s-3.59-1.27-5.37-2Z"/><path d="M936.4,1548.38a.4.4,0,0,1,.09-.33c1.74-2.34,1-5.44,3.22-7.64a9.2,9.2,0,0,1,7.62-2.32.51.51,0,0,1,.43.75c-.69,1.14-1.41,2.3-2.22,3.38a3.6,3.6,0,0,1-1.12,2.46,1.5,1.5,0,0,1-.57,1.36,1.44,1.44,0,0,1-1.2,1.68,1.19,1.19,0,0,1-.31,1.64,8.94,8.94,0,0,1-2.52,1.29l-.35.42a1.34,1.34,0,0,1-.5.54,1.14,1.14,0,0,1-.77.25,3.72,3.72,0,0,1-.49.71,1.51,1.51,0,0,1-2.51-.66A3.53,3.53,0,0,1,936.4,1548.38Z"/><path d="M923.5,1568.5v-4l-2-5v-11l6,13,3,7s-5,10-2,13-5-4-5-4Z"/><polygon points="916 1594 906 1579 892 1572 901 1560 902 1553 907 1546 907 1559 910 1563 910 1575 916 1594"/><path d="M881,1516l-5,10-4,9-9,3s-12,21-14,24,16-13,16-13l-7,11-9,28s20-25,21-20,3-13,3-13,13-12,10-12,5-11,5-11l-8,7,2-13,3-6Z"/><path d="M819.92,1572.94c2-3.17,4.15-6.2,6.31-9.22l3.27-4.5c1.1-1.49,2.27-2.93,3.37-4.42a20.76,20.76,0,0,0,2.84-4.67,2.53,2.53,0,0,0,.13-.6.66.66,0,0,0,0-.23c0-.07,0,0-.14-.22a1.11,1.11,0,0,1-.15-.91,2.67,2.67,0,0,1,.31-.73,12,12,0,0,1,1.87-2.19,63.76,63.76,0,0,1,8.82-7l-.31.32,3.52-6.55,1.82-3.24.94-1.6a3.66,3.66,0,0,1,1.85-1.66,3.94,3.94,0,0,1,2.41,0,7.78,7.78,0,0,1,1.9.84,17.71,17.71,0,0,1,3.05,2.37,35.33,35.33,0,0,1,4.87,5.71l-.15.13c-.91-.84-1.81-1.69-2.75-2.48s-1.86-1.6-2.84-2.31a20.47,20.47,0,0,0-3-1.89,3.67,3.67,0,0,0-2.76-.5,1.64,1.64,0,0,0-.78.83l-.88,1.63-1.83,3.23-3.79,6.37-.13.21-.19.11a78.73,78.73,0,0,0-9.27,6,9.24,9.24,0,0,0-1.84,2c-.22.35-.38.78-.19,1,0,0,.19.21.23.37a1.25,1.25,0,0,1,.06.46,3.12,3.12,0,0,1-.14.76,18,18,0,0,1-1.11,2.65c-.42.85-.86,1.68-1.32,2.5-.93,1.64-1.89,3.25-3,4.79s-2.22,3-3.38,4.48a90.08,90.08,0,0,1-7.49,8.34Z"/><path d="M855.5,1543.5s6-18-2-17l-27.61,39.62,12.61-9.62s10,1,12-10,2,3,2,3Z"/><polygon points="888 1550 884 1559 879 1565 887 1559 888 1550"/><polygon points="899 1546 891 1537 891 1534 901 1546 899 1546"/><path d="M777.11,1318.45a16.69,16.69,0,0,1,1.74-2.6,29,29,0,0,1,2-2.31l-.19.27a25.92,25.92,0,0,1,2-3.36l.18-.28.21,0a13,13,0,0,0,2.37.11l-.29.18c.63-1.46.93-3.07,1.48-4.57l.56-1.54,1,1.48c.75,1.14,1.48,2.28,2.16,3.45l-.24-.29a35.6,35.6,0,0,1,2.65,2.51l.22.23,0,.15a28.5,28.5,0,0,1,.83,4.61l-.19.07a28.49,28.49,0,0,1-2.32-4.07l.26.37a35.6,35.6,0,0,1-2.88-2.23l-.16-.14-.08-.15c-.63-1.2-1.21-2.43-1.79-3.66l1.53-.06c-.77,1.4-1.78,2.69-2.47,4.12l-.09.19h-.19a13,13,0,0,0-2.37.11l.39-.25a25.92,25.92,0,0,1-1.15,3.75l-.07.16-.11.11a29,29,0,0,1-2.31,2,16.68,16.68,0,0,1-2.6,1.74Z"/><path d="M812.16,1297.1a15.93,15.93,0,0,1-2,1.07c-.69.31-1.4.58-2.11.83l.62-.81c0,.66.07,1.32.06,2v.37l-.22.23a16.16,16.16,0,0,1-1.78,1.6,20.38,20.38,0,0,0-1.81,1.57l.06-.11a18.83,18.83,0,0,0-1,3.63l-.05.31-.48.07a31.47,31.47,0,0,1-3.16.36l.7-.32c-.74,1-1.46,1.95-2.25,2.87l-.32.37h-.49c-.66,0-1.32,0-2-.07l.9-.55c-.45.76-.92,1.51-1.42,2.25l-.63.94-.56-.74a25.63,25.63,0,0,1-1.91-2.82l.14-.14a25.61,25.61,0,0,1,2.82,1.91l-1.19.19c.29-.84.62-1.67,1-2.48l.21-.51.69,0c.66,0,1.32-.07,2-.07l-.82.37c.78-.93,1.65-1.78,2.49-2.66l.33-.34.37,0a31.43,31.43,0,0,1,3.16.36l-.53.38a18.83,18.83,0,0,0,1.42-3.48v0l.05-.06a20.37,20.37,0,0,0,1.35-2,16.17,16.17,0,0,1,1.38-2l-.23.6c0-.66,0-1.32.06-2l0-.69.59-.12c.74-.15,1.48-.27,2.24-.36a15.92,15.92,0,0,1,2.3-.11Z"/><path d="M792,1310a.16.16,0,0,0,0-.13c-.69-.92-.4-2.15-1.27-3a3.63,3.63,0,0,0-3-.91.2.2,0,0,0-.17.3c.27.45.56.91.88,1.33a1.42,1.42,0,0,0,.44,1,.59.59,0,0,0,.22.54.57.57,0,0,0,.47.67.47.47,0,0,0,.12.65,3.53,3.53,0,0,0,1,.51l.14.17a.53.53,0,0,0,.2.21.45.45,0,0,0,.3.1,1.47,1.47,0,0,0,.19.28.6.6,0,0,0,1-.26A1.4,1.4,0,0,0,792,1310Z"/><path d="M797.13,1317.93v-1.58l.79-2V1310l-2.37,5.13-1.18,2.76s2,3.95.79,5.13,2-1.58,2-1.58Z"/><polygon points="800.09 1328 804.04 1322.08 809.57 1319.31 806.01 1314.57 805.62 1311.81 803.64 1309.05 803.64 1314.18 802.46 1315.76 802.46 1320.5 800.09 1328"/><path d="M813.91,1297.2l2,3.95,1.58,3.55,3.55,1.18s4.74,8.29,5.53,9.48-6.32-5.13-6.32-5.13l2.76,4.34,3.55,11.06s-7.9-9.87-8.29-7.9-1.18-5.13-1.18-5.13-5.13-4.74-3.95-4.74-2-4.34-2-4.34l3.16,2.76-.79-5.13-1.18-2.37Z"/><path d="M837.92,1319.77a17.34,17.34,0,0,1-3.31-3,20,20,0,0,1-1.37-1.76,13.13,13.13,0,0,1-1-2,20.68,20.68,0,0,1-.83-2.18,1.47,1.47,0,0,1-.05-.35.79.79,0,0,1,0-.25,1.79,1.79,0,0,1,.11-.19,1,1,0,0,0-.09-.18,3.07,3.07,0,0,0-.71-.71,37.92,37.92,0,0,0-3.8-2.08l-.16-.09-.15-.24c-.53-.82-1.06-1.64-1.58-2.46-.25-.42-.49-.84-.72-1.27l-.34-.65,0-.08h0s0,0,.05,0-.27-.06-.62.1a7.54,7.54,0,0,0-1.17.6c-.79.49-1.59,1.05-2.43,1.61l-.15-.13a10.34,10.34,0,0,1,1.7-2.54,6.6,6.6,0,0,1,1.23-1.08,2,2,0,0,1,.4-.23,2.22,2.22,0,0,1,.47-.19,2.07,2.07,0,0,1,1.3,0,1.72,1.72,0,0,1,.66.4l.25.27.11.14.05.08.38.63c.25.42.49.85.72,1.28.45.87.88,1.75,1.3,2.64l-.31-.32a22.75,22.75,0,0,1,3.35,3.07,6,6,0,0,1,.75.93,1.24,1.24,0,0,1,.14.34.63.63,0,0,1-.09.5c-.09.12,0,.07,0,0s0,0,0,0a1,1,0,0,0,.05.19,6.44,6.44,0,0,0,1.25,1.7c.5.53,1,1.07,1.45,1.63s.84,1.18,1.26,1.78a23,23,0,0,1,2.13,3.91Z"/><path d="M824,1308.06s-2.37-7.11.79-6.71l10.9,15.64-5-3.8a4.44,4.44,0,0,1-4.74-3.95c-.79-4.34-.79,1.18-.79,1.18Z"/><polygon points="811.15 1310.62 812.73 1314.18 814.7 1316.55 811.54 1314.18 811.15 1310.62"/><polygon points="806.8 1309.05 809.96 1305.49 809.96 1304.31 806.01 1309.05 806.8 1309.05"/><path d="M910.95,1631.91c2.08-1.47,4.21-2.87,6.31-4.31l6.39-4.19-.28.35c1.07-3.2,2.2-6.38,3.33-9.56s2.28-6.35,3.48-9.51l0-.1,0-.07c2.37-3.64,4.85-7.22,7.28-10.82l.12-.17.17-.05,3-.91.31-.09.18.24q1,1.28,1.94,2.55l2,2.53-.48,0,3-3,3-3-.1.19c.33-2.33.61-4.67.88-7l.06-.54.55.17,9.08,2.76.48.15v.54l.08,4-1.06-.76c2.49-.88,5-1.77,7.46-2.62l-.63.88a30.19,30.19,0,0,1,.44-5.21,11.68,11.68,0,0,1,.77-2.65,4.66,4.66,0,0,1,.88-1.35,2.62,2.62,0,0,1,1.84-.83l-1,.91a22,22,0,0,1,.91-4.15,10.41,10.41,0,0,1,.92-2.06,5.1,5.1,0,0,1,.8-1,2.85,2.85,0,0,1,1.39-.76,2.72,2.72,0,0,1,.87,0l.4.09.17,0c.08,0,.1,0,.05,0a.36.36,0,0,0-.24.16c-.05.1,0-.1,0-.33a5,5,0,0,0-.08-.82,19.58,19.58,0,0,0-1.12-3.63l-.18-.46.21-.39a22.38,22.38,0,0,1,1.53-2.52,11.17,11.17,0,0,1,2.06-2.3,3,3,0,0,1,1.85-.73,1.67,1.67,0,0,1,.62.11l.25.08h0a1.22,1.22,0,0,0,.36,0,10.35,10.35,0,0,0,2.4-.89c1.64-.79,3.24-1.75,4.84-2.7s3.17-2,4.71-3l.16-.11h.15a10.36,10.36,0,0,1,2.67.51,8,8,0,0,1,2.39,1.27,5.32,5.32,0,0,1,1.62,2.15,6.19,6.19,0,0,1,.42,2.6h-.2a6.16,6.16,0,0,0-.63-2.41,4.75,4.75,0,0,0-1.61-1.8,7.26,7.26,0,0,0-2.24-1,9.73,9.73,0,0,0-2.41-.31l.31-.1c-1.5,1.15-3,2.26-4.57,3.33a49,49,0,0,1-4.86,3,11.69,11.69,0,0,1-2.83,1.14,2.81,2.81,0,0,1-1,0l-.36-.11c-.12,0-.06,0-.09,0s0,0-.06,0a1.42,1.42,0,0,0-.67.38,15.72,15.72,0,0,0-2.93,4.27l0-.86a21.43,21.43,0,0,1,1.32,4.05,7.07,7.07,0,0,1,.14,1.18,2.69,2.69,0,0,1-.41,1.61,1.79,1.79,0,0,1-1.08.69,2.35,2.35,0,0,1-.95,0l-.41-.11h-.13c-.15,0-.52.32-.79.79a8.37,8.37,0,0,0-.72,1.63,23.06,23.06,0,0,0-.88,3.72l-.13.87-.89,0a.55.55,0,0,0-.39.2,2.7,2.7,0,0,0-.5.75,9.81,9.81,0,0,0-.67,2.18,28.41,28.41,0,0,0-.51,4.84l0,.68-.62.2c-2.51.82-5,1.59-7.54,2.38l-1.08.34,0-1.1.08-4,.49.68-8.92-3.24.61-.38c-.4,2.32-.78,4.65-1.12,7l0,.12-.08.08-3,3-3,3-.25.25-.23-.28-2-2.47q-1-1.24-2.06-2.45l.49.15-3,1.09.29-.22c-2.24,3.73-4.42,7.49-6.72,11.18l.08-.17c-1.14,3.18-2.32,6.34-3.52,9.49s-2.4,6.31-3.67,9.44l-.1.24-.19.11-6.61,3.81c-2.23,1.23-4.44,2.5-6.69,3.69Z"/><polygon points="979.5 1576.5 980.5 1562.5 977.62 1564.14 979.5 1576.5"/><polygon points="985 1599 986 1586 989 1563 983 1581 985 1599"/><path d="M972,1619l4-18,2-15-6,18a11.79,11.79,0,0,0-5,10c0,7-6-7-6-7l-9-4-3,4,4-1s9,13,9,8l8,10s2,5,4,3,1,9,1,9l10,17,3-8s-8-22-12-20Z"/><path d="M944,1615s-3,11-7,12-7,2-7,2l7-5Z"/><path d="M941,1633l-7,9,2,2S944,1633,941,1633Z"/><path d="M950,1615v11l10,13,4,14a24.18,24.18,0,0,0,0-16s4-10-6-12Z"/><polygon points="984 1611 986 1626 990 1631 984 1611"/><path d="M996,1560l6,3,4,19s5,3,5,12,14,13,14,13,17,0,17,17c0,0,15,13,16,13s-31-14-31-19l-14-13,12,19v12l9,17s-26-15-28-24-7-12-7-12l10,5s-10-29-7-30l-5,11-1-28,2-4Z"/><polygon points="961 1602 958 1592 952 1585 961 1588 961 1602"/><polygon points="942 1605 945 1598 940 1596 942 1605"/><line class="cls-1" x1="968.88" y1="1585" x2="975" y2="1579"/><path d="M1032,1635l7,4-11-11S1029,1635,1032,1635Z"/><path d="M1089.93,1702.07c-2.06-1.61-4-3.32-5.93-5.07s-3.79-3.54-5.63-5.37l-.12-.12-.07-.15q-1-2.25-1.85-4.57l-1.72-4.62.39.25c-2-.1-4-.15-6-.11h-.2l-.09-.19c-1.7-3.65-3.71-7.16-5.49-10.77l1.53.06-2.39,4.56c-.81,1.51-1.58,3-2.43,4.54l-.09.17-.14.13c-2.32,2-4.71,3.95-7.11,5.87l.26-.37q-1.11,2.71-2.29,5.39t-2.45,5.34l-.19-.07q.71-2.86,1.55-5.66t1.71-5.61l.06-.19.2-.18c2.27-2.08,4.54-4.15,6.89-6.13l-.24.29c.82-1.51,1.71-3,2.57-4.46l2.61-4.44.88-1.5.65,1.56c1.55,3.72,2.88,7.54,4.5,11.22l-.29-.18c2,0,4,0,6-.11h.25l.14.27,2.28,4.38q1.15,2.18,2.15,4.43l-.19-.27q2.74,2.76,5.37,5.63c1.75,1.92,3.46,3.87,5.07,5.93Z"/><path d="M1001.53,1647.4c1.89.29,3.77.63,5.63,1s3.72.82,5.56,1.27l.61.15v.66c0,1.67.08,3.33.05,5l-.23-.59c1.33,1.5,2.56,3.1,3.8,4.68l1.86,2.37c.62.79,1.26,1.56,1.91,2.33l0,.06,0,.06c.47,1.51,1,3,1.52,4.49s1.14,3,1.71,4.43l-.53-.38c2.67-.16,5.33-.3,8-.35h.41l.29.33c2,2.3,4.13,4.55,6.12,6.9l-.81-.37c1.67,0,3.33,0,5,.07h.64l.25.55q1.41,3,2.77,6.12L1045,1686l3.19-2.81c.53-.47,1.08-.92,1.62-1.38s1.09-.91,1.64-1.36l.14.14c-.44.56-.9,1.1-1.36,1.64s-.91,1.09-1.38,1.62L1046,1687l-.66.75-.53-.94q-1.65-2.92-3.23-5.88l.9.55c-1.67,0-3.33.08-5,.07H1037l-.32-.37c-2-2.32-3.92-4.73-5.88-7.1l.7.32c-2.67-.05-5.33-.19-8-.35l-.43,0-.1-.36c-.43-1.52-.83-3.06-1.29-4.57s-1-3-1.48-4.51l.06.11c-.68-.73-1.37-1.46-2.09-2.17l-2.14-2.13c-1.42-1.42-2.86-2.83-4.2-4.32l-.22-.25v-.35c0-1.67,0-3.33.05-5l.62.81c-1.82-.55-3.63-1.12-5.44-1.73s-3.59-1.27-5.37-2Z"/><path d="M1052.4,1680.38a.4.4,0,0,1,.09-.33c1.74-2.34,1-5.44,3.22-7.64a9.2,9.2,0,0,1,7.62-2.32.51.51,0,0,1,.43.75c-.69,1.14-1.41,2.3-2.22,3.38a3.6,3.6,0,0,1-1.12,2.46,1.5,1.5,0,0,1-.57,1.36,1.44,1.44,0,0,1-1.2,1.68,1.19,1.19,0,0,1-.31,1.64,8.94,8.94,0,0,1-2.52,1.29l-.35.42a1.34,1.34,0,0,1-.5.54,1.14,1.14,0,0,1-.77.25,3.72,3.72,0,0,1-.49.71,1.51,1.51,0,0,1-2.51-.66A3.53,3.53,0,0,1,1052.4,1680.38Z"/><path d="M1039.5,1700.5v-4l-2-5v-11l6,13,3,7s-5,10-2,13-5-4-5-4Z"/><polygon points="1032 1726 1022 1711 1008 1704 1017 1692 1018 1685 1023 1678 1023 1691 1026 1695 1026 1707 1032 1726"/><path d="M997,1648l-5,10-4,9-9,3s-12,21-14,24,16-13,16-13l-7,11-9,28s20-25,21-20,3-13,3-13,13-12,10-12,5-11,5-11l-8,7,2-13,3-6Z"/><path d="M935.92,1704.94c2-3.17,4.15-6.2,6.31-9.22l3.27-4.5c1.1-1.49,2.27-2.93,3.37-4.42a20.76,20.76,0,0,0,2.84-4.67,2.53,2.53,0,0,0,.13-.6.66.66,0,0,0,0-.23c0-.07,0,0-.14-.22a1.11,1.11,0,0,1-.15-.91,2.67,2.67,0,0,1,.31-.73,12,12,0,0,1,1.87-2.19,63.76,63.76,0,0,1,8.82-7l-.31.32,3.52-6.55,1.82-3.24.94-1.6a3.66,3.66,0,0,1,1.85-1.66,3.94,3.94,0,0,1,2.41,0,7.78,7.78,0,0,1,1.9.84,17.71,17.71,0,0,1,3.05,2.37,35.33,35.33,0,0,1,4.87,5.71l-.15.13c-.91-.84-1.81-1.69-2.75-2.48s-1.86-1.6-2.84-2.31a20.47,20.47,0,0,0-3-1.89,3.67,3.67,0,0,0-2.76-.5,1.64,1.64,0,0,0-.78.83l-.88,1.63-1.83,3.23-3.79,6.37-.13.21-.19.11a78.73,78.73,0,0,0-9.27,6,9.24,9.24,0,0,0-1.84,2c-.22.35-.38.78-.19,1,0,0,.19.21.23.37a1.25,1.25,0,0,1,.06.46,3.12,3.12,0,0,1-.14.76,18,18,0,0,1-1.11,2.65c-.42.85-.86,1.68-1.32,2.5-.93,1.64-1.89,3.25-3,4.79s-2.22,3-3.38,4.48a90.08,90.08,0,0,1-7.49,8.34Z"/><path d="M971.5,1675.5s6-18-2-17l-27.61,39.62,12.61-9.62s10,1,12-10,2,3,2,3Z"/><polygon points="1004 1682 1000 1691 995 1697 1003 1691 1004 1682"/><polygon points="1015 1678 1007 1669 1007 1666 1017 1678 1015 1678"/><path d="M1023.93,1750.07c-2.06-1.61-4-3.32-5.93-5.07s-3.79-3.54-5.63-5.37l-.12-.12-.07-.15q-1-2.25-1.85-4.57l-1.72-4.62.39.25c-2-.1-4-.15-6-.11h-.2l-.09-.19c-1.7-3.65-3.71-7.16-5.49-10.77l1.53.06-2.39,4.56c-.81,1.51-1.58,3-2.43,4.54l-.09.17-.14.13c-2.32,2-4.71,3.95-7.11,5.87l.26-.37q-1.11,2.71-2.29,5.39t-2.45,5.34l-.19-.07q.71-2.86,1.55-5.66t1.71-5.61l.06-.19.2-.18c2.27-2.08,4.54-4.15,6.89-6.13l-.24.29c.82-1.51,1.71-3,2.57-4.46l2.61-4.44.88-1.5.65,1.56c1.55,3.72,2.88,7.54,4.5,11.22l-.29-.18c2,0,4,0,6-.11h.25l.14.27,2.28,4.38q1.15,2.18,2.15,4.43l-.19-.27q2.74,2.76,5.37,5.63c1.75,1.92,3.46,3.87,5.07,5.93Z"/><path d="M935.53,1695.4c1.89.29,3.77.63,5.63,1s3.72.82,5.56,1.27l.61.15v.66c0,1.67.08,3.33.05,5l-.23-.59c1.33,1.5,2.56,3.1,3.8,4.68l1.86,2.37c.62.79,1.26,1.56,1.91,2.33l0,.06,0,.06c.47,1.51,1,3,1.52,4.49s1.14,3,1.71,4.43l-.53-.38c2.67-.16,5.33-.3,8-.35h.41l.29.33c2,2.3,4.13,4.55,6.12,6.9l-.81-.37c1.67,0,3.33,0,5,.07h.64l.25.55q1.41,3,2.77,6.12L979,1734l3.19-2.81c.53-.47,1.08-.92,1.62-1.38s1.09-.91,1.64-1.36l.14.14c-.44.56-.9,1.1-1.36,1.64s-.91,1.09-1.38,1.62L980,1735l-.66.75-.53-.94q-1.65-2.92-3.23-5.88l.9.55c-1.67,0-3.33.08-5,.07H971l-.32-.37c-2-2.32-3.92-4.73-5.88-7.1l.7.32c-2.67-.05-5.33-.19-8-.35l-.43,0-.1-.36c-.43-1.52-.83-3.06-1.29-4.57s-1-3-1.48-4.51l.06.11c-.68-.73-1.37-1.46-2.09-2.17l-2.14-2.13c-1.42-1.42-2.86-2.83-4.2-4.32l-.22-.25v-.35c0-1.67,0-3.33.05-5l.62.81c-1.82-.55-3.63-1.12-5.44-1.73s-3.59-1.27-5.37-2Z"/><path d="M986.4,1728.38a.4.4,0,0,1,.09-.33c1.74-2.34,1-5.44,3.22-7.64a9.2,9.2,0,0,1,7.62-2.32.51.51,0,0,1,.43.75c-.69,1.14-1.41,2.3-2.22,3.38a3.6,3.6,0,0,1-1.12,2.46,1.5,1.5,0,0,1-.57,1.36,1.44,1.44,0,0,1-1.2,1.68,1.19,1.19,0,0,1-.31,1.64,8.94,8.94,0,0,1-2.52,1.29l-.35.42a1.34,1.34,0,0,1-.5.54,1.14,1.14,0,0,1-.77.25,3.72,3.72,0,0,1-.49.71,1.51,1.51,0,0,1-2.51-.66A3.53,3.53,0,0,1,986.4,1728.38Z"/><path d="M973.5,1748.5v-4l-2-5v-11l6,13,3,7s-5,10-2,13-5-4-5-4Z"/><polygon points="966 1774 956 1759 942 1752 951 1740 952 1733 957 1726 957 1739 960 1743 960 1755 966 1774"/><path d="M931,1696l-5,10-4,9-9,3s-12,21-14,24,16-13,16-13l-7,11-9,28s20-25,21-20,3-13,3-13,13-12,10-12,5-11,5-11l-8,7,2-13,3-6Z"/><path d="M869.92,1752.94c2-3.17,4.15-6.2,6.31-9.22l3.27-4.5c1.1-1.49,2.27-2.93,3.37-4.42a20.76,20.76,0,0,0,2.84-4.67,2.53,2.53,0,0,0,.13-.6.66.66,0,0,0,0-.23c0-.07,0,0-.14-.22a1.11,1.11,0,0,1-.15-.91,2.67,2.67,0,0,1,.31-.73,12,12,0,0,1,1.87-2.19,63.76,63.76,0,0,1,8.82-7l-.31.32,3.52-6.55,1.82-3.24.94-1.6a3.66,3.66,0,0,1,1.85-1.66,3.94,3.94,0,0,1,2.41,0,7.78,7.78,0,0,1,1.9.84,17.71,17.71,0,0,1,3.05,2.37,35.33,35.33,0,0,1,4.87,5.71l-.15.13c-.91-.84-1.81-1.69-2.75-2.48s-1.86-1.6-2.84-2.31a20.47,20.47,0,0,0-3-1.89,3.67,3.67,0,0,0-2.76-.5,1.64,1.64,0,0,0-.78.83l-.88,1.63-1.83,3.23-3.79,6.37-.13.21-.19.11a78.73,78.73,0,0,0-9.27,6,9.24,9.24,0,0,0-1.84,2c-.22.35-.38.78-.19,1,0,0,.19.21.23.37a1.25,1.25,0,0,1,.06.46,3.12,3.12,0,0,1-.14.76,18,18,0,0,1-1.11,2.65c-.42.85-.86,1.68-1.32,2.5-.93,1.64-1.89,3.25-3,4.79s-2.22,3-3.38,4.48a90.08,90.08,0,0,1-7.49,8.34Z"/><path d="M905.5,1723.5s6-18-2-17l-27.61,39.62,12.61-9.62s10,1,12-10,2,3,2,3Z"/><polygon points="938 1730 934 1739 929 1745 937 1739 938 1730"/><polygon points="949 1726 941 1717 941 1714 951 1726 949 1726"/><path d="M902.93,1807.93c1.61-2.06,3.32-4,5.07-5.93s3.54-3.79,5.37-5.63l-.19.27q1-2.25,2.15-4.43l2.28-4.38.14-.27H918c2,.1,4,.15,6,.11l-.29.18c1.63-3.68,3-7.51,4.5-11.22l.65-1.56.88,1.5,2.61,4.44c.86,1.49,1.75,3,2.57,4.46l-.24-.29c2.35,2,4.62,4.05,6.89,6.13l.2.18.06.19q.89,2.79,1.71,5.61t1.55,5.66l-.19.07q-1.29-2.64-2.45-5.34t-2.29-5.39l.26.37c-2.4-1.92-4.79-3.85-7.11-5.87l-.14-.13-.09-.17c-.84-1.49-1.62-3-2.43-4.54l-2.39-4.56,1.53-.06c-1.78,3.61-3.79,7.13-5.49,10.77l-.09.19H924c-2,0-4,0-6,.11l.39-.25-1.72,4.62q-.85,2.32-1.85,4.57l-.07.15-.12.12q-2.76,2.74-5.63,5.37c-1.92,1.75-3.87,3.46-5.93,5.07Z"/><path d="M991.53,1753.6c-1.78.71-3.57,1.37-5.37,2s-3.62,1.18-5.44,1.73l.62-.81c0,1.67.08,3.33.05,5v.35l-.22.25c-1.34,1.5-2.77,2.9-4.2,4.32l-2.14,2.13c-.72.71-1.4,1.44-2.09,2.17l.06-.11c-.53,1.49-1,3-1.48,4.51s-.86,3-1.29,4.57l-.1.36-.43,0c-2.67.16-5.33.3-8,.35l.7-.32c-2,2.36-3.87,4.78-5.88,7.1l-.32.37h-.49c-1.67,0-3.33,0-5-.07l.9-.55q-1.59,3-3.23,5.88l-.53.94L947,1793l-2.81-3.19c-.47-.53-.92-1.08-1.38-1.62s-.91-1.09-1.36-1.64l.14-.14c.56.44,1.1.9,1.64,1.36s1.09.91,1.62,1.38L948,1792l-1.19.19q1.35-3.08,2.77-6.12l.25-.55h.64c1.67,0,3.33-.08,5-.07l-.81.37c2-2.35,4.08-4.6,6.12-6.9l.29-.33h.41c2.67.05,5.33.19,8,.35l-.53.38c.57-1.48,1.17-2.94,1.71-4.43s1-3,1.52-4.49l0-.06,0-.06c.65-.77,1.29-1.54,1.91-2.33l1.86-2.37c1.24-1.58,2.47-3.17,3.8-4.68l-.23.59c0-1.67,0-3.33.05-5v-.66l.61-.15c1.85-.45,3.7-.88,5.56-1.27s3.74-.73,5.63-1Z"/><path d="M940.6,1786.38a.4.4,0,0,0-.09-.33c-1.74-2.34-1-5.44-3.22-7.64a9.2,9.2,0,0,0-7.62-2.32.51.51,0,0,0-.43.75c.69,1.14,1.41,2.3,2.22,3.38a3.6,3.6,0,0,0,1.12,2.46,1.5,1.5,0,0,0,.57,1.36,1.44,1.44,0,0,0,1.2,1.68,1.19,1.19,0,0,0,.31,1.64,8.94,8.94,0,0,0,2.52,1.29l.35.42a1.34,1.34,0,0,0,.5.54,1.14,1.14,0,0,0,.77.25,3.72,3.72,0,0,0,.49.71,1.51,1.51,0,0,0,2.51-.66A3.53,3.53,0,0,0,940.6,1786.38Z"/><path d="M953.5,1806.5v-4l2-5v-11l-6,13-3,7s5,10,2,13,5-4,5-4Z"/><polygon points="961 1832 971 1817 985 1810 976 1798 975 1791 970 1784 970 1797 967 1801 967 1813 961 1832"/><path d="M996,1754l5,10,4,9,9,3s12,21,14,24-16-13-16-13l7,11,9,28s-20-25-21-20-3-13-3-13-13-12-10-12-5-11-5-11l8,7-2-13-3-6Z"/><path d="M1056.92,1811.06a90,90,0,0,1-7.49-8.34c-1.16-1.47-2.31-2.94-3.38-4.47s-2-3.15-3-4.79c-.46-.82-.9-1.65-1.32-2.5a17.94,17.94,0,0,1-1.11-2.65,3.12,3.12,0,0,1-.14-.76,1.25,1.25,0,0,1,.06-.46c0-.16.24-.36.23-.37.19-.18,0-.61-.19-1a9.24,9.24,0,0,0-1.84-2,78.73,78.73,0,0,0-9.27-6l-.19-.11-.13-.21-3.79-6.37-1.83-3.23-.88-1.63a1.64,1.64,0,0,0-.78-.83,3.67,3.67,0,0,0-2.76.5,20.46,20.46,0,0,0-3,1.89c-1,.72-1.92,1.5-2.84,2.31s-1.84,1.64-2.75,2.48l-.15-.13a35.33,35.33,0,0,1,4.87-5.71,17.72,17.72,0,0,1,3.05-2.37,7.78,7.78,0,0,1,1.9-.84,3.94,3.94,0,0,1,2.41,0,3.66,3.66,0,0,1,1.85,1.66l.94,1.6,1.82,3.24,3.52,6.55-.31-.32a63.79,63.79,0,0,1,8.82,7,12,12,0,0,1,1.87,2.19,2.67,2.67,0,0,1,.31.73,1.11,1.11,0,0,1-.15.91c-.13.19-.12.14-.14.22a.66.66,0,0,0,0,.23,2.53,2.53,0,0,0,.13.6,20.76,20.76,0,0,0,2.84,4.67c1.09,1.49,2.26,2.93,3.37,4.42l3.27,4.5c2.16,3,4.31,6.06,6.31,9.22Z"/><path d="M1021.5,1781.5s-6-18,2-17l27.61,39.62-12.61-9.62s-10,1-12-10-2,3-2,3Z"/><polygon points="989 1788 993 1797 998 1803 990 1797 989 1788"/><polygon points="978 1784 986 1775 986 1772 976 1784 978 1784"/><path d="M812.93,1867.93c1.61-2.06,3.32-4,5.07-5.93s3.54-3.79,5.37-5.63l-.19.27q1-2.25,2.15-4.43l2.28-4.38.14-.27H828c2,.1,4,.15,6,.11l-.29.18c1.63-3.68,3-7.51,4.5-11.22l.65-1.56.88,1.5,2.61,4.44c.86,1.49,1.75,3,2.57,4.46l-.24-.29c2.35,2,4.62,4.05,6.89,6.13l.2.18.06.19q.89,2.79,1.71,5.61t1.55,5.66l-.19.07q-1.29-2.64-2.45-5.34t-2.29-5.39l.26.37c-2.4-1.92-4.79-3.85-7.11-5.87l-.14-.13-.09-.17c-.84-1.49-1.62-3-2.43-4.54l-2.39-4.56,1.53-.06c-1.78,3.61-3.79,7.13-5.49,10.77l-.09.19H834c-2,0-4,0-6,.11l.39-.25-1.72,4.62q-.85,2.32-1.85,4.57l-.07.15-.12.12q-2.76,2.74-5.63,5.37c-1.92,1.75-3.87,3.46-5.93,5.07Z"/><path d="M901.53,1813.6c-1.78.71-3.57,1.37-5.37,2s-3.62,1.18-5.44,1.73l.62-.81c0,1.67.08,3.33.05,5v.35l-.22.25c-1.34,1.5-2.77,2.9-4.2,4.32l-2.14,2.13c-.72.71-1.4,1.44-2.09,2.17l.06-.11c-.53,1.49-1,3-1.48,4.51s-.86,3-1.29,4.57l-.1.36-.43,0c-2.67.16-5.33.3-8,.35l.7-.32c-2,2.36-3.87,4.78-5.88,7.1l-.32.37h-.49c-1.67,0-3.33,0-5-.07l.9-.55q-1.59,3-3.23,5.88l-.53.94L857,1853l-2.81-3.19c-.47-.53-.92-1.08-1.38-1.62s-.91-1.09-1.36-1.64l.14-.14c.56.44,1.1.9,1.64,1.36s1.09.91,1.62,1.38L858,1852l-1.19.19q1.35-3.08,2.77-6.12l.25-.55h.64c1.67,0,3.33-.08,5-.07l-.81.37c2-2.35,4.08-4.6,6.12-6.9l.29-.33h.41c2.67.05,5.33.19,8,.35l-.53.38c.57-1.48,1.17-2.94,1.71-4.43s1-3,1.52-4.49l0-.06,0-.06c.65-.77,1.29-1.54,1.91-2.33l1.86-2.37c1.24-1.58,2.47-3.17,3.8-4.68l-.23.59c0-1.67,0-3.33.05-5v-.66l.61-.15c1.85-.45,3.7-.88,5.56-1.27s3.74-.73,5.63-1Z"/><path d="M850.6,1846.38a.4.4,0,0,0-.09-.33c-1.74-2.34-1-5.44-3.22-7.64a9.2,9.2,0,0,0-7.62-2.32.51.51,0,0,0-.43.75c.69,1.14,1.41,2.3,2.22,3.38a3.6,3.6,0,0,0,1.12,2.46,1.5,1.5,0,0,0,.57,1.36,1.44,1.44,0,0,0,1.2,1.68,1.19,1.19,0,0,0,.31,1.64,8.94,8.94,0,0,0,2.52,1.29l.35.42a1.34,1.34,0,0,0,.5.54,1.14,1.14,0,0,0,.77.25,3.72,3.72,0,0,0,.49.71,1.51,1.51,0,0,0,2.51-.66A3.53,3.53,0,0,0,850.6,1846.38Z"/><path d="M863.5,1866.5v-4l2-5v-11l-6,13-3,7s5,10,2,13,5-4,5-4Z"/><polygon points="871 1892 881 1877 895 1870 886 1858 885 1851 880 1844 880 1857 877 1861 877 1873 871 1892"/><path d="M906,1814l5,10,4,9,9,3s12,21,14,24-16-13-16-13l7,11,9,28s-20-25-21-20-3-13-3-13-13-12-10-12-5-11-5-11l8,7-2-13-3-6Z"/><path d="M966.92,1871.06a90,90,0,0,1-7.49-8.34c-1.16-1.47-2.31-2.94-3.38-4.47s-2-3.15-3-4.79c-.46-.82-.9-1.65-1.32-2.5a17.94,17.94,0,0,1-1.11-2.65,3.12,3.12,0,0,1-.14-.76,1.25,1.25,0,0,1,.06-.46c0-.16.24-.36.23-.37.19-.18,0-.61-.19-1a9.24,9.24,0,0,0-1.84-2,78.73,78.73,0,0,0-9.27-6l-.19-.11-.13-.21-3.79-6.37-1.83-3.23-.88-1.63a1.64,1.64,0,0,0-.78-.83,3.67,3.67,0,0,0-2.76.5,20.46,20.46,0,0,0-3,1.89c-1,.72-1.92,1.5-2.84,2.31s-1.84,1.64-2.75,2.48l-.15-.13a35.33,35.33,0,0,1,4.87-5.71,17.72,17.72,0,0,1,3.05-2.37,7.78,7.78,0,0,1,1.9-.84,3.94,3.94,0,0,1,2.41,0,3.66,3.66,0,0,1,1.85,1.66l.94,1.6,1.82,3.24,3.52,6.55-.31-.32a63.79,63.79,0,0,1,8.82,7,12,12,0,0,1,1.87,2.19,2.67,2.67,0,0,1,.31.73,1.11,1.11,0,0,1-.15.91c-.13.19-.12.14-.14.22a.66.66,0,0,0,0,.23,2.53,2.53,0,0,0,.13.6,20.76,20.76,0,0,0,2.84,4.67c1.09,1.49,2.26,2.93,3.37,4.42l3.27,4.5c2.16,3,4.31,6.06,6.31,9.22Z"/><path d="M931.5,1841.5s-6-18,2-17l27.61,39.62-12.61-9.62s-10,1-12-10-2,3-2,3Z"/><polygon points="899 1848 903 1857 908 1863 900 1857 899 1848"/><polygon points="888 1844 896 1835 896 1832 886 1844 888 1844"/><path d="M844,1953s-3-30,1-32,1-22,0-22,0-15,0-15l13,5s4,12,0,15-4,17-4,17l-3,10-5,10Z"/><path d="M825,1885l10,5v5l-1,2-1,21-3-3s-3,7-3,11S825,1885,825,1885Z"/><path d="M863,1885l6,3v18s1,19-1,20-2,10-2,10l-1-26S860,1895,863,1885Z"/><polygon points="877 1902 880 1910 880 1930 883 1943 875 1926 877 1902"/><path d="M888,1904v6l3,2s-1,25,0,28-3-6-3-6v-4l-5-6S881,1898,888,1904Z"/><polygon points="806 1922 812 1906 810 1896 806 1922"/><polygon points="858 1930 860 1922 859 1909 856 1912 858 1930"/><polygon points="872 1944 869 1936 869 1932 866 1936 872 1944"/><polygon points="822 1936 825 1934 824 1922 822 1933 822 1936"/><path d="M790.9,1935c-.09-.75-.16-1.5-.22-2.25s-.14-1.5-.18-2.25c-.11-1.5-.17-3-.24-4.5v-.28l.23-.25c1.29-1.38,2.58-2.75,3.9-4.1l-.26.63c0-1,0-2,0-3s0-2,.11-3l.35-6,0-.36.31-.06q2-.39,4-.88l-.23.3c0-1.08,0-2.17,0-3.25s-.06-2.17-.12-3.25l-.33-6.5,0-.41.4-.27c1.62-1.08,3.27-2.11,4.91-3.14l4.94-3.1,1.13-.71.43,1.28,1,3-2-.14c1.37-2.65,2.76-5.29,4.21-7.9l.27-.48.48,0c1.83.07,3.67.19,5.5.3s3.67.26,5.5.44v.2c-1.83.18-3.67.34-5.5.44s-3.67.23-5.5.3l.75-.46c-1.22,2.73-2.49,5.42-3.79,8.1l-1.15,2.37-.83-2.51-1-3,1.56.58-5.06,2.9c-1.69,1-3.37,1.94-5.09,2.86l.38-.67-.33,6.5q-.09,1.63-.12,3.25c0,1.08,0,2.17,0,3.25v.24l-.24.06q-2,.51-4,1.12l.33-.42.35,6c.07,1,.08,2,.11,3s0,2,0,3v.38l-.25.25c-1.34,1.32-2.72,2.62-4.1,3.9l.22-.53c-.07,1.5-.14,3-.24,4.5,0,.75-.12,1.5-.18,2.25s-.13,1.5-.22,2.25Z"/><path d="M835.45,1889.41a3.82,3.82,0,0,1,.9-1.33,3.15,3.15,0,0,1,1.22-.8,12.15,12.15,0,0,0,1.51-.31,2.88,2.88,0,0,0,1.13-.94,5.58,5.58,0,0,1,1-1.09,6.58,6.58,0,0,1,1.19-.86,6.09,6.09,0,0,1,3-.67l.1.17a6.1,6.1,0,0,1-2,2.33,6.58,6.58,0,0,1-1.31.64,5.58,5.58,0,0,1-1.45.41,2.88,2.88,0,0,0-1.37.56,12.15,12.15,0,0,0-1,1.19,3.15,3.15,0,0,1-1.28.7,3.82,3.82,0,0,1-1.6.17Z"/><path d="M858.42,1889.44a1.93,1.93,0,0,1,0-1,1,1,0,0,1,.46-.66c.27-.13.69-.13.9-.31a1,1,0,0,0,.32-.77,2.11,2.11,0,0,1,.19-.87,2,2,0,0,1,.4-.7,2.53,2.53,0,0,1,1.76-.65l.16.13a2.53,2.53,0,0,1-.24,1.85,2,2,0,0,1-.6.55,2.11,2.11,0,0,1-.81.38,1,1,0,0,0-.68.48c-.12.25,0,.66-.1.94a1,1,0,0,1-.54.59,1.93,1.93,0,0,1-1,.2Z"/><path d="M869.56,1887.42a7.34,7.34,0,0,1,2.14.7,7.42,7.42,0,0,1,1.8,1.19c.52.51.92,1.17,1.45,1.67a5.86,5.86,0,0,0,1.84,1.12l.12,0,.09.36a13.26,13.26,0,0,1,.43,2.25,18,18,0,0,1,.14,2.25,14,14,0,0,1-.27,2.25,10.21,10.21,0,0,1-.7,2.25h-.2a10.21,10.21,0,0,1-.7-2.25,14,14,0,0,1-.27-2.25,18,18,0,0,1,.14-2.25,13.26,13.26,0,0,1,.43-2.25l.21.41a5.86,5.86,0,0,0-1.66-1.38c-.64-.34-1.4-.51-2-.83a7.42,7.42,0,0,1-1.7-1.31,7.34,7.34,0,0,1-1.36-1.8Z"/><path d="M784,1983s-3-30,1-32,1-22,0-22,0-15,0-15l13,5s4,12,0,15-4,17-4,17l-3,10-5,10Z"/><path d="M765,1915l10,5v5l-1,2-1,21-3-3s-3,7-3,11S765,1915,765,1915Z"/><path d="M803,1915l6,3v18s1,19-1,20-2,10-2,10l-1-26S800,1925,803,1915Z"/><polygon points="817 1932 820 1940 820 1960 823 1973 815 1956 817 1932"/><path d="M828,1934v6l3,2s-1,25,0,28-3-6-3-6v-4l-5-6S821,1928,828,1934Z"/><polygon points="746 1952 752 1936 750 1926 746 1952"/><polygon points="798 1960 800 1952 799 1939 796 1942 798 1960"/><polygon points="812 1974 809 1966 809 1962 806 1966 812 1974"/><polygon points="762 1966 765 1964 764 1952 762 1963 762 1966"/><path d="M730.9,1965c-.09-.75-.16-1.5-.22-2.25s-.14-1.5-.18-2.25c-.11-1.5-.17-3-.24-4.5v-.28l.23-.25c1.29-1.38,2.58-2.75,3.9-4.1l-.26.63c0-1,0-2,0-3s0-2,.11-3l.35-6,0-.36.31-.06q2-.39,4-.88l-.23.3c0-1.08,0-2.17,0-3.25s-.06-2.17-.12-3.25l-.33-6.5,0-.41.4-.27c1.62-1.08,3.27-2.11,4.91-3.14l4.94-3.1,1.13-.71.43,1.28,1,3-2-.14c1.37-2.65,2.76-5.29,4.21-7.9l.27-.48.48,0c1.83.07,3.67.19,5.5.3s3.67.26,5.5.44v.2c-1.83.18-3.67.34-5.5.44s-3.67.23-5.5.3l.75-.46c-1.22,2.73-2.49,5.42-3.79,8.1l-1.15,2.37-.83-2.51-1-3,1.56.58-5.06,2.9c-1.69,1-3.37,1.94-5.09,2.86l.38-.67-.33,6.5q-.09,1.63-.12,3.25c0,1.08,0,2.17,0,3.25v.24l-.24.06q-2,.51-4,1.12l.33-.42.35,6c.07,1,.08,2,.11,3s0,2,0,3v.38l-.25.25c-1.34,1.32-2.72,2.62-4.1,3.9l.22-.53c-.07,1.5-.14,3-.24,4.5,0,.75-.12,1.5-.18,2.25s-.13,1.5-.22,2.25Z"/><path d="M775.45,1919.41a3.82,3.82,0,0,1,.9-1.33,3.15,3.15,0,0,1,1.22-.8,12.15,12.15,0,0,0,1.51-.31,2.88,2.88,0,0,0,1.13-.94,5.58,5.58,0,0,1,1-1.09,6.58,6.58,0,0,1,1.19-.86,6.09,6.09,0,0,1,3-.67l.1.17a6.1,6.1,0,0,1-2,2.33,6.58,6.58,0,0,1-1.31.64,5.58,5.58,0,0,1-1.45.41,2.88,2.88,0,0,0-1.37.56,12.15,12.15,0,0,0-1,1.19,3.15,3.15,0,0,1-1.28.7,3.82,3.82,0,0,1-1.6.17Z"/><path d="M798.42,1919.44a1.93,1.93,0,0,1,0-1,1,1,0,0,1,.46-.66c.27-.13.69-.13.9-.31a1,1,0,0,0,.32-.77,2.11,2.11,0,0,1,.19-.87,2,2,0,0,1,.4-.7,2.53,2.53,0,0,1,1.76-.65l.16.13a2.53,2.53,0,0,1-.24,1.85,2,2,0,0,1-.6.55,2.11,2.11,0,0,1-.81.38,1,1,0,0,0-.68.48c-.12.25,0,.66-.1.94a1,1,0,0,1-.54.59,1.93,1.93,0,0,1-1,.2Z"/><path d="M809.56,1917.42a7.34,7.34,0,0,1,2.14.7,7.42,7.42,0,0,1,1.8,1.19c.52.51.92,1.17,1.45,1.67a5.86,5.86,0,0,0,1.84,1.12l.12,0,.09.36a13.26,13.26,0,0,1,.43,2.25,18,18,0,0,1,.14,2.25,14,14,0,0,1-.27,2.25,10.21,10.21,0,0,1-.7,2.25h-.2a10.21,10.21,0,0,1-.7-2.25,14,14,0,0,1-.27-2.25,18,18,0,0,1,.14-2.25,13.26,13.26,0,0,1,.43-2.25l.21.41a5.86,5.86,0,0,0-1.66-1.38c-.64-.34-1.4-.51-2-.83a7.42,7.42,0,0,1-1.7-1.31,7.34,7.34,0,0,1-1.36-1.8Z"/></svg>