<svg id="Layer_1" data-name="Layer 1" xmlns="http://www.w3.org/2000/svg" viewBox="0 0 2293 1709"><defs><style>.cls-1{fill:none;stroke:#000;stroke-miterlimit:10;stroke-width:2px;}.cls-2{opacity:0.58;}</style></defs><title>shards-coast-bottom</title><path d="M2293.72,758.62q-46.06,82.55-94.46,163.77c-16.19,27-32.57,54-49.6,80.5-8.53,13.26-17.19,26.44-26.19,39.39-4.51,6.47-9.1,12.89-13.89,19.19a206.45,206.45,0,0,1-15.26,18.24,54.71,54.71,0,0,0-12.08,19.41,78.53,78.53,0,0,0-4.37,22.68c-.84,15.55,1.35,31.17,3.7,46.7s5.18,31.12,6,47a115.61,115.61,0,0,1-1,24,62.8,62.8,0,0,1-8,22.83,53.43,53.43,0,0,1-7.49,9.66,91.85,91.85,0,0,1-9,8,156.93,156.93,0,0,1-20,13.07c-6.88,3.91-13.89,7.51-20.41,11.68s-12.53,9.06-16.19,15.53a31.68,31.68,0,0,0-3.69,10.4,29.63,29.63,0,0,0,.13,11c1.44,7.27,5.66,13.82,10.39,19.91s10.14,12,14.67,18.7a49.87,49.87,0,0,1,5.69,10.92,33.46,33.46,0,0,1,2,12.39l0,1.34-1.22.55-156,70.58-156.07,70.35-.28.13-.3,0a1239.18,1239.18,0,0,1-189.65,10.79c-15.84-.25-31.67-1-47.48-1.82-7.9-.52-15.81-1-23.7-1.62l-11.84-1-11.83-1.12q-23.64-2.34-47.18-5.67t-46.85-7.9c-31.11-6-61.89-13.57-92.33-22.28s-60.59-18.35-90.87-27.52-60.76-17.64-91.66-24.4-62-12.29-93.39-16.47-62.86-7-94.43-8.67-63.21-2.1-94.82-1.56c-63.24,1-126.33,6.29-189.19,13.34-31.44,3.49-62.83,7.43-94.31,10.89-15.74,1.71-31.5,3.32-47.33,4.46s-31.71,1.88-47.66,1.19a160.87,160.87,0,0,1-23.88-2.65c-7.89-1.56-15.8-4-22.93-8.25a39.79,39.79,0,0,1-9.58-8,36.15,36.15,0,0,1-6.39-10.82c-2.93-7.9-3.32-16.33-2.63-24.38a130.92,130.92,0,0,1,4.57-23.68c2.15-7.71,4.75-15.25,7.5-22.71,1.38-3.73,2.8-7.43,4.23-11.13s2.85-7.37,4.37-11.09,3.16-7.34,4.87-11,3.54-7.16,5.43-10.68c7.58-14.07,16.6-27.26,25.72-40.19s18.3-25.78,24.5-40a87.25,87.25,0,0,0,6.46-22.09,88.45,88.45,0,0,0,.3-23c-1.76-15.38-6.84-30.33-13.13-44.64-1.57-3.54-3.27-7.23-4.79-10.92s-3-7.43-4.3-11.2c-2.68-7.53-5-15.19-7-22.91a362.74,362.74,0,0,1-8.67-47c-3.86-31.61-4.36-63.43-4.57-95.07-.12-15.83-.14-31.63-.76-47.37-.32-7.86-.79-15.71-1.64-23.49a145.18,145.18,0,0,0-4.11-22.9A69,69,0,0,0,376,861.36a40.1,40.1,0,0,0-5.92-9.38,27.38,27.38,0,0,0-8.44-6.66,30.14,30.14,0,0,0-10.45-3,44.2,44.2,0,0,0-5.58-.22,26.15,26.15,0,0,1-6.56-.61,16.83,16.83,0,0,1-6.35-2.9c-.25-.21-.43-.32-.74-.61a6.09,6.09,0,0,1-.82-.89,8.27,8.27,0,0,1-1.09-1.9,13.28,13.28,0,0,1-.85-3.58,32,32,0,0,1,.06-6.47c.2-2.07.51-4.1.87-6.09.73-4,1.67-7.89,2.69-11.76,2-7.73,4.41-15.32,6.85-22.87s5-15.05,7.58-22.54c5.16-15,10.42-29.89,15.48-44.86s9.94-30,14.27-45.14c2.16-7.57,4.19-15.18,5.94-22.84A233.52,233.52,0,0,0,387.13,626c.93-7.71,1.42-15.54.32-23A27.65,27.65,0,0,0,384,592.71a14.76,14.76,0,0,0-3.36-3.84c-1.43-1.12-3.1-2.25-4.72-3.43a55,55,0,0,1-4.84-3.87,22.29,22.29,0,0,1-2.28-2.4A10.55,10.55,0,0,1,367,575.9a5.9,5.9,0,0,1,.3-4.68,5.57,5.57,0,0,1,1.66-1.87,7.79,7.79,0,0,1,1.82-1,19.71,19.71,0,0,1,3.24-.87l2.94-.55c3.78-.68,7.28-1.69,10.07-3.78a19.36,19.36,0,0,0,6.27-8.43,46.28,46.28,0,0,0,2.8-10.93,110.26,110.26,0,0,0,1-11.58c.3-7.81.13-15.69-.09-23.58l-.39-11.85c-.13-3.93-.36-7.85-.59-11.81a115.51,115.51,0,0,1-.28-12.09,41.83,41.83,0,0,1,.77-6.19,46.77,46.77,0,0,1,1.71-6c1.35-3.88,3.28-7.52,4.85-11a16,16,0,0,0,1.51-5,6.81,6.81,0,0,0-1.11-4.32,9.47,9.47,0,0,0-3.9-2.85c-1.7-.81-3.55-1.59-5.38-2.44a87,87,0,0,1-10.61-5.84,79.56,79.56,0,0,1-9.83-7.15,44.24,44.24,0,0,1-8.23-9.25,31.59,31.59,0,0,1-2.86-5.64,30.6,30.6,0,0,1-1.59-6.14,51.25,51.25,0,0,1,.07-12.29,54.28,54.28,0,0,0,.32-11.46,35.07,35.07,0,0,0-2.93-10.83c-3.1-6.91-8.27-12.82-13.83-18.28S333.06,337.65,327.37,332a91.74,91.74,0,0,1-15.17-18.73,60.18,60.18,0,0,1-7.87-22.89,84.18,84.18,0,0,1-.6-12.06c0-4,.22-7.93.08-11.79a40.36,40.36,0,0,0-1.88-11.26,38.17,38.17,0,0,0-5.23-10.12,50.2,50.2,0,0,0-17.33-15,81.84,81.84,0,0,1-9.9-6.9c-3.13-2.48-6.16-5-9.13-7.68-6-5.26-11.72-10.7-17.41-16.22-11.36-11-22.41-22.39-33.34-33.85-21.82-22.94-43.16-46.31-64.34-69.83s-42.12-47.25-63-71.06l.37-.33c42.2,47.15,84.53,94.22,128.45,139.76,11,11.35,22.11,22.61,33.5,33.56,5.7,5.47,11.47,10.85,17.41,16,3,2.6,6,5.12,9.07,7.54a79.5,79.5,0,0,0,9.58,6.61A53,53,0,0,1,299,243.53a41.06,41.06,0,0,1,5.68,10.86,43.33,43.33,0,0,1,2.1,12.06c.18,4,0,8,0,11.94a81.12,81.12,0,0,0,.65,11.62A57,57,0,0,0,315,311.65a88.47,88.47,0,0,0,14.74,18c5.61,5.47,11.65,10.57,17.4,16.14s11.25,11.72,14.71,19.3a38.7,38.7,0,0,1,3.3,12,43.26,43.26,0,0,1,.19,6.2c-.08,2.05-.29,4.05-.46,6a47.66,47.66,0,0,0-.05,11.38,26.75,26.75,0,0,0,1.4,5.32,27.75,27.75,0,0,0,2.52,4.91,40.38,40.38,0,0,0,7.53,8.39,75.65,75.65,0,0,0,9.37,6.76,82.82,82.82,0,0,0,10.18,5.56c1.76.82,3.56,1.56,5.44,2.44a21,21,0,0,1,2.86,1.61,10.13,10.13,0,0,1,2.63,2.56,10.7,10.7,0,0,1,1.51,3.32,10.85,10.85,0,0,1,.33,3.61,19.72,19.72,0,0,1-1.82,6.34c-1.68,3.74-3.46,7.12-4.7,10.73a42.63,42.63,0,0,0-1.53,5.43,37.67,37.67,0,0,0-.67,5.57,112.08,112.08,0,0,0,.32,11.63c.24,3.94.48,7.92.63,11.89l.43,11.87c.25,7.92.45,15.87.17,23.88a114.6,114.6,0,0,1-1,12.05,50.57,50.57,0,0,1-3.05,12,23.85,23.85,0,0,1-7.73,10.35c-3.59,2.7-7.94,3.89-11.9,4.62a36.68,36.68,0,0,0-5.37,1.21,2,2,0,0,0-1.1.73.85.85,0,0,0-.09.42,1.63,1.63,0,0,0,.11.65,6.16,6.16,0,0,0,1.1,1.82,17.79,17.79,0,0,0,1.81,1.89,50.7,50.7,0,0,0,4.44,3.52c1.58,1.15,3.19,2.22,4.89,3.54a19.47,19.47,0,0,1,4.44,5,32.21,32.21,0,0,1,4.12,12,69.52,69.52,0,0,1,.69,12.26c-.09,4.05-.43,8.07-.91,12.06a238.29,238.29,0,0,1-4.23,23.59c-1.75,7.77-3.77,15.47-5.93,23.11-4.33,15.29-9.22,30.38-14.26,45.39s-10.29,30-15.41,44.91-10.21,29.92-14.25,45.07c-1,3.78-1.9,7.58-2.58,11.37-.34,1.89-.63,3.79-.8,5.65a27.08,27.08,0,0,0-.06,5.38,8.2,8.2,0,0,0,.5,2.17,3,3,0,0,0,.38.67,1,1,0,0,0,.18.2c0,.05.28.22.4.33a11.55,11.55,0,0,0,4.38,2,20.93,20.93,0,0,0,5.22.46,49.49,49.49,0,0,1,6.27.24A35.45,35.45,0,0,1,364,840.56a32.74,32.74,0,0,1,10.09,7.92,45,45,0,0,1,6.73,10.61A74.32,74.32,0,0,1,385,870.65a150.36,150.36,0,0,1,4.27,23.76c.87,8,1.34,15.91,1.66,23.85.62,15.89.63,31.73.75,47.55.19,31.61.74,63.21,4.48,94.47s10.75,62.1,24.17,90.6c6.38,14.62,11.61,30,13.43,46.13a93.42,93.42,0,0,1-.37,24.31,92.18,92.18,0,0,1-6.86,23.32,152.12,152.12,0,0,1-11.59,21.12c-4.32,6.72-8.91,13.2-13.47,19.66-9.14,12.9-18,25.87-25.51,39.66q-2.79,5.17-5.35,10.46c-1.68,3.54-3.28,7.11-4.79,10.72s-2.91,7.31-4.35,11-2.85,7.36-4.23,11c-2.74,7.38-5.31,14.81-7.43,22.33a126.49,126.49,0,0,0-4.47,22.84c-.68,7.65-.28,15.43,2.29,22.43a31.7,31.7,0,0,0,5.58,9.53,35.42,35.42,0,0,0,8.51,7.18c6.45,3.92,13.9,6.25,21.49,7.78a156.74,156.74,0,0,0,23.24,2.66c15.67.73,31.45,0,47.19-1s31.47-2.63,47.2-4.28c31.44-3.37,62.87-7.13,94.35-10.45,62.95-6.72,126.17-11.63,189.52-12.39a1301.64,1301.64,0,0,1,189.53,10.93q47.07,6.36,93.5,16.66c30.93,6.83,61.45,15.36,91.75,24.49s60.44,18.8,90.88,27.36,61.18,16.07,92.25,21.9q23.3,4.37,46.79,7.62t47.1,5.39l11.81,1,11.82.9c7.88.56,15.77,1,23.66,1.48,15.79.75,31.58,1.39,47.38,1.55,31.6.49,63.21-.35,94.75-2.27s63-5.16,94.28-9.5l-.57.17L1875.58,1472l156-70.42-1.26,1.89a29.13,29.13,0,0,0-1.73-10.8,45.65,45.65,0,0,0-5.2-10c-4.25-6.37-9.59-12.16-14.47-18.48a78.38,78.38,0,0,1-6.76-10.07,40.34,40.34,0,0,1-4.36-11.61,33.79,33.79,0,0,1-.11-12.5,35.82,35.82,0,0,1,4.21-11.74,40.08,40.08,0,0,1,7.85-9.59,71.55,71.55,0,0,1,9.72-7.29c6.77-4.3,13.82-7.88,20.63-11.74a153.09,153.09,0,0,0,19.56-12.68,88,88,0,0,0,8.65-7.66,49.58,49.58,0,0,0,7-8.95,59.15,59.15,0,0,0,7.61-21.45,112,112,0,0,0,1.07-23.18c-.75-15.59-3.46-31.11-5.75-46.71s-4.42-31.4-3.48-47.38a81.53,81.53,0,0,1,4.67-23.53,57.63,57.63,0,0,1,12.83-20.35,203.77,203.77,0,0,0,15.12-17.93c4.77-6.23,9.38-12.6,13.9-19,9-12.88,17.73-26,26.3-39.2,17.11-26.43,33.71-53.21,50.05-80.14s32.42-54,48.34-81.21,31.72-54.45,47.29-81.84Z"/><path class="cls-1" d="M2293,774s-138.45,258.44-187.07,307.63c-48,48.55,22.57,147.76-24.95,193.75-27.16,26.29-63.65,29.14-69.76,57.74-6.73,31.55,33.91,45.87,32.92,74.79l-316,141.55h0a1267.72,1267.72,0,0,1-261.2,8.28c-169.73-12.26-253.95-53.35-367.3-82.07-395.19-100.14-730.95,54.68-764.23-34.64-8.88-23.82,5.9-59.81,16.67-87.19,33.5-85.19,101.49-101.57,55.25-201.94-58.75-127.5,8.1-312.22-71.92-310.21-5.15.13-9-1-11.86-3.35-18.32-15.11,86.59-218.85,49.34-249.77-3.83-3.18-15-9.31-13.68-14.42,1.18-4.67,11.18-2.22,19.2-7.75,13.05-9,12.18-33.13,10.92-68.25-.68-18.91-2.52-25.2,1.52-36.24,3.4-9.31,8.18-14.33,5.84-20.27-2.2-5.6-8-5-19.87-12.3-5.14-3.14-15.45-9.42-20.65-18.82-5.57-10.07-2.78-19.24-2.53-27.61,1.14-38.39-51.55-46.65-58.24-91.86-2.56-17.32,3.19-29.54-7.09-45.18A52.1,52.1,0,0,0,269,228.8c-18.23-10-70.48-59.93-200-205.3"/><path d="M2293.72,792.61q-20.47,40.3-41.8,80.17T2208.41,952c-14.87,26.22-30.06,52.28-46.29,77.71-8.14,12.7-16.49,25.28-25.61,37.36a183.68,183.68,0,0,1-14.65,17.42,56,56,0,0,0-12.16,18.21,72.54,72.54,0,0,0-5,21.49,135,135,0,0,0,0,22.32c1.13,14.92,3.83,29.73,6.13,44.64,1.16,7.46,2.23,14.95,3,22.51a152.92,152.92,0,0,1,.67,22.84,77.21,77.21,0,0,1-4.35,22.65,54.87,54.87,0,0,1-12.35,19.66,107.29,107.29,0,0,1-18,14.34c-6.4,4.17-13.09,7.79-19.71,11.37s-13.21,7.13-19.08,11.52a47.15,47.15,0,0,0-7.92,7.35,31.72,31.72,0,0,0-5.37,9.1,32.63,32.63,0,0,0-2.07,10.36,29.66,29.66,0,0,0,1.59,10.39c2.28,6.75,6.7,12.75,11.39,18.5s9.87,11.39,14.15,17.89a47.24,47.24,0,0,1,5.32,10.53,33,33,0,0,1,1.83,11.87l0,1.34-1.23.55-160.51,71.27-160.61,71-.28.12-.29,0a1300.39,1300.39,0,0,1-193.59,10.93c-32.33-.61-64.65-2.31-96.84-5.4s-64.27-7.42-96.05-13.35-63.27-13.4-94.41-22.06-62-18.28-92.93-27.53c-15.47-4.62-31-9.13-46.57-13.29s-31.27-8-47-11.53q-47.27-10.48-95.31-16.94c-64-8.71-128.63-12-193.16-11.2s-129,5.71-193.19,12.62c-32.11,3.42-64.16,7.34-96.28,10.89-16.06,1.77-32.14,3.46-48.27,4.79s-32.31,2.31-48.57,2.23a231.46,231.46,0,0,1-24.4-1.31,107.65,107.65,0,0,1-24.12-5.21,55.75,55.75,0,0,1-11.33-5.44,39.82,39.82,0,0,1-9.6-8.42,36.7,36.7,0,0,1-6.17-11.24,46.73,46.73,0,0,1-2.39-12.44,90.12,90.12,0,0,1,2.32-24.67,205.9,205.9,0,0,1,6.82-23.52c2.67-7.68,5.62-15.24,8.6-22.75,1.49-3.74,3-7.54,4.6-11.28s3.33-7.45,5.16-11.09c7.25-14.63,16.16-28.34,25.52-41.55,4.67-6.62,9.44-13.14,14-19.73a213.36,213.36,0,0,0,12.72-20.28,99.53,99.53,0,0,0,8.85-21.86,82.43,82.43,0,0,0,2.67-23.29,108.26,108.26,0,0,0-3.35-23.39c-1-3.84-2.11-7.65-3.36-11.43s-2.65-7.51-4.18-11.2-3.13-7.35-4.79-11-3.34-7.46-4.86-11.24c-3-7.58-5.68-15.31-8-23.13a338.09,338.09,0,0,1-10.07-47.74c-4.56-32.21-5.35-64.71-5.63-97-.15-16.16-.13-32.31-.62-48.39-.25-8-.64-16.06-1.35-24a178.18,178.18,0,0,0-3.5-23.58c-1.78-7.66-4.29-15.2-8.48-21.52a31.45,31.45,0,0,0-7.61-8.09,28.28,28.28,0,0,0-10-4.59,36.83,36.83,0,0,0-5.56-.91c-.95-.08-1.9-.13-2.85-.15-.48,0-1,0-1.44,0h-1.54a25.31,25.31,0,0,1-6.69-.83,16.55,16.55,0,0,1-6.38-3.27,8.17,8.17,0,0,1-2.33-3.77,15.69,15.69,0,0,1-.62-3.57,36.07,36.07,0,0,1,.23-6.53,103.25,103.25,0,0,1,2.3-12.22c1.94-8,4.33-15.73,6.81-23.45s5.12-15.37,7.78-23l16.08-45.7c5.28-15.24,10.41-30.53,15-45.95s8.72-31,11.08-46.76c1.13-7.87,1.84-15.84,1.13-23.57a34.85,34.85,0,0,0-2.66-11,18,18,0,0,0-2.88-4.47,15.74,15.74,0,0,0-1.92-1.77c-.73-.56-1.54-1.13-2.37-1.71-1.65-1.15-3.34-2.33-5-3.62a29.34,29.34,0,0,1-4.8-4.5,10.32,10.32,0,0,1-1.9-3.38,5.83,5.83,0,0,1,.53-4.81,5.59,5.59,0,0,1,1.76-1.76,8.85,8.85,0,0,1,1.84-.89,22.67,22.67,0,0,1,3.27-.83c2.06-.39,4-.68,5.84-1.14a23.89,23.89,0,0,0,5.2-1.85,17.69,17.69,0,0,0,7.53-7.47,36.59,36.59,0,0,0,3.61-10.77,91.06,91.06,0,0,0,1.35-11.74c.45-7.94.31-16,.1-24l-.38-12.09c-.13-4-.32-8-.56-12s-.53-8.07-.48-12.25a45.22,45.22,0,0,1,.49-6.32,43.32,43.32,0,0,1,1.48-6.2,83.45,83.45,0,0,1,4.89-11.38,27.59,27.59,0,0,0,2.06-5.22,7.07,7.07,0,0,0-.3-4.66,6.56,6.56,0,0,0-3.24-3.29c-1.59-.87-3.47-1.63-5.33-2.46a88.22,88.22,0,0,1-11-5.68c-7-4.2-13.94-9.06-19-15.94a34.89,34.89,0,0,1-3.3-5.52,28.72,28.72,0,0,1-2-6.15,42,42,0,0,1-.39-12.62c.18-2,.41-4,.55-6a41.6,41.6,0,0,0,0-5.79,34.38,34.38,0,0,0-2.63-11.14c-3-7.13-8.2-13.21-13.87-18.77s-11.91-10.76-17.8-16.4a97.1,97.1,0,0,1-15.88-18.76A59.89,59.89,0,0,1,279.48,289a79.62,79.62,0,0,1-.76-12.31c0-4.08.23-8.11.11-12.06A40.79,40.79,0,0,0,277,253.07a37.36,37.36,0,0,0-5.29-10.35,50.92,50.92,0,0,0-17.69-15.28,79.27,79.27,0,0,1-10.21-6.88c-3.23-2.48-6.35-5.08-9.41-7.74-6.13-5.3-12.08-10.8-17.94-16.37-11.71-11.16-23.11-22.62-34.37-34.21-22.5-23.2-44.52-46.85-66.36-70.65S72.31,43.78,50.81,19.67l.37-.33c43.53,47.73,87.18,95.37,132.46,141.42,11.35,11.48,22.79,22.87,34.53,33.92,5.87,5.52,11.83,11,17.94,16.18,3.06,2.61,6.16,5.17,9.34,7.59a76.75,76.75,0,0,0,9.89,6.6,53.71,53.71,0,0,1,18.73,16,40.25,40.25,0,0,1,5.75,11.11,43.74,43.74,0,0,1,2,12.32c.15,4.12,0,8.17,0,12.17a76.5,76.5,0,0,0,.79,11.84,56.65,56.65,0,0,0,8.25,21.9,93.83,93.83,0,0,0,15.46,18c5.81,5.5,12,10.64,17.93,16.33a88.13,88.13,0,0,1,8.33,9.12A48.36,48.36,0,0,1,339,364.63a38,38,0,0,1,3,12.31,45.43,45.43,0,0,1,0,6.31c-.14,2.07-.37,4.08-.54,6.06a38.34,38.34,0,0,0,.36,11.5,24.84,24.84,0,0,0,1.79,5.32,31,31,0,0,0,2.92,4.85,42.9,42.9,0,0,0,3.78,4.34,57.49,57.49,0,0,0,4.37,3.87,89.62,89.62,0,0,0,9.82,6.64,84.14,84.14,0,0,0,10.54,5.4c1.83.81,3.71,1.54,5.67,2.6a13,13,0,0,1,2.9,2.09,9.66,9.66,0,0,1,2.12,3.13,10.85,10.85,0,0,1,.88,3.6,12.26,12.26,0,0,1-.33,3.6,31.11,31.11,0,0,1-2.33,6,79.76,79.76,0,0,0-4.64,10.87,39.17,39.17,0,0,0-1.31,5.57,41.12,41.12,0,0,0-.42,5.75c0,3.89.28,7.91.52,11.95s.46,8.11.61,12.15l.43,12.12c.23,8.09.41,16.21,0,24.4a95.4,95.4,0,0,1-1.38,12.32,40.91,40.91,0,0,1-4,12.11,23.87,23.87,0,0,1-4,5.36,21.38,21.38,0,0,1-5.44,4c-4,2.07-8.39,2.73-12.22,3.44a18.59,18.59,0,0,0-2.59.66,2.47,2.47,0,0,0-1.26.77,1.27,1.27,0,0,0,0,1,5.93,5.93,0,0,0,1.09,1.84,25.12,25.12,0,0,0,4,3.73c1.53,1.18,3.16,2.31,4.83,3.46.83.58,1.68,1.17,2.55,1.83a20.48,20.48,0,0,1,2.54,2.32,22.63,22.63,0,0,1,3.69,5.65A39.4,39.4,0,0,1,370,606.05c.8,8.38.05,16.62-1.07,24.72-2.37,16.2-6.53,31.93-11.07,47.49s-9.72,30.9-15,46.19l-16,45.73c-2.64,7.62-5.24,15.25-7.7,22.91s-4.8,15.35-6.67,23.08a98.36,98.36,0,0,0-2.17,11.58,31.08,31.08,0,0,0-.2,5.56,10.58,10.58,0,0,0,.4,2.38,3,3,0,0,0,.76,1.35,11.39,11.39,0,0,0,4.33,2.17,20.09,20.09,0,0,0,5.3.63h1.49c.53,0,1.06,0,1.59,0,1.06,0,2.13.07,3.2.16a42.11,42.11,0,0,1,6.38,1,33.62,33.62,0,0,1,11.87,5.43,36.79,36.79,0,0,1,8.92,9.43A55.26,55.26,0,0,1,360,867.23a92.69,92.69,0,0,1,3.54,12,183.3,183.3,0,0,1,3.61,24.31c.72,8.12,1.11,16.24,1.36,24.34.49,16.21.47,32.37.61,48.51.25,32.25,1.09,64.51,5.52,96.33a332.9,332.9,0,0,0,9.81,47c2.24,7.68,4.82,15.25,7.77,22.67q2.22,5.56,4.73,11c1.69,3.71,3.36,7.43,4.87,11.23s2.94,7.63,4.27,11.5,2.45,7.83,3.45,11.82a113.26,113.26,0,0,1,3.45,24.48,87.41,87.41,0,0,1-2.88,24.67,104.44,104.44,0,0,1-9.32,22.93,218.1,218.1,0,0,1-13,20.72c-4.64,6.66-9.42,13.17-14.08,19.74-9.34,13.11-18.1,26.56-25.23,40.88q-2.7,5.35-5.08,10.86c-1.61,3.65-3.06,7.38-4.57,11.14-3,7.49-5.93,15-8.58,22.55a201.42,201.42,0,0,0-6.71,23,85.73,85.73,0,0,0-2.27,23.41c.43,7.73,2.74,15.3,7.51,21.19s11.62,9.93,19,12.56a103.46,103.46,0,0,0,23.12,5.06,227.36,227.36,0,0,0,24,1.36c16.05.13,32.15-.8,48.21-2.05s32.12-2.9,48.18-4.61c32.1-3.47,64.19-7.2,96.35-10.45,64.29-6.59,128.85-11.21,193.52-11.67a1351.91,1351.91,0,0,1,193.42,11.91q48,6.56,95.42,17.13c31.55,7,62.73,15.66,93.69,24.89s61.79,18.88,92.94,27.37,62.57,15.94,94.33,21.67,63.77,10,95.92,12.78,64.39,4.41,96.65,4.85,64.53-.43,96.73-2.37,64.31-5.2,96.27-9.54l-.57.16,160.48-71.34L2056.93,1410l-1.28,1.89a28.67,28.67,0,0,0-1.58-10.34,43,43,0,0,0-4.84-9.59c-4-6.11-9.06-11.66-13.86-17.55a103,103,0,0,1-6.85-9.28,47.33,47.33,0,0,1-5.21-10.57,33.83,33.83,0,0,1-1.77-11.84,36.69,36.69,0,0,1,2.37-11.7,35.82,35.82,0,0,1,6.08-10.26,51.15,51.15,0,0,1,8.62-8c6.24-4.63,13-8.19,19.61-11.78s13.23-7.11,19.47-11.15a103.59,103.59,0,0,0,17.34-13.75,51.05,51.05,0,0,0,11.56-18.28,74.27,74.27,0,0,0,4.22-21.56,149.35,149.35,0,0,0-.54-22.3c-.67-7.45-1.7-14.88-2.81-22.32-2.21-14.87-4.85-29.77-5.92-44.93a138,138,0,0,1,.09-22.83,75.51,75.51,0,0,1,5.34-22.33,59,59,0,0,1,12.87-19.07,181.18,181.18,0,0,0,14.5-17.08c9.09-11.94,17.48-24.44,25.66-37.07,16.28-25.31,31.68-51.22,46.72-77.31s29.66-52.45,44.06-78.91,28.6-53,42.49-79.78Z"/><g class="cls-2"><path d="M2293.74,875.58q-13.8,38.26-29.64,75.74c-10.54,25-21.67,49.74-33.94,74-6.14,12.1-12.58,24.07-19.56,35.73a282.63,282.63,0,0,1-23.1,33.66c-2.16,2.64-4.44,5.2-6.79,7.7s-4.8,4.75-6.91,7.3a56.68,56.68,0,0,0-9.64,17.21,76.54,76.54,0,0,0-4,19.48,134.9,134.9,0,0,0,.08,20.08c1,13.41,3.29,26.75,5.5,40.12s4.4,26.84,4.92,40.56a110.07,110.07,0,0,1-1,20.62,65.8,65.8,0,0,1-6.22,19.88,56.3,56.3,0,0,1-12.86,16.47,119.59,119.59,0,0,1-16.56,12.3c-5.82,3.64-11.84,6.87-17.86,10s-12,6.21-17.69,9.71-11,7.49-14.87,12.59a31,31,0,0,0-4.57,8.34,32.31,32.31,0,0,0-1.86,9.32,28.78,28.78,0,0,0,1.17,9.37,38.41,38.41,0,0,0,3.93,8.78c3.35,5.6,7.76,10.66,12.2,15.75s9,10.26,12.75,16.25a43.05,43.05,0,0,1,4.52,9.66,32.08,32.08,0,0,1,1.48,10.73l0,1.36-1.25.54-168.85,72.3-168.95,72.06-.27.11-.28,0A1420.88,1420.88,0,0,1,1573,1594.45c-67-1.12-133.95-6.54-200-18-33-5.75-65.72-13-98.1-21.53s-64.47-18.08-96.59-27.42c-16.07-4.66-32.16-9.23-48.32-13.52s-32.4-8.28-48.72-11.92q-49-10.9-98.7-17.8t-99.79-10.06q-50.06-3.14-100.26-2.93c-66.89.15-133.7,4.57-200.26,11.15-33.29,3.26-66.52,7.08-99.79,10.74-16.63,1.83-33.28,3.62-50,5.19s-33.39,2.92-50.17,3.6c-8.39.33-16.8.5-25.22.33a223.57,223.57,0,0,1-25.27-1.77,103.33,103.33,0,0,1-24.84-6.12,54.88,54.88,0,0,1-11.46-6.27A37.52,37.52,0,0,1,281,1466.47a55.39,55.39,0,0,1-1.49-13,103,103,0,0,1,3.67-25.34c4.28-16.44,10.84-32,17.19-47.45a246.4,246.4,0,0,1,24.18-44.43c9.37-14,19.9-27.11,29.38-40.73a164.31,164.31,0,0,0,12.73-21.17,88.32,88.32,0,0,0,7.77-23.06,83.91,83.91,0,0,0,.75-24.28,111.37,111.37,0,0,0-2-12.09c-.91-4-2-8-3.24-11.88a198,198,0,0,0-9.15-23c-1.74-3.71-3.63-7.58-5.29-11.45s-3.26-7.81-4.74-11.77A293.72,293.72,0,0,1,337.56,1108c-6.16-33.18-7.68-66.89-8.18-100.38-.25-16.76-.22-33.49-.51-50.18-.15-8.34-.4-16.67-.89-25s-1.23-16.56-2.51-24.69a100.17,100.17,0,0,0-6.31-23.54A46.28,46.28,0,0,0,313.24,874a30.77,30.77,0,0,0-8.59-7.64,31.9,31.9,0,0,0-10.85-3.9,44.41,44.41,0,0,0-5.88-.6c-1,0-2,0-3,0s-2.25,0-3.38-.07a23.34,23.34,0,0,1-6.89-1.5,17.25,17.25,0,0,1-3.27-1.72,10.81,10.81,0,0,1-1.65-1.33,7.91,7.91,0,0,1-1.34-1.94,12.31,12.31,0,0,1-1.09-3.82,23.57,23.57,0,0,1-.19-3.52,49.71,49.71,0,0,1,.62-6.6A183,183,0,0,1,274,816.65c2.52-8,5.27-16,8.07-23.87,5.62-15.8,11.48-31.47,17.19-47.18s11.29-31.46,16.38-47.34,9.74-31.91,12.81-48.18A132.07,132.07,0,0,0,331,625.62a51.34,51.34,0,0,0-1.35-11.88,20.87,20.87,0,0,0-5.15-9.88,15.72,15.72,0,0,0-2.12-1.77c-.8-.58-1.66-1.15-2.53-1.74-1.74-1.17-3.51-2.37-5.24-3.69a26.65,26.65,0,0,1-5-4.73,8.94,8.94,0,0,1-1.8-3.79,6,6,0,0,1,.13-2.57,5.25,5.25,0,0,1,1.38-2.32,8.6,8.6,0,0,1,3.74-2c1.16-.32,2.24-.52,3.3-.71,2.1-.37,4.09-.68,6-1.16a24.51,24.51,0,0,0,5.39-2,17.83,17.83,0,0,0,4.47-3.28,24.39,24.39,0,0,0,5.6-9.91,60.14,60.14,0,0,0,2.3-11.86,206,206,0,0,0,.65-24.8c-.09-4.16-.22-8.34-.36-12.51s-.28-8.35-.51-12.5-.53-8.32-.7-12.57a48.78,48.78,0,0,1,.95-13,55.14,55.14,0,0,1,4.61-12.16c.94-1.9,1.92-3.74,2.73-5.55a12.15,12.15,0,0,0,1.31-5.15,6.5,6.5,0,0,0-1.79-4.28,15.72,15.72,0,0,0-4.75-2.75,123.08,123.08,0,0,1-11.55-5.32c-1.9-1-3.71-2.09-5.52-3.18s-3.62-2.25-5.38-3.47a59.2,59.2,0,0,1-9.83-8.43,30.66,30.66,0,0,1-8.62-24.33c.22-4.32.95-8.45.94-12.42a34.45,34.45,0,0,0-2-11.68c-2.65-7.54-8-14-13.82-19.69s-12.41-11-18.66-16.66-12.32-11.67-17.19-18.73a64,64,0,0,1-6.25-11.23,59.35,59.35,0,0,1-3.71-12.32,71.48,71.48,0,0,1-1.11-12.76c0-4.24.2-8.43.14-12.53a43,43,0,0,0-1.62-12,36.5,36.5,0,0,0-5.37-10.76,52.43,52.43,0,0,0-18.37-15.79c-.9-.46-1.86-1-2.79-1.52s-1.83-1.11-2.73-1.67c-1.78-1.17-3.51-2.38-5.22-3.62-3.41-2.49-6.68-5.13-9.92-7.8-6.46-5.36-12.73-10.93-18.92-16.59-12.36-11.32-24.39-23-36.27-34.76-23.76-23.59-47-47.66-70.1-71.9S22.54,49.23-.18,24.67l.37-.34Q34.63,60.84,69.44,97c23.26,24,46.69,47.94,70.6,71.32,12,11.67,24,23.25,36.43,34.46,6.19,5.6,12.47,11.11,18.91,16.4,3.23,2.63,6.49,5.22,9.85,7.65a75.16,75.16,0,0,0,10.46,6.56,55.21,55.21,0,0,1,19.43,16.54A39.4,39.4,0,0,1,241,261.49a46,46,0,0,1,1.82,12.78c.08,4.26-.12,8.44-.07,12.56A68.38,68.38,0,0,0,243.83,299a56.17,56.17,0,0,0,3.58,11.64,60.75,60.75,0,0,0,6,10.63c4.69,6.71,10.59,12.54,16.78,18.06s12.76,10.76,18.87,16.66a79.46,79.46,0,0,1,8.55,9.56A44.41,44.41,0,0,1,303.87,377a38,38,0,0,1,2.23,12.93c0,4.41-.73,8.57-.9,12.6a26.85,26.85,0,0,0,7.69,21.52c5.44,5.89,12.54,10.25,19.75,14.21a119.44,119.44,0,0,0,11.26,5.13c1,.42,2,.86,3,1.42a13.16,13.16,0,0,1,3,2.15,10,10,0,0,1,2.17,3.25,10.65,10.65,0,0,1,.84,3.75,16,16,0,0,1-1.63,6.94c-.89,2-1.88,3.87-2.78,5.72a51.12,51.12,0,0,0-4.25,11.26,44.68,44.68,0,0,0-.81,11.94c.17,4.11.5,8.29.74,12.49s.39,8.4.55,12.58.31,8.37.41,12.57a209.94,209.94,0,0,1-.59,25.35,64.41,64.41,0,0,1-2.44,12.74,28.79,28.79,0,0,1-6.64,11.72,22.36,22.36,0,0,1-5.59,4.13,29,29,0,0,1-6.36,2.35c-2.15.55-4.29.89-6.31,1.25-1,.18-2,.37-2.83.62a4.47,4.47,0,0,0-1.78.84.93.93,0,0,0-.22.88,4.63,4.63,0,0,0,.94,1.79,22.51,22.51,0,0,0,4.13,3.84c1.59,1.21,3.29,2.35,5,3.51.87.58,1.75,1.17,2.65,1.81a20.51,20.51,0,0,1,2.69,2.24,25.47,25.47,0,0,1,6.43,12,55.94,55.94,0,0,1,1.54,13A136.62,136.62,0,0,1,333.23,651c-3.08,16.64-7.76,32.82-12.79,48.82s-10.68,31.8-16.37,47.55-11.53,31.43-17.1,47.17c-2.78,7.87-5.49,15.76-8,23.7a178.6,178.6,0,0,0-6.08,23.92,44.64,44.64,0,0,0-.55,5.88,11.78,11.78,0,0,0,.74,4.93,2.73,2.73,0,0,0,.42.64,7.29,7.29,0,0,0,.81.61,12,12,0,0,0,2.28,1.19,18.13,18.13,0,0,0,5.33,1.13c1,.07,1.89.07,2.89.06s2.19,0,3.29,0a49.69,49.69,0,0,1,6.6.67,37.21,37.21,0,0,1,12.64,4.54,36.11,36.11,0,0,1,10.08,8.92,51.56,51.56,0,0,1,6.64,11.41,104.5,104.5,0,0,1,6.68,24.81c1.33,8.39,2.06,16.82,2.56,25.22s.74,16.8.89,25.19c.29,16.77.25,33.5.5,50.2.47,33.38,2,66.79,8,99.5a288.54,288.54,0,0,0,12.9,48q2.16,5.82,4.61,11.52c1.63,3.82,3.41,7.47,5.21,11.34a203,203,0,0,1,9.34,23.62c1.27,4.06,2.4,8.16,3.34,12.33a116.42,116.42,0,0,1,2.08,12.66,88.93,88.93,0,0,1-.85,25.71,93.29,93.29,0,0,1-8.24,24.34A169.11,169.11,0,0,1,358,1298.31c-9.66,13.82-20.15,26.83-29.42,40.63a241.65,241.65,0,0,0-23.81,43.54c-6.39,15.45-12.88,30.84-17.08,46.82a98.53,98.53,0,0,0-3.57,24.19,50.9,50.9,0,0,0,1.33,11.89,33.12,33.12,0,0,0,12.83,19.15,50.47,50.47,0,0,0,10.49,5.77,99.1,99.1,0,0,0,23.75,5.91,219.39,219.39,0,0,0,24.77,1.81c8.31.19,16.64.06,25-.25,16.66-.62,33.32-1.92,50-3.42s33.28-3.25,49.91-5c33.26-3.57,66.54-7.19,99.88-10.3,66.66-6.25,133.59-10.32,200.58-10.19a1453.16,1453.16,0,0,1,200.29,13.68q49.74,7,98.81,18c32.68,7.33,65,16.21,97.13,25.5s64.21,18.89,96.59,27.25,65.06,15.58,98,21.14c66,11.08,132.83,16.12,199.66,16.87,4.18.08,8.36.07,12.53.06h12.53l12.53-.18,6.27-.09,6.26-.17c16.71-.36,33.4-1.19,50.08-2.15q50-3.06,99.77-9.57l-.55.15L1941.33,1507l168.93-72.11-1.3,1.89a27.79,27.79,0,0,0-1.28-9.31,38.81,38.81,0,0,0-4.07-8.71c-3.42-5.56-7.87-10.59-12.3-15.71s-9-10.34-12.6-16.4a42.55,42.55,0,0,1-4.32-9.74,32.92,32.92,0,0,1-1.3-10.71,36.36,36.36,0,0,1,2.13-10.53,35,35,0,0,1,5.19-9.41c4.38-5.7,10.14-9.92,16-13.53s12-6.67,18-9.8,11.94-6.28,17.63-9.81a115.76,115.76,0,0,0,16.07-11.86,52.47,52.47,0,0,0,12.07-15.34,62.64,62.64,0,0,0,5.94-18.74,106.51,106.51,0,0,0,1.06-19.93c-.44-13.4-2.55-26.77-4.68-40.14s-4.4-26.8-5.32-40.44a137.85,137.85,0,0,1,0-20.54,79.49,79.49,0,0,1,4.22-20.22,59.58,59.58,0,0,1,10.22-18c2.23-2.66,4.78-5.08,7.1-7.42s4.56-4.91,6.7-7.5a280.17,280.17,0,0,0,23.07-33.2c7-11.56,13.52-23.43,19.76-35.44,12.46-24,23.81-48.65,34.57-73.51q8.07-18.65,15.67-37.5c5.08-12.56,10.05-25.17,14.78-37.86Z"/></g></svg>